<?xml version="1.0" encoding="UTF-8"?>
<!-- Generator: visioncortex VTracer 0.6.5 -->
<svg version="1.1" xmlns="http://www.w3.org/2000/svg" width="1254" height="1254">
<path d="M0 0 C413.82 0 827.64 0 1254 0 C1254 413.82 1254 827.64 1254 1254 C840.18 1254 426.36 1254 0 1254 C0 840.18 0 426.36 0 0 Z " fill="#F9F5FC" transform="translate(0,0)"/>
<path d="M0 0 C0.86 -0.03 1.72 -0.06 2.61 -0.09 C11.19 1.2 19.01 6.66 26.44 10.88 C27.53 11.49 28.63 12.11 29.75 12.75 C39.21 18.09 48.65 23.47 58.07 28.88 C62.69 31.53 67.32 34.17 71.94 36.81 C72.78 37.3 73.63 37.78 74.5 38.28 C79.87 41.35 85.27 44.38 90.69 47.38 C99.3 52.18 107.88 57.05 116.44 61.96 C130.36 69.94 144.36 77.78 158.41 85.55 C172.65 93.46 186.84 101.45 201.02 109.48 C208.1 113.49 215.21 117.47 222.31 121.44 C229.92 125.69 237.51 129.97 245.06 134.31 C253.06 138.91 261.12 143.41 269.19 147.88 C278.1 152.81 286.99 157.8 295.82 162.88 C305.81 168.61 315.87 174.21 325.92 179.83 C336.86 185.94 347.77 192.1 358.67 198.28 C363.77 201.17 368.87 204.04 373.99 206.89 C375.02 207.46 376.05 208.03 377.11 208.63 C379.06 209.72 381.02 210.8 382.97 211.89 C396.89 219.68 396.89 219.68 400.69 225.38 C401.18 230.39 401.29 233.54 398.25 237.82 C394.76 241.3 390.07 243.18 385.69 245.31 C382.76 246.77 379.83 248.23 376.93 249.74 C374.82 250.8 372.68 251.82 370.52 252.78 C362.36 256.76 362.36 256.76 360.59 261.01 C360.17 264.27 360.14 267.35 360.23 270.64 C360.22 271.86 360.21 273.08 360.2 274.34 C360.18 277.67 360.21 281 360.27 284.33 C360.32 287.81 360.29 291.29 360.28 294.78 C360.27 301.37 360.31 307.96 360.38 314.55 C360.45 322.06 360.46 329.56 360.46 337.07 C360.46 352.51 360.54 367.94 360.69 383.38 C361.3 383.66 361.91 383.95 362.54 384.24 C368.92 387.6 373.45 394.65 375.69 401.38 C376.34 409.69 376.48 417.28 371.69 424.38 C370.42 425.79 369.13 427.19 367.81 428.56 C365.99 430.55 365.99 430.55 364.69 432.38 C364.94 435.19 364.94 435.19 366.69 438.38 C375.01 455.71 378.49 473.84 381.19 492.75 C381.41 494.25 381.62 495.75 381.84 497.25 C383.23 506.89 384.5 516.54 385.66 526.21 C386.4 532.31 387.27 538.37 388.25 544.44 C388.31 544.82 388.31 544.82 388.63 546.78 C388.75 547.53 388.87 548.28 388.99 549.05 C390.03 555.48 391.02 561.89 391.69 568.38 C391.82 569.65 391.95 570.92 392.09 572.24 C392.62 581.12 392.62 581.12 390.32 584.22 C388.16 585.69 386.15 586.52 383.69 587.38 C382.77 587.74 381.85 588.1 380.91 588.47 C369.27 592.74 357.82 593.69 345.5 593.56 C344.27 593.56 343.05 593.56 341.79 593.56 C332.83 593.52 332.83 593.52 331.69 592.38 C329.94 592.1 328.19 591.85 326.44 591.62 C319.47 590.52 313.07 588.36 306.69 585.38 C305.9 585.01 305.12 584.65 304.31 584.28 C301.99 581.56 302.31 579.44 302.47 575.95 C302.85 571.45 303.38 566.98 304 562.5 C304.14 561.48 304.27 560.47 304.41 559.42 C305.32 552.76 306.34 546.12 307.42 539.48 C308.68 531.7 309.73 523.88 310.8 516.07 C317.04 470.41 317.04 470.41 323.62 450.06 C323.87 449.31 324.11 448.55 324.35 447.78 C325.58 444.1 326.93 440.8 328.91 437.46 C330.69 434.38 330.69 434.38 330.25 432.31 C328.99 430.75 327.66 429.24 326.31 427.75 C320.6 420.95 318.93 413.3 319.25 404.55 C320.48 395.67 325.76 388.85 332.69 383.38 C333.35 383.38 334.01 383.38 334.69 383.38 C334.69 347.08 334.69 310.77 334.69 273.38 C319.78 281.4 305.1 289.37 290.54 297.95 C284.88 301.28 279.16 304.49 273.44 307.69 C263.62 313.19 253.98 318.99 244.38 324.86 C236.28 329.82 228.12 334.68 219.94 339.5 C207.38 346.91 195.01 354.58 182.69 362.38 C180.97 363.46 179.25 364.54 177.53 365.63 C175.14 367.14 172.74 368.65 170.35 370.17 C166.17 372.81 161.99 375.44 157.79 378.05 C151.77 381.8 145.77 385.59 139.82 389.45 C139.09 389.92 138.35 390.4 137.6 390.88 C129.3 396.27 121.02 401.69 112.75 407.12 C111.94 407.66 111.13 408.19 110.3 408.74 C84.52 425.7 58.72 442.74 33.8 460.93 C32.99 461.52 32.19 462.11 31.36 462.71 C29.85 463.81 28.35 464.92 26.86 466.03 C18.97 471.81 11.9 476.44 1.94 476.69 C0.95 476.72 -0.03 476.76 -1.05 476.8 C-8.72 475.8 -15.34 470.52 -21.59 466.24 C-22.02 465.94 -22.02 465.94 -24.23 464.44 C-26.09 463.18 -27.95 461.92 -29.81 460.65 C-34.66 457.34 -39.53 454.05 -44.39 450.76 C-44.87 450.43 -44.87 450.43 -47.28 448.8 C-58.54 441.18 -69.89 433.73 -81.31 426.38 C-82.34 425.71 -83.36 425.05 -84.42 424.37 C-98.65 415.2 -112.97 406.17 -127.35 397.23 C-130.29 395.39 -133.23 393.55 -136.17 391.7 C-160.7 376.3 -185.52 361.41 -210.45 346.66 C-214.13 344.48 -217.82 342.3 -221.5 340.11 C-252.52 321.69 -283.75 303.66 -315.25 286.08 C-318.31 284.38 -321.36 282.67 -324.41 280.95 C-334.93 275.05 -345.47 269.17 -356.03 263.33 C-357.25 262.66 -358.48 261.98 -359.71 261.3 C-366.22 257.69 -372.76 254.13 -379.34 250.65 C-380.45 250.06 -381.55 249.48 -382.69 248.88 C-384.75 247.78 -386.82 246.7 -388.9 245.62 C-394.47 242.67 -398.41 240.17 -401.31 234.38 C-401.87 228.58 -400.91 225.9 -397.31 221.38 C-394.96 219.7 -392.76 218.31 -390.25 216.94 C-389.89 216.73 -389.89 216.73 -388.05 215.68 C-385.48 214.23 -382.9 212.8 -380.31 211.38 C-378.21 210.2 -376.1 209.03 -374 207.85 C-369.97 205.61 -365.94 203.37 -361.9 201.14 C-346.07 192.38 -330.35 183.41 -314.65 174.41 C-306.32 169.64 -297.95 164.92 -289.56 160.25 C-281.36 155.68 -273.22 151.01 -265.12 146.25 C-256.63 141.26 -248.06 136.45 -239.39 131.77 C-230.51 126.96 -221.75 121.94 -213 116.91 C-208.36 114.26 -203.71 111.63 -199.06 109 C-198.11 108.46 -197.16 107.93 -196.18 107.37 C-187.97 102.74 -179.74 98.14 -171.51 93.54 C-164.07 89.37 -156.66 85.15 -149.26 80.91 C-142.53 77.06 -135.77 73.27 -129 69.5 C-119.55 64.23 -110.18 58.82 -100.84 53.34 C-94.33 49.53 -87.78 45.83 -81.17 42.2 C-74.9 38.74 -68.73 35.13 -62.56 31.5 C-53.85 26.38 -45.05 21.45 -36.15 16.66 C-29.58 13.11 -23.13 9.39 -16.76 5.5 C-11.37 2.24 -6.41 0.09 0 0 Z " fill="#673EC3" transform="translate(627.3125,276.625)"/>
<path d="M0 0 C3.82 0.85 6.68 2.4 10.07 4.39 C10.65 4.74 11.24 5.08 11.84 5.43 C13.75 6.56 15.66 7.68 17.56 8.81 C18.89 9.59 20.21 10.37 21.54 11.16 C31.01 16.76 40.38 22.52 49.64 28.48 C52.23 30.15 54.84 31.81 57.45 33.46 C75.12 44.67 92.67 56.06 110.15 67.56 C112.05 68.81 113.95 70.06 115.85 71.31 C126.79 78.49 137.65 85.75 148.29 93.36 C152.1 96.08 155.95 98.73 159.81 101.38 C160.18 101.62 160.18 101.62 162.02 102.89 C162.6 103.29 163.18 103.68 163.78 104.09 C177.25 113.35 190.57 122.8 203.8 132.4 C205.99 133.99 208.19 135.57 210.39 137.14 C219.6 143.74 228.67 150.51 237.67 157.4 C242.78 161.32 247.93 165.18 253.18 168.91 C255.59 170.69 257.92 172.53 260.26 174.4 C261.02 175 261.78 175.6 262.56 176.23 C264.08 177.43 265.58 178.64 267.08 179.87 C267.42 180.15 267.42 180.15 269.18 181.54 C269.49 181.78 269.49 181.78 271.05 183.05 C273.76 184.37 275.16 183.93 278 183 C280.01 181.82 280.01 181.82 281.98 180.33 C282.72 179.78 283.46 179.22 284.23 178.65 C285.02 178.04 285.81 177.44 286.62 176.81 C288.33 175.53 290.04 174.24 291.75 172.96 C292.63 172.3 293.5 171.64 294.4 170.96 C298.43 167.92 302.49 164.93 306.56 161.94 C307.35 161.36 308.13 160.78 308.94 160.19 C320.73 151.5 332.62 142.95 344.6 134.52 C349.79 130.87 354.93 127.16 360.06 123.44 C366.3 118.91 372.61 114.49 378.98 110.15 C383.89 106.8 388.7 103.32 393.5 99.81 C401.64 93.87 409.99 88.27 418.41 82.73 C423.11 79.64 427.74 76.49 432.27 73.16 C439.13 68.12 446.22 63.45 453.31 58.75 C454.76 57.79 456.22 56.82 457.67 55.86 C459.9 54.37 462.14 52.89 464.37 51.4 C469.29 48.14 474.21 44.86 479.12 41.57 C496.79 29.77 514.48 18.02 532.5 6.75 C533.39 6.19 534.28 5.63 535.2 5.05 C536.03 4.53 536.86 4.02 537.72 3.48 C538.45 3.03 539.18 2.57 539.94 2.1 C541.97 1.01 543.76 0.52 546 0 C546.09 16.24 546.16 32.48 546.21 48.72 C546.23 56.26 546.26 63.8 546.3 71.34 C546.34 77.91 546.37 84.49 546.38 91.07 C546.38 94.55 546.39 98.02 546.42 101.5 C546.46 105.4 546.46 109.29 546.45 113.18 C546.47 114.32 546.48 115.46 546.5 116.64 C546.45 126.74 543.97 135.89 537.41 143.78 C534.41 146.54 531.21 148.54 527.72 150.62 C526.28 151.51 524.83 152.39 523.39 153.28 C522.66 153.73 521.93 154.18 521.17 154.65 C515.1 158.43 509.19 162.46 503.25 166.44 C501.81 167.4 500.38 168.36 498.94 169.32 C486.32 177.76 473.74 186.28 461.18 194.83 C458.11 196.92 455.04 199.01 451.97 201.09 C442.34 207.63 432.76 214.24 423.27 220.98 C419.4 223.72 415.51 226.44 411.61 229.16 C402.73 235.35 393.93 241.63 385.16 247.98 C381.46 250.67 377.73 253.34 374 256 C352.83 271.1 331.91 286.49 311.26 302.28 C307.49 305.15 303.71 308.02 299.89 310.83 C297.66 312.51 295.49 314.22 293.33 315.98 C281.68 325.31 281.68 325.31 273.56 324.78 C267.55 322.95 262.69 319.15 257.81 315.31 C256.67 314.42 255.53 313.53 254.38 312.64 C253.81 312.19 253.25 311.75 252.66 311.29 C248.7 308.21 244.67 305.23 240.65 302.23 C238.87 300.9 237.1 299.56 235.32 298.23 C226.07 291.24 216.7 284.41 207.29 277.65 C205.01 276 202.73 274.36 200.46 272.71 C190.36 265.39 180.21 258.16 170 251 C169.21 250.45 168.43 249.89 167.62 249.32 C146.53 234.49 125.18 220.08 103.71 205.8 C99.24 202.82 94.77 199.84 90.3 196.85 C71.16 184.05 51.84 171.5 32.22 159.44 C31.28 158.86 30.34 158.28 29.38 157.69 C27.6 156.6 25.83 155.52 24.05 154.44 C9.36 145.44 9.36 145.44 5.69 139.69 C5.24 139.01 4.79 138.33 4.32 137.64 C0.28 129.57 -0.42 122.37 -0.34 113.41 C-0.34 112.18 -0.34 110.95 -0.34 109.68 C-0.34 106.34 -0.33 102.99 -0.3 99.64 C-0.29 96.14 -0.28 92.63 -0.28 89.12 C-0.27 82.49 -0.25 75.86 -0.22 69.23 C-0.18 61.68 -0.17 54.13 -0.15 46.58 C-0.12 31.05 -0.07 15.53 0 0 Z " fill="#653BCB" transform="translate(354,638)"/>
<path d="M0 0 C0 41.58 0 83.16 0 126 C0.66 126.33 0.66 126.33 4 128 C9.62 132.9 14.64 139.41 15.24 147.04 C15.45 157.34 14.29 163.68 7.12 171.19 C5.3 173.18 5.3 173.18 4 175 C4.25 177.81 4.25 177.81 6 181 C14.32 198.33 17.8 216.46 20.5 235.38 C20.72 236.88 20.94 238.38 21.15 239.88 C22.55 249.52 23.81 259.17 24.97 268.84 C25.72 274.93 26.58 281 27.56 287.06 C27.69 287.83 27.81 288.61 27.94 289.4 C28.06 290.15 28.18 290.9 28.3 291.67 C29.34 298.1 30.33 304.52 31 311 C31.13 312.27 31.27 313.55 31.4 314.86 C31.93 323.75 31.93 323.75 29.63 326.84 C27.48 328.31 25.46 329.14 23 330 C22.08 330.36 21.16 330.72 20.22 331.1 C8.58 335.37 -2.87 336.32 -15.19 336.19 C-16.41 336.19 -17.64 336.19 -18.9 336.19 C-27.86 336.14 -27.86 336.14 -29 335 C-30.75 334.72 -32.5 334.48 -34.25 334.25 C-41.21 333.14 -47.62 330.99 -54 328 C-54.78 327.64 -55.57 327.28 -56.38 326.9 C-58.7 324.18 -58.38 322.06 -58.22 318.57 C-57.83 314.07 -57.31 309.6 -56.69 305.12 C-56.55 304.11 -56.41 303.09 -56.27 302.04 C-55.36 295.38 -54.35 288.74 -53.26 282.11 C-52.01 274.32 -50.95 266.51 -49.89 258.69 C-43.65 213.04 -43.65 213.04 -37.06 192.69 C-36.82 191.93 -36.58 191.18 -36.33 190.4 C-35.11 186.73 -33.76 183.42 -31.78 180.09 C-30 177 -30 177 -30.44 174.94 C-31.7 173.37 -33.03 171.86 -34.38 170.38 C-40.09 163.58 -41.76 155.92 -41.44 147.18 C-40.21 138.3 -34.93 131.48 -28 126 C-27.34 126 -26.68 126 -26 126 C-26 89.7 -26 53.4 -26 16 C-52 30 -52 30 -61 35 C-61.99 35 -62.98 35 -64 35 C-64 34.34 -64 33.68 -64 33 C-61.52 31.27 -61.52 31.27 -58.25 29.38 C-57.72 29.06 -57.72 29.06 -55.02 27.46 C-52 26 -52 26 -48 26 C-48 25.34 -48 24.68 -48 24 C-45.35 22.54 -44.11 22 -41 22 C-40.67 21.34 -40.34 20.68 -40 20 C-35.73 16.47 -31.17 14.65 -25.88 13.19 C-18.5 11.09 -6.35 0 0 0 Z " fill="#5631B9" transform="translate(988,534)"/>
<path d="M0 0 C0 41.25 0 82.5 0 125 C-0.33 125 -0.66 125 -1 125 C-1.16 119.88 -1.16 119.88 -2 94 C-1.98 97.09 -1.96 100.19 -1.94 103.38 C-1.91 110.32 -2.08 117.1 -3 124 C-3.68 123.84 -4.35 123.67 -5.05 123.5 C-8.5 122.91 -11.75 122.94 -15.25 123 C-17.5 123.04 -19.75 123.05 -22 123 C-22.33 122.67 -22.66 122.34 -23 122 C-23.66 122.99 -24.32 123.98 -25 125 C-25.83 122.1 -26.12 119.54 -26.12 116.53 C-26.12 115.64 -26.12 114.75 -26.12 113.84 C-26.12 113.36 -26.12 113.36 -26.11 110.91 C-26.11 109.88 -26.11 108.86 -26.11 107.8 C-26.11 104.41 -26.11 101.03 -26.1 97.64 C-26.1 95.29 -26.09 92.94 -26.09 90.6 C-26.09 84.41 -26.08 78.23 -26.07 72.05 C-26.06 65.74 -26.05 59.44 -26.05 53.13 C-26.04 40.75 -26.02 28.38 -26 16 C-29.54 17.9 -33.08 19.8 -36.61 21.71 C-37.81 22.35 -39.01 23 -40.21 23.64 C-41.95 24.58 -43.69 25.51 -45.43 26.45 C-46.55 27.05 -47.68 27.65 -48.83 28.27 C-52.33 30.18 -55.78 32.15 -59.22 34.16 C-61 35 -61 35 -64 35 C-64 34.34 -64 33.68 -64 33 C-61.52 31.27 -61.52 31.27 -58.25 29.38 C-57.72 29.06 -57.72 29.06 -55.02 27.46 C-52 26 -52 26 -48 26 C-48 25.34 -48 24.68 -48 24 C-45.35 22.54 -44.11 22 -41 22 C-40.67 21.34 -40.34 20.68 -40 20 C-35.73 16.47 -31.17 14.65 -25.88 13.19 C-18.5 11.09 -6.35 0 0 0 Z " fill="#4C29B2" transform="translate(988,534)"/>
<path d="M0 0 C-4.37 3.26 -8.76 6.03 -13.55 8.62 C-17.08 10.61 -20.45 12.83 -23.84 15.06 C-28.46 17.89 -33.23 20.42 -38 23 C-81.75 46.89 -81.75 46.89 -86 52 C-86.88 57.03 -86.88 57.03 -86 60 C-81.1 64.03 -75.69 66.92 -70.06 69.81 C-69.28 70.22 -68.5 70.63 -67.7 71.04 C-65.8 72.03 -63.9 73.02 -62 74 C-62 74.66 -62 75.32 -62 76 C-60.35 76.33 -58.7 76.66 -57 77 C-57 77.66 -57 78.32 -57 79 C-56.54 79.06 -56.54 79.06 -54.19 79.38 C-51 80 -51 80 -48 82 C-48 82.66 -48 83.32 -48 84 C-46.68 84 -45.36 84 -44 84 C-44 84.66 -44 85.32 -44 86 C-43.29 86.1 -42.59 86.2 -41.86 86.31 C-38.59 87.1 -36.11 88.41 -33.19 90.06 C-32.21 90.61 -31.24 91.16 -30.23 91.72 C-29.49 92.14 -28.76 92.57 -28 93 C-28 93.66 -28 94.32 -28 95 C-27.61 95.07 -27.61 95.07 -25.62 95.44 C-23 96 -23 96 -21 97 C-21 97.66 -21 98.32 -21 99 C-20.43 99.17 -19.86 99.34 -19.28 99.52 C-14.07 101.15 -9.65 103.13 -5 106 C-5 106.66 -5 107.32 -5 108 C-2.69 108.66 -0.38 109.32 2 110 C2 110.66 2 111.32 2 112 C2.85 112.27 3.69 112.54 4.56 112.81 C8.14 114.05 11.54 115.48 15 117 C15 117.66 15 118.32 15 119 C15.54 119.08 16.07 119.16 16.62 119.25 C19.84 120.26 22.26 122.07 25 124 C22 125 22 125 20 124.22 C19.25 123.79 18.49 123.37 17.7 122.93 C16.84 122.45 15.98 121.98 15.09 121.48 C14.15 120.95 13.21 120.42 12.25 119.88 C11.27 119.33 10.29 118.78 9.28 118.22 C6.18 116.49 3.09 114.75 0 113 C-0.93 112.48 -1.86 111.95 -2.82 111.41 C-6.52 109.32 -10.22 107.23 -13.91 105.13 C-21.62 100.76 -29.36 96.46 -37.12 92.19 C-37.43 92.02 -37.43 92.02 -38.94 91.18 C-45.31 87.68 -51.68 84.17 -58.05 80.68 C-60.71 79.22 -63.37 77.76 -66.02 76.3 C-67.89 75.28 -69.76 74.25 -71.64 73.23 C-72.21 72.91 -72.21 72.91 -75.09 71.33 C-76.09 70.78 -77.09 70.23 -78.12 69.67 C-87.91 64 -87.91 64 -90 59 C-90.52 54.9 -90.38 52.71 -88.41 49.05 C-85.66 45.57 -82.76 43.66 -78.94 41.56 C-78.21 41.15 -77.48 40.74 -76.73 40.31 C-74.16 38.86 -71.58 37.43 -69 36 C-66.89 34.83 -64.79 33.65 -62.68 32.48 C-58.67 30.24 -54.65 28.01 -50.63 25.78 C-43.67 21.93 -36.73 18.04 -29.81 14.12 C-28.88 13.6 -27.94 13.07 -26.98 12.52 C-22.67 10.09 -18.39 7.65 -14.12 5.16 C-13.38 4.73 -12.63 4.29 -11.87 3.85 C-10.5 3.06 -9.14 2.26 -7.78 1.45 C-3.34 -1.11 -3.34 -1.11 0 0 Z " fill="#3F27AB" transform="translate(316,452)"/>
<path d="M0 0 C4.29 1.3 7.91 2.95 11.75 5.25 C12.79 5.87 13.82 6.48 14.89 7.12 C16.89 8.33 18.89 9.54 20.89 10.76 C21.77 11.29 22.66 11.83 23.56 12.38 C24.35 12.86 25.13 13.34 25.94 13.84 C28 15 28 15 31 16 C31 16.66 31 17.32 31 18 C31.68 18.25 32.36 18.5 33.06 18.75 C37.19 20.51 40.97 22.8 44.83 25.08 C48.15 27.01 51.43 28.6 55 30 C55.45 30.47 55.91 30.95 56.38 31.44 C58.84 33.81 61.86 34.71 65 36 C65.5 36.33 65.5 36.33 68 38 C68 38.66 68 39.32 68 40 C68.99 40 69.98 40 71 40 C71 40.66 71 41.32 71 42 C72.65 42.33 74.3 42.66 76 43 C76 43.66 76 44.32 76 45 C77.01 45.25 78.02 45.5 79.07 45.75 C83.06 46.89 86.45 48.79 89.94 51 C90.53 51.36 91.11 51.71 91.72 52.08 C93.19 52.99 94.6 53.99 96 55 C96 55.66 96 56.32 96 57 C97.65 57.33 99.3 57.66 101 58 C101.33 58.99 101.66 59.98 102 61 C102.72 61.1 103.44 61.21 104.19 61.31 C107.28 62.07 109.42 63.16 112 65 C112 65.66 112 66.32 112 67 C113.65 67.33 115.3 67.66 117 68 C117 68.66 117 69.32 117 70 C117.99 70 118.98 70 120 70 C120.33 70.66 120.66 71.32 121 72 C123.31 73.05 125.64 74.06 128 75 C128 75.66 128 76.32 128 77 C129.65 77.33 131.3 77.66 133 78 C133.33 78.99 133.66 79.98 134 81 C135.65 81.33 137.3 81.66 139 82 C139 82.66 139 83.32 139 84 C140.13 84.27 141.27 84.54 142.44 84.81 C143.61 85.2 144.79 85.6 146 86 C146.33 86.99 146.66 87.98 147 89 C147.38 89.06 147.38 89.06 149.31 89.38 C152 90 152 90 155 92 C155 92.66 155 93.32 155 94 C155.33 94.03 155.33 94.03 157 94.19 C161.12 95.3 164.66 97.34 168 100 C168 100.66 168 101.32 168 102 C168.58 102.12 169.17 102.24 169.77 102.36 C173.54 103.44 176.52 105.76 179.75 107.94 C180.45 108.39 181.14 108.85 181.86 109.32 C183.61 110.49 185.31 111.74 187 113 C187 113.66 187 114.32 187 115 C188.32 115 189.64 115 191 115 C191 115.66 191 116.32 191 117 C191.99 117 192.98 117 194 117 C194.54 117.56 195.07 118.11 195.62 118.69 C199.46 122.42 204.24 124.62 209 127 C209 127.66 209 128.32 209 129 C209.99 129 210.98 129 212 129 C212 129.66 212 130.32 212 131 C212.99 131.33 213.98 131.66 215 132 C208.38 131.67 204.38 129.06 199.01 125.34 C198.15 124.76 197.3 124.19 196.42 123.59 C194.59 122.36 192.77 121.12 190.95 119.87 C187.15 117.27 183.34 114.7 179.52 112.12 C177.63 110.85 175.73 109.57 173.84 108.29 C166.75 103.49 159.6 98.78 152.38 94.19 C151.41 93.57 150.44 92.96 149.45 92.33 C146.64 90.54 143.82 88.77 141 87 C140.02 86.38 139.04 85.77 138.03 85.13 C132.02 81.36 125.99 77.6 119.97 73.85 C117.02 72.01 114.08 70.17 111.14 68.32 C83.42 50.91 55.3 34.17 27.11 17.52 C24.62 16.05 22.13 14.58 19.64 13.1 C17.93 12.09 16.21 11.08 14.5 10.07 C3.97 3.85 3.97 3.85 0 1 C0 0.67 0 0.34 0 0 Z " fill="#4026AD" transform="translate(380,600)"/>
<path d="M0 0 C0.86 -0.03 1.72 -0.06 2.61 -0.09 C11.19 1.2 19.01 6.66 26.44 10.88 C27.52 11.49 28.61 12.1 29.73 12.73 C37.74 17.25 45.72 21.8 53.7 26.38 C59 29.42 64.33 32.42 69.69 35.38 C69.03 36.37 68.37 37.36 67.69 38.38 C67.69 37.72 67.69 37.06 67.69 36.38 C65 35.27 62.35 34.27 59.56 33.44 C56.65 32.36 55.77 31.54 53.69 29.38 C51.7 28.36 49.69 27.36 47.69 26.38 C46.04 25.39 44.39 24.38 42.75 23.38 C38.82 20.99 34.97 19.05 30.69 17.38 C30.69 16.71 30.69 16.06 30.69 15.38 C28.38 14.71 26.07 14.06 23.69 13.38 C23.69 12.71 23.69 12.06 23.69 11.38 C22.97 11.1 22.24 10.82 21.5 10.54 C17.94 9.07 14.59 7.29 11.19 5.5 C6 3.17 0.29 2.5 -5.31 3.38 C-9.53 4.99 -13.39 7.14 -17.31 9.38 C-18.5 10.04 -19.69 10.71 -20.88 11.38 C-23.28 12.74 -25.68 14.12 -28.07 15.5 C-30.66 17 -33.25 18.45 -35.88 19.88 C-39.58 21.91 -43.16 24.13 -46.75 26.38 C-51.41 29.27 -56.1 31.84 -61.04 34.22 C-63.99 35.72 -66.74 37.47 -69.52 39.26 C-72.03 40.82 -74.68 42.06 -77.31 43.38 C-78.78 44.24 -80.23 45.11 -81.68 45.99 C-87.92 49.75 -94.2 53.41 -100.5 57.06 C-101.64 57.73 -102.77 58.39 -103.94 59.07 C-109.3 62.17 -114.53 65.14 -120.31 67.38 C-120.97 66.72 -121.63 66.06 -122.31 65.38 C-121.62 64.99 -120.93 64.61 -120.21 64.22 C-107.84 57.4 -95.49 50.54 -83.31 43.38 C-73.69 37.72 -63.97 32.26 -54.2 26.86 C-47.06 22.91 -39.95 18.92 -32.88 14.88 C-32.02 14.39 -31.16 13.9 -30.28 13.39 C-26.69 11.34 -23.11 9.27 -19.56 7.15 C-18.51 6.52 -17.46 5.9 -16.38 5.25 C-15.95 4.99 -15.95 4.99 -13.79 3.68 C-9.29 1.31 -5.08 0.08 0 0 Z " fill="#A06AE8" transform="translate(627.3125,276.625)"/>
<path d="M0 0 C-8.19 5.09 -16.44 10.05 -24.77 14.9 C-47.08 27.88 -69.09 41.35 -91 55 C-91.96 55.6 -92.93 56.2 -93.92 56.82 C-109.93 66.8 -125.95 76.79 -141.81 87 C-142.46 87.42 -143.12 87.84 -143.79 88.27 C-148.08 91.05 -152.32 93.89 -156.54 96.76 C-159.26 98.61 -161.98 100.45 -164.7 102.29 C-166.06 103.22 -167.42 104.15 -168.77 105.08 C-170.69 106.4 -172.62 107.71 -174.55 109.01 C-174.84 109.21 -174.84 109.21 -176.29 110.23 C-179.66 112.48 -181.94 113.48 -186 113 C-184.69 111.5 -184.69 111.5 -183 110 C-182.01 110 -181.02 110 -180 110 C-180 109.34 -180 108.68 -180 108 C-179.17 107.67 -179.17 107.67 -175 106 C-175 105.34 -175 104.68 -175 104 C-174.01 103.84 -174.01 103.84 -169 103 C-169 102.34 -169 101.68 -169 101 C-168.01 101 -167.02 101 -166 101 C-166 100.34 -166 99.68 -166 99 C-165.01 99 -164.02 99 -163 99 C-162.84 98.5 -162.84 98.5 -162 96 C-161.17 95.84 -161.17 95.84 -157 95 C-157 94.34 -157 93.68 -157 93 C-156.26 92.75 -155.51 92.5 -154.75 92.25 C-152 91 -152 91 -150.12 89.06 C-147.4 86.42 -144.48 85.45 -141 84 C-139.98 83.02 -138.98 82.02 -138 81 C-137.01 81 -136.02 81 -135 81 C-134.84 80.5 -134.84 80.5 -134 78 C-132.22 76.83 -132.22 76.83 -130.06 75.81 C-129.35 75.47 -128.64 75.12 -127.91 74.77 C-126 74 -126 74 -124 74 C-124 73.34 -124 72.68 -124 72 C-123.17 71.84 -123.17 71.84 -119 71 C-119 70.34 -119 69.68 -119 69 C-116.09 66.98 -113.48 65.65 -110 65 C-110 64.34 -110 63.68 -110 63 C-108.35 62.67 -106.7 62.34 -105 62 C-105 61.34 -105 60.68 -105 60 C-103.09 58.67 -103.09 58.67 -100.5 57.19 C-97.32 55.34 -94.16 53.49 -91.06 51.5 C-87.89 49.49 -84.63 47.71 -81.31 45.94 C-77.52 43.9 -74.33 41.73 -71 39 C-66.3 36 -61.46 33.24 -56.56 30.56 C-52.1 28.11 -47.84 25.38 -43.56 22.63 C-40.43 20.64 -37.25 18.8 -34 17 C-33.22 16.55 -32.45 16.11 -31.64 15.65 C-30.83 15.19 -30.02 14.73 -29.19 14.25 C-28.44 13.82 -27.69 13.39 -26.92 12.95 C-25 12 -25 12 -23 12 C-23 11.34 -23 10.68 -23 10 C-22.23 9.62 -21.45 9.25 -20.66 8.86 C-15.07 6.12 -9.71 3.37 -4.62 -0.21 C-3 -1 -3 -1 0 0 Z " fill="#4025B1" transform="translate(909,579)"/>
<path d="M0 0 C0.66 0.16 0.66 0.16 4 1 C-3.27 6.39 -10.67 11.52 -18.23 16.5 C-31.99 25.57 -45.6 34.86 -58.91 44.58 C-59.72 45.16 -60.52 45.75 -61.35 46.35 C-62.84 47.45 -64.34 48.55 -65.83 49.65 C-73.71 55.43 -80.78 60.07 -90.75 60.31 C-91.24 60.33 -91.24 60.33 -93.73 60.43 C-102.07 59.34 -109.18 53.44 -116 48.88 C-116.97 48.24 -117.93 47.61 -118.93 46.96 C-119.38 46.65 -119.38 46.65 -121.69 45.12 C-122.52 44.57 -123.35 44.02 -124.2 43.45 C-124.79 42.97 -125.39 42.49 -126 42 C-126 41.34 -126 40.68 -126 40 C-124.68 40 -123.36 40 -122 40 C-122 40.66 -122 41.32 -122 42 C-121.01 42 -120.02 42 -119 42 C-118.67 42.66 -118.34 43.32 -118 44 C-116.64 44.84 -115.23 45.63 -113.81 46.38 C-109.23 48.85 -104.89 51.49 -100.81 54.75 C-99 56 -99 56 -96 56 C-96 56.66 -96 57.32 -96 58 C-81.44 56.08 -72.48 51.29 -61.29 41.6 C-58.81 39.86 -56.98 39.37 -54 39 C-54 38.34 -54 37.68 -54 37 C-53.01 37 -52.02 37 -51 37 C-51 36.34 -51 35.68 -51 35 C-50.01 35 -49.02 35 -48 35 C-48 34.34 -48 33.68 -48 33 C-47.01 32.67 -46.02 32.34 -45 32 C-44.64 31.62 -44.64 31.62 -42.81 29.69 C-39.88 26.89 -37.33 25.51 -33.67 23.89 C-32 23 -32 23 -31 21 C-29.33 20.11 -29.33 20.11 -27.25 19.19 C-23.4 17.36 -20.98 15.06 -18 12 C-15.19 10.69 -15.19 10.69 -13 10 C-13 9.34 -13 8.68 -13 8 C-11.68 8 -10.36 8 -9 8 C-8.67 7.01 -8.34 6.02 -8 5 C-5.67 4.33 -3.33 3.67 -1 3 C-0.67 2.01 -0.34 1.02 0 0 Z " fill="#3D25AC" transform="translate(720,693)"/>
<path d="M0 0 C0 36.63 0 73.26 0 111 C-1.83 107.35 -2.25 106.32 -2.24 102.53 C-2.24 101.64 -2.25 100.75 -2.25 99.84 C-2.24 98.87 -2.23 97.9 -2.23 96.91 C-2.23 95.88 -2.23 94.86 -2.23 93.8 C-2.23 90.41 -2.21 87.03 -2.2 83.64 C-2.19 81.29 -2.19 78.94 -2.19 76.6 C-2.18 70.41 -2.16 64.23 -2.14 58.05 C-2.12 51.74 -2.11 45.44 -2.1 39.13 C-2.08 26.75 -2.04 14.38 -2 2 C-5.54 3.9 -9.08 5.8 -12.61 7.71 C-13.81 8.35 -15.01 9 -16.21 9.64 C-17.95 10.58 -19.69 11.51 -21.43 12.45 C-22.55 13.05 -23.68 13.65 -24.83 14.27 C-28.33 16.18 -31.78 18.15 -35.22 20.16 C-37 21 -37 21 -40 21 C-40 20.34 -40 19.68 -40 19 C-37.52 17.27 -37.52 17.27 -34.25 15.38 C-33.18 14.74 -32.12 14.11 -31.02 13.46 C-28 12 -28 12 -24 12 C-24 11.34 -24 10.68 -24 10 C-21.35 8.54 -20.11 8 -17 8 C-16.67 7.34 -16.34 6.68 -16 6 C-14.26 4.75 -14.26 4.75 -12.12 3.44 C-11.43 3 -10.73 2.57 -10.01 2.12 C-6.36 0.08 -4.33 0 0 0 Z " fill="#3D1FB1" transform="translate(964,548)"/>
<path d="M0 0 C3.21 0.73 5.48 1.76 8.25 3.56 C8.96 4.02 9.66 4.47 10.39 4.94 C10.66 5.12 10.66 5.12 12 6 C8.8 7.6 6.28 6.03 3 5 C3 5.6 3 6.21 3 6.83 C3.02 21.52 3.04 36.21 3.05 50.9 C3.06 58 3.06 65.1 3.08 72.21 C3.09 79.06 3.09 85.91 3.09 92.77 C3.1 95.38 3.1 98 3.11 100.62 C3.11 104.28 3.11 107.94 3.11 111.6 C3.12 112.14 3.12 112.14 3.12 114.89 C3.12 115.89 3.12 116.89 3.12 117.92 C3.12 118.78 3.12 119.65 3.12 120.54 C2.99 123.11 2.57 125.49 2 128 C0 126 0 126 -0.25 123.79 C-0.24 122.86 -0.24 121.93 -0.24 120.98 C-0.24 119.91 -0.25 118.85 -0.25 117.76 C-0.24 116.58 -0.23 115.41 -0.23 114.21 C-0.23 112.98 -0.23 111.75 -0.23 110.48 C-0.23 107.11 -0.22 103.73 -0.2 100.35 C-0.19 96.83 -0.19 93.3 -0.19 89.78 C-0.18 83.1 -0.16 76.42 -0.14 69.74 C-0.12 62.13 -0.11 54.53 -0.1 46.93 C-0.08 31.29 -0.04 15.64 0 0 Z " fill="#461BB6" transform="translate(354,638)"/>
<path d="M0 0 C0.33 0 0.66 0 1 0 C1.09 16.24 1.16 32.48 1.21 48.72 C1.23 56.26 1.26 63.8 1.3 71.34 C1.34 77.91 1.37 84.49 1.38 91.07 C1.38 94.55 1.39 98.02 1.42 101.5 C1.46 105.4 1.46 109.29 1.45 113.18 C1.47 114.32 1.48 115.46 1.5 116.64 C1.45 126.72 -1.02 135.83 -7.53 143.72 C-13.47 149.2 -21.3 154.43 -29 157 C-28.67 156.01 -28.34 155.02 -28 154 C-25.94 153.31 -25.94 153.31 -24 153 C-24 152.34 -24 151.68 -24 151 C-23.01 151 -22.02 151 -21 151 C-21 150.34 -21 149.68 -21 149 C-18 147 -18 147 -15 147 C-15 146.34 -15 145.68 -15 145 C-14.01 145 -13.02 145 -12 145 C-12 144.01 -12 143.02 -12 142 C-11.38 141.77 -10.76 141.55 -10.12 141.31 C-7.37 139.61 -7.05 138 -6 135 C-5.67 134.67 -5.67 134.67 -4 133 C-3.37 130.4 -3.37 130.4 -2.88 127.38 C-2.71 126.37 -2.54 125.37 -2.37 124.34 C-2.25 123.57 -2.12 122.79 -2 122 C-1.34 122 -0.68 122 0 122 C0 81.74 0 41.48 0 0 Z " fill="#3D13B4" transform="translate(899,638)"/>
<path d="M0 0 C-4.64 3.53 -9.26 6.21 -14.51 8.74 C-17.54 10.27 -20.36 12.05 -23.21 13.89 C-25.71 15.44 -28.36 16.68 -31 18 C-32.46 18.86 -33.92 19.74 -35.37 20.62 C-41.6 24.38 -47.89 28.04 -54.19 31.69 C-55.32 32.35 -56.46 33.01 -57.63 33.7 C-62.99 36.8 -68.22 39.77 -74 42 C-74.66 41.34 -75.32 40.68 -76 40 C-75.65 39.81 -75.65 39.81 -73.9 38.85 C-61.4 31.96 -48.94 25.03 -36.62 17.81 C-35.66 17.25 -34.69 16.68 -33.69 16.09 C-29.78 13.81 -25.88 11.52 -21.99 9.21 C-19.08 7.48 -16.17 5.77 -13.25 4.06 C-12.81 3.8 -12.81 3.8 -10.6 2.47 C-10.19 2.23 -10.19 2.23 -8.14 1.04 C-7.43 0.62 -6.73 0.2 -6 -0.23 C-3.58 -1.16 -2.4 -0.86 0 0 Z " fill="#9D68E6" transform="translate(581,302)"/>
<path d="M0 0 C0 28.71 0 57.42 0 87 C-0.33 87 -0.66 87 -1 87 C-1.88 67.03 -2.29 47.06 -2.55 27.08 C-2.6 23.3 -2.66 19.53 -2.72 15.75 C-2.73 14.6 -2.75 13.44 -2.76 12.25 C-2.78 11.19 -2.79 10.14 -2.81 9.05 C-2.82 8.12 -2.84 7.19 -2.85 6.23 C-3 4 -3 4 -4 2 C-1 0 -1 0 0 0 Z " fill="#391BAB" transform="translate(988,534)"/>
<path d="M0 0 C4.19 0.6 7.26 2.04 10.94 4.1 C12.08 4.74 13.22 5.37 14.4 6.03 C15 6.36 15.59 6.7 16.2 7.04 C17.96 8.04 19.73 9.03 21.5 10.01 C44.88 23.07 44.88 23.07 48 27 C47.69 29.19 47.69 29.19 47 31 C46.3 30.25 45.59 29.51 44.87 28.74 C37.36 21.57 27.44 17.13 18.19 12.6 C14.25 10.62 10.61 8.53 7 6 C7 5.34 7 4.68 7 4 C6.61 3.93 6.61 3.93 4.62 3.56 C2 3 2 3 0 2 C0 1.34 0 0.68 0 0 Z " fill="#3F22AF" transform="translate(979,473)"/>
<path d="M0 0 C0 0.99 0 1.98 0 3 C-2.13 4.69 -4.21 6.15 -6.48 7.61 C-7.16 8.06 -7.83 8.51 -8.53 8.97 C-10.74 10.43 -12.97 11.87 -15.19 13.31 C-16.7 14.31 -18.21 15.3 -19.72 16.29 C-22.73 18.28 -25.75 20.25 -28.77 22.23 C-34.39 25.91 -39.98 29.64 -45.56 33.38 C-47.23 34.49 -48.9 35.6 -50.57 36.71 C-51.24 37.16 -51.91 37.6 -52.6 38.06 C-53.06 38.37 -53.52 38.68 -54 39 C-54.66 38.67 -55.32 38.34 -56 38 C-52.83 34.46 -50.83 32.41 -46 32 C-46 31.34 -46 30.68 -46 30 C-44.02 29.34 -42.04 28.68 -40 28 C-40 27.34 -40 26.68 -40 26 C-38.02 25.34 -36.04 24.68 -34 24 C-34 23.34 -34 22.68 -34 22 C-33.4 21.73 -32.8 21.46 -32.19 21.19 C-30 20 -30 20 -28.64 18.58 C-26.16 16.19 -23.2 14.86 -20.16 13.28 C-18 12 -18 12 -16.41 10.34 C-15 9 -15 9 -12 9 C-12 8.34 -12 7.68 -12 7 C-8.21 4.2 -4.25 2.02 0 0 Z " fill="#492BC0" transform="translate(867,795)"/>
<path d="M0 0 C11.09 5.22 21.65 11.4 32.29 17.47 C36.18 19.67 40.09 21.84 44 24 C43.01 24.66 42.02 25.32 41 26 C11.65 9.74 11.65 9.74 0 3 C0 2.01 0 1.02 0 0 Z " fill="#8551DB" transform="translate(713,322)"/>
<path d="M0 0 C0.66 0 1.32 0 2 0 C1.76 4.03 1.54 6.36 -1.12 9.49 C-4.19 12.17 -7.36 14.11 -10.95 15.99 C-11.6 16.34 -12.25 16.68 -12.92 17.04 C-14.29 17.77 -15.66 18.49 -17.03 19.21 C-19.13 20.32 -21.22 21.44 -23.32 22.56 C-24.65 23.26 -25.99 23.97 -27.32 24.68 C-27.95 25.01 -28.57 25.34 -29.21 25.69 C-32.03 27.15 -33.78 28 -37 28 C-36 25 -36 25 -34.21 23.96 C-33.48 23.64 -32.75 23.33 -32 23 C-30.53 22.21 -29.06 21.42 -27.59 20.62 C-26.77 20.17 -25.94 19.73 -25.09 19.27 C-23.36 18.34 -21.63 17.4 -19.91 16.46 C-19.08 16.01 -18.26 15.57 -17.41 15.12 C-16.66 14.71 -15.91 14.3 -15.13 13.89 C-13 13 -13 13 -9 13 C-9 12.34 -9 11.68 -9 11 C-7.68 11 -6.36 11 -5 11 C-4.71 10.36 -4.42 9.72 -4.12 9.06 C-3 7 -3 7 -1 6 C-0.38 2.94 -0.38 2.94 0 0 Z " fill="#381FA7" transform="translate(1026,505)"/>
<path d="M0 0 C4.03 0.56 6.58 1.79 9.91 4.1 C10.84 4.73 11.76 5.36 12.71 6.02 C13.19 6.35 13.19 6.35 15.62 8.06 C16.61 8.74 17.59 9.42 18.6 10.12 C25.14 14.65 31.63 19.23 38 24 C37.84 24.5 37.84 24.5 37 27 C36.13 26.37 35.26 25.74 34.36 25.09 C28.57 20.93 22.77 16.8 16.81 12.88 C11.09 9.09 5.39 5.25 0 1 C0 0.67 0 0.34 0 0 Z " fill="#7540D9" transform="translate(495,729)"/>
<path d="M0 0 C0.99 0 1.98 0 3 0 C2.48 9.28 -1.33 17.44 -8 24 C-10.6 25.96 -13.33 27.64 -16.12 29.31 C-16.84 29.75 -17.56 30.2 -18.29 30.65 C-21.2 32.43 -23.75 33.92 -27 35 C-26.67 34.01 -26.34 33.02 -26 32 C-23.94 31.31 -23.94 31.31 -22 31 C-22 30.34 -22 29.68 -22 29 C-21.01 29 -20.02 29 -19 29 C-19 28.34 -19 27.68 -19 27 C-16 25 -16 25 -13 25 C-13 24.34 -13 23.68 -13 23 C-12.01 23 -11.02 23 -10 23 C-10 22.01 -10 21.02 -10 20 C-9.38 19.77 -8.76 19.55 -8.12 19.31 C-5.37 17.61 -5.05 16 -4 13 C-3.34 12.34 -2.68 11.68 -2 11 C-1.37 8.4 -1.37 8.4 -0.88 5.38 C-0.71 4.37 -0.54 3.37 -0.37 2.34 C-0.25 1.57 -0.12 0.79 0 0 Z " fill="#492AB9" transform="translate(897,760)"/>
<path d="M0 0 C0.66 0.66 1.32 1.32 2 2 C-0.38 3.43 -2.77 4.86 -5.15 6.29 C-6.94 7.36 -8.72 8.44 -10.5 9.52 C-26.13 19 -26.13 19 -34 22 C-34.66 21.34 -35.32 20.68 -36 20 C-24 13.33 -12 6.67 0 0 Z " fill="#8753DC" transform="translate(504,343)"/>
<path d="M0 0 C6.72 4.06 13.03 8.45 19.2 13.28 C24.01 17.04 28.96 20.56 34 24 C33.67 24.66 33.34 25.32 33 26 C28.74 24.55 25.71 22.42 22.19 19.62 C21.05 18.73 19.92 17.84 18.78 16.95 C18.18 16.48 17.57 16.01 16.95 15.52 C13.4 12.76 9.79 10.07 6.19 7.38 C5.48 6.84 4.76 6.31 4.03 5.76 C2.35 4.51 0.68 3.25 -1 2 C-0.67 1.34 -0.34 0.68 0 0 Z " fill="#7B43DE" transform="translate(555,769)"/>
<path d="M0 0 C0.33 0 0.66 0 1 0 C0.86 2.65 0.71 5.29 0.56 7.94 C0.52 8.69 0.48 9.45 0.44 10.22 C0.11 15.89 0.11 15.89 -1 17 C-1.23 18.34 -1.39 19.69 -1.54 21.04 C-1.62 21.84 -1.71 22.65 -1.8 23.49 C-1.84 23.91 -1.84 23.91 -2.06 26.06 C-2.15 26.92 -2.24 27.77 -2.34 28.65 C-2.56 30.77 -2.78 32.88 -3 35 C-3.66 35 -4.32 35 -5 35 C-5.16 35.66 -5.16 35.66 -6 39 C-6.57 25.42 -4.79 12.77 0 0 Z " fill="#4529B4" transform="translate(948,739)"/>
<path d="M0 0 C0.33 0 0.66 0 1 0 C4.58 28.15 4.58 28.15 4 40 C3.01 40 2.02 40 1 40 C-0 26.66 -0.12 13.38 0 0 Z " fill="#946AE8" transform="translate(990,828)"/>
<path d="M0 0 C-4.37 3.25 -8.73 6.03 -13.53 8.59 C-17.31 10.75 -20.86 13.25 -24.42 15.74 C-27.47 17.23 -28.82 17.02 -32 16 C-26.86 11.97 -21.11 8.96 -15.44 5.75 C-14.28 5.08 -13.12 4.41 -11.96 3.74 C-10.85 3.12 -9.75 2.5 -8.62 1.86 C-7.61 1.29 -6.61 0.71 -5.57 0.12 C-3 -1 -3 -1 0 0 Z " fill="#4425B3" transform="translate(316,452)"/>
<path d="M0 0 C8.48 7.2 11.37 23.44 13 34 C13.25 37.43 13.22 40.57 13 44 C10.82 40.33 10.18 36.45 9.44 32.31 C8.13 25.13 8.13 25.13 7 24 C6.7 22.53 6.44 21.05 6.19 19.56 C5.29 14.83 3.81 10.64 1.9 6.23 C1.07 4.16 0.48 2.17 0 0 Z " fill="#482AB8" transform="translate(992,714)"/>
<path d="M0 0 C0 0.66 0 1.32 0 2 C-3.73 4.13 -7.46 6.25 -11.19 8.38 C-12.24 8.98 -13.3 9.58 -14.38 10.2 C-15.41 10.78 -16.43 11.36 -17.48 11.96 C-18.42 12.5 -19.36 13.03 -20.32 13.58 C-22.84 14.91 -25.34 16 -28 17 C-28.66 16.34 -29.32 15.68 -30 15 C-26.21 12.86 -22.42 10.72 -18.63 8.59 C-17.34 7.87 -16.05 7.14 -14.76 6.41 C-12.91 5.36 -11.06 4.32 -9.2 3.28 C-8.64 2.97 -8.64 2.97 -5.82 1.38 C-3 0 -3 0 0 0 Z " fill="#8E58E0" transform="translate(535,327)"/>
<path d="M0 0 C0.33 0 0.66 0 1 0 C1 11.55 1 23.1 1 35 C0.01 34.67 -0.98 34.34 -2 34 C-2.24 22.47 -1.74 11.4 0 0 Z " fill="#8D62E2" transform="translate(959,834)"/>
<path d="M0 0 C0.33 0 0.66 0 1 0 C1 16.83 1 33.66 1 51 C2.65 51 4.3 51 6 51 C6 51.99 6 52.98 6 54 C4.02 54 2.04 54 0 54 C-0.17 47.6 -0.33 41.19 -0.48 34.79 C-0.54 32.61 -0.59 30.43 -0.65 28.26 C-0.73 25.12 -0.81 21.98 -0.88 18.84 C-0.91 17.88 -0.93 16.91 -0.96 15.92 C-1.08 10.49 -0.82 5.37 0 0 Z " fill="#724BCC" transform="translate(960,816)"/>
<path d="M0 0 C4.09 0.6 7.06 1.94 10.64 3.98 C11.71 4.59 12.78 5.2 13.89 5.82 C15 6.46 16.11 7.09 17.25 7.75 C19.44 8.99 21.64 10.24 23.83 11.48 C24.87 12.08 25.92 12.68 26.99 13.29 C30.98 15.56 34.99 17.79 39 20 C38.34 20.99 37.68 21.98 37 23 C37 22.34 37 21.68 37 21 C34.31 19.89 31.67 18.9 28.88 18.06 C25.96 16.98 25.08 16.17 23 14 C21.01 12.98 19.01 11.99 17 11 C15.35 10.01 13.7 9.01 12.06 8 C8.13 5.61 4.28 3.67 0 2 C0 1.34 0 0.68 0 0 Z " fill="#9964E6" transform="translate(658,292)"/>
<path d="M0 0 C4.68 0.54 7.97 1.82 12.05 4.16 C13.16 4.79 14.27 5.42 15.41 6.06 C15.99 6.39 15.99 6.39 18.88 8.06 C20.05 8.73 21.23 9.4 22.41 10.07 C25.28 11.71 28.14 13.35 31 15 C30.67 15.99 30.34 16.98 30 18 C25.88 15.77 21.77 13.52 17.66 11.27 C16.27 10.51 14.87 9.75 13.47 8.99 C11.45 7.89 9.45 6.8 7.44 5.7 C6.81 5.36 6.18 5.02 5.53 4.67 C1.11 2.23 1.11 2.23 0 0 Z " fill="#7F4DD9" transform="translate(756,348)"/>
<path d="M0 0 C0.33 0 0.66 0 1 0 C1.33 5.94 1.66 11.88 2 18 C3.32 18.66 4.64 19.32 6 20 C5.01 20.33 4.02 20.66 3 21 C-3.98 23.99 -9.21 30.03 -12 37 C-12.66 35.68 -13.32 34.36 -14 33 C-12.9 31.73 -11.79 30.46 -10.69 29.19 C-10.07 28.48 -9.46 27.77 -8.82 27.04 C-5.55 23.38 -5.55 23.38 -4 22 C-3.34 22 -2.68 22 -2 22 C-2 20.35 -2 18.7 -2 17 C-1.67 17 -1.34 17 -1 17 C-0.67 11.39 -0.34 5.78 0 0 Z " fill="#6A3BCE" transform="translate(964,638)"/>
<path d="M0 0 C4.26 1.3 7.97 2.93 11.84 5.12 C12.38 5.42 12.38 5.42 15.12 6.96 C15.68 7.27 15.68 7.27 18.5 8.88 C19.62 9.5 20.73 10.13 21.88 10.77 C27.04 13.68 32.14 16.6 37 20 C34 21 34 21 31.77 19.89 C31.35 19.62 31.35 19.62 29.25 18.25 C25.25 15.73 21.4 13.72 17 12 C17 11.34 17 10.68 17 10 C16.74 9.95 16.74 9.95 15.44 9.69 C12.14 8.76 9.13 7.39 6 6 C6 5.34 6 4.68 6 4 C5.2 3.71 4.39 3.42 3.56 3.12 C1 2 1 2 0 0 Z " fill="#4A26B9" transform="translate(909,433)"/>
<path d="M0 0 C0 18.15 0 36.3 0 55 C-0.33 55 -0.66 55 -1 55 C-1.03 53.77 -1.05 52.55 -1.08 51.29 C-1.17 46.71 -1.27 42.13 -1.37 37.55 C-1.42 35.57 -1.46 33.6 -1.5 31.62 C-1.56 28.77 -1.62 25.92 -1.68 23.07 C-1.7 22.19 -1.72 21.32 -1.73 20.42 C-2.08 5.84 -2.08 5.84 -4 2 C-1 0 -1 0 0 0 Z " fill="#2815A7" transform="translate(988,534)"/>
<path d="M0 0 C1.32 0.33 2.64 0.66 4 1 C-3.52 6.57 -11.17 11.87 -19 17 C-19.99 16.34 -20.98 15.68 -22 15 C-20.88 14.16 -19.75 13.33 -18.62 12.5 C-18 12.04 -17.37 11.57 -16.73 11.09 C-15 10 -15 10 -13 10 C-13 9.34 -13 8.68 -13 8 C-11.68 8 -10.36 8 -9 8 C-8.67 7.01 -8.34 6.02 -8 5 C-5.67 4.33 -3.33 3.67 -1 3 C-0.67 2.01 -0.34 1.02 0 0 Z " fill="#4127B1" transform="translate(720,693)"/>
<path d="M0 0 C4.21 1.69 7.32 3.43 11 6 C9 7 9 7 2 5 C2 13.58 2 22.16 2 31 C1.34 31 0.68 31 0 31 C0 20.77 0 10.54 0 0 Z " fill="#572EBC" transform="translate(355,638)"/>
<path d="M0 0 C-2.75 1.63 -5.5 3.25 -8.25 4.88 C-9.03 5.34 -9.8 5.8 -10.61 6.27 C-11.36 6.71 -12.11 7.16 -12.89 7.62 C-13.24 7.82 -13.24 7.82 -14.99 8.85 C-20.52 12 -20.52 12 -24 12 C-24 11.34 -24 10.68 -24 10 C-21.52 8.27 -21.52 8.27 -18.25 6.38 C-17.18 5.74 -16.12 5.11 -15.02 4.46 C-12 3 -12 3 -8 3 C-8 2.34 -8 1.68 -8 1 C-4.86 -0.91 -3.48 -1.05 0 0 Z " fill="#3D26AC" transform="translate(948,557)"/>
<path d="M0 0 C1.32 0 2.64 0 4 0 C4 0.66 4 1.32 4 2 C4.99 2 5.98 2 7 2 C7.33 2.66 7.66 3.32 8 4 C9.39 4.82 10.81 5.58 12.25 6.31 C16.24 8.45 19.01 10.63 22 14 C21.67 14.16 21.67 14.16 20 15 C17.94 13.95 17.94 13.95 15.43 12.32 C14.53 11.74 13.64 11.16 12.71 10.56 C12.25 10.25 12.25 10.25 9.88 8.69 C8.93 8.08 7.99 7.47 7.01 6.85 C1.82 3.45 1.82 3.45 0 2 C0 1.34 0 0.68 0 0 Z " fill="#4129A9" transform="translate(594,733)"/>
<path d="M0 0 C5.6 1.58 10.35 4.26 15.38 7.12 C16.21 7.59 17.04 8.06 17.89 8.54 C19.93 9.69 21.97 10.84 24 12 C24 12.99 24 13.98 24 15 C23.34 15 22.68 15 22 15 C22 14.34 22 13.68 22 13 C21.43 12.83 20.86 12.66 20.28 12.48 C15.07 10.85 10.65 8.87 6 6 C6 5.34 6 4.68 6 4 C5.38 3.9 4.76 3.79 4.12 3.69 C2 3 2 3 0 0 Z " fill="#4323B3" transform="translate(948,455)"/>
<path d="M0 0 C0.33 0 0.66 0 1 0 C0.36 9.06 -0.73 18.01 -2 27 C-2.33 27 -2.66 27 -3 27 C-3.76 18.85 -4.22 11.11 -3 3 C-2.34 3.33 -1.68 3.66 -1 4 C-0.67 2.68 -0.34 1.36 0 0 Z " fill="#5C34C2" transform="translate(936,824)"/>
<path d="M0 0 C5.12 0.46 8.33 3.08 12.31 6.06 C12.96 6.53 13.6 7.01 14.27 7.49 C15.85 8.66 17.43 9.83 19 11 C18.67 11.99 18.34 12.98 18 14 C15.18 12.05 12.37 10.09 9.56 8.12 C8.76 7.57 7.96 7.01 7.13 6.44 C6.37 5.91 5.6 5.37 4.82 4.82 C4.11 4.33 3.4 3.84 2.67 3.33 C1 2 1 2 0 0 Z " fill="#7944DD" transform="translate(534,756)"/>
<path d="M0 0 C4.86 0.61 8.74 2.73 13 5 C13 5.66 13 6.32 13 7 C13.68 7.25 14.36 7.5 15.06 7.75 C18.57 9.24 21.72 11.07 25 13 C22 14 22 14 19.75 13.04 C18.89 12.55 18.03 12.05 17.15 11.54 C16.22 11.01 15.28 10.47 14.32 9.92 C13.35 9.35 12.38 8.78 11.38 8.19 C10.4 7.63 9.42 7.07 8.41 6.49 C1.14 2.28 1.14 2.28 0 0 Z " fill="#3D25AC" transform="translate(349,582)"/>
<path d="M0 0 C0.66 0.33 1.32 0.66 2 1 C-0.32 3.56 -2.16 4.88 -5.61 5.37 C-10.82 5.49 -14.81 5.47 -19 2 C-17 1 -17 1 -15.38 1.44 C-9.72 2.78 -5.23 2.31 0 0 Z " fill="#4827C5" transform="translate(639,957)"/>
<path d="M0 0 C0.66 0 1.32 0 2 0 C2.53 2.77 3.05 5.54 3.56 8.31 C3.64 8.71 3.64 8.71 4.02 10.69 C4.16 11.45 4.3 12.21 4.44 12.99 C4.57 13.68 4.7 14.38 4.84 15.1 C5 17 5 17 4 20 C-0.78 13.57 -0.42 7.81 0 0 Z " fill="#6A3FCC" transform="translate(947,678)"/>
<path d="M0 0 C1.67 0.67 3.33 1.33 5 2 C5.42 2.14 5.42 2.14 7.56 2.88 C10 4 10 4 11.73 5.8 C14.46 8.45 17.5 10.32 20.75 12.25 C21.35 12.61 21.95 12.98 22.57 13.35 C24.05 14.24 25.52 15.12 27 16 C26.01 16.33 25.02 16.66 24 17 C21.56 15.77 21.56 15.77 18.71 13.89 C17.69 13.22 16.66 12.54 15.61 11.85 C14.54 11.14 13.47 10.42 12.38 9.69 C11.3 8.98 10.22 8.28 9.12 7.56 C1.14 2.29 1.14 2.29 0 0 Z " fill="#5731C6" transform="translate(393,800)"/>
<path d="M0 0 C7.14 1.35 12.76 4.35 19 8 C19 8.99 19 9.98 19 11 C14.61 9.4 10.71 7.22 6.69 4.88 C6.04 4.5 5.4 4.13 4.73 3.75 C3.15 2.83 1.58 1.92 0 1 C0 0.67 0 0.34 0 0 Z " fill="#7949D3" transform="translate(788,366)"/>
<path d="M0 0 C-2.22 1.49 -4.45 2.98 -6.68 4.46 C-8.41 5.61 -10.12 6.8 -11.81 8 C-12.53 8.33 -13.26 8.66 -14 9 C-16.14 8.06 -16.14 8.06 -18 7 C-15.57 5.63 -13.13 4.28 -10.69 2.94 C-10 2.55 -9.31 2.16 -8.6 1.76 C-3.34 -1.11 -3.34 -1.11 0 0 Z " fill="#9660E3" transform="translate(551,319)"/>
<path d="M0 0 C2.64 1.32 2.64 1.32 16 8 C15.67 8.5 15.67 8.5 14 11 C9.38 8.36 4.76 5.72 0 3 C0 2.01 0 1.02 0 0 Z " fill="#9460E3" transform="translate(697,313)"/>
<path d="M0 0 C3.81 0.65 6.53 2.42 9.75 4.5 C10.73 5.13 11.72 5.76 12.73 6.41 C13.48 6.93 14.23 7.46 15 8 C15 8.33 15 8.66 15 9 C10.48 9.44 8.32 8.26 4.69 5.62 C4.25 5.31 4.25 5.31 2.01 3.73 C1.35 3.16 0.68 2.59 0 2 C0 1.34 0 0.68 0 0 Z " fill="#6F3DD5" transform="translate(471,712)"/>
<path d="M0 0 C0.66 0.66 1.32 1.32 2 2 C-6.26 9.67 -6.26 9.67 -11 11 C-11 10.01 -11 9.02 -11 8 C-8.59 5.96 -8.59 5.96 -5.5 3.81 C-4.99 3.45 -4.99 3.45 -2.41 1.64 C-1.61 1.1 -0.82 0.56 0 0 Z " fill="#6F3BD8" transform="translate(667,795)"/>
<path d="M0 0 C0 0.66 0 1.32 0 2 C-3.96 3.98 -7.92 5.96 -12 8 C-12.66 7.34 -13.32 6.68 -14 6 C-12.23 4.99 -10.46 3.99 -8.69 3 C-8.19 2.72 -8.19 2.72 -5.7 1.31 C-3 0 -3 0 0 0 Z " fill="#7D49D6" transform="translate(482,357)"/>
<path d="M0 0 C-3.96 2.97 -7.92 5.94 -12 9 C-12.66 8.67 -13.32 8.34 -14 8 C-11.35 4.02 -5.21 -2.61 0 0 Z " fill="#4B28C7" transform="translate(712,905)"/>
<path d="M0 0 C0.33 0 0.66 0 1 0 C0.89 2.42 0.76 4.83 0.62 7.25 C0.59 7.93 0.56 8.61 0.53 9.32 C0.32 12.99 -0.01 15.86 -2 19 C-2.05 16.96 -2.09 14.92 -2.12 12.88 C-2.15 11.74 -2.17 10.6 -2.2 9.43 C-2 5.94 -1.25 3.24 0 0 Z " fill="#3F21B4" transform="translate(939,793)"/>
<path d="M0 0 C0.99 0.66 1.98 1.32 3 2 C1.41 3.37 -0.2 4.72 -1.81 6.06 C-2.26 6.44 -2.26 6.44 -4.52 8.35 C-5.34 8.89 -6.16 9.44 -7 10 C-7.99 9.67 -8.98 9.34 -10 9 C-9 8 -8 7 -7 6 C-6.34 5.32 -5.68 4.64 -5 3.94 C-3 2 -3 2 0 0 Z " fill="#6A3AD8" transform="translate(723,755)"/>
<path d="M0 0 C6.16 1.67 11.48 4.88 17 8 C16.67 8.66 16.34 9.32 16 10 C15.46 9.71 14.93 9.42 14.38 9.12 C11.65 7.83 8.87 6.91 6 6 C6 5.34 6 4.68 6 4 C5.2 3.71 4.39 3.42 3.56 3.12 C1 2 1 2 0 0 Z " fill="#522CBF" transform="translate(909,433)"/>
<path d="M0 0 C3.96 1.98 7.92 3.96 12 6 C12 6.99 12 7.98 12 9 C7.69 7.43 3.94 5.32 0 3 C0 2.01 0 1.02 0 0 Z " fill="#8E5AE0" transform="translate(713,322)"/>
<path d="M0 0 C2.37 3.55 2.11 4.58 1.62 8.69 C1.51 9.68 1.4 10.68 1.29 11.7 C1.19 12.46 1.1 13.22 1 14 C0.34 13.67 -0.32 13.34 -1 13 C-1.03 11.21 -1.05 9.42 -1.06 7.62 C-1.07 6.63 -1.09 5.63 -1.1 4.6 C-1 2 -1 2 0 0 Z " fill="#4222B5" transform="translate(941,779)"/>
<path d="M0 0 C1.61 0.76 3.21 1.54 4.81 2.31 C5.71 2.74 6.6 3.17 7.52 3.61 C9.79 4.88 11.29 6.07 13 8 C12.01 8.33 11.02 8.66 10 9 C7.52 7.64 7.52 7.64 4.81 5.69 C3.91 5.05 3.01 4.42 2.08 3.76 C1.39 3.18 0.71 2.6 0 2 C0 1.34 0 0.68 0 0 Z " fill="#4F28BE" transform="translate(377,651)"/>
<path d="M0 0 C5.05 1.29 7.45 3.26 11 7 C11.99 7.33 12.98 7.66 14 8 C14 8.66 14 9.32 14 10 C10.07 9.41 7.78 7.48 4.75 5 C3.86 4.28 2.97 3.56 2.05 2.81 C1.37 2.21 0.7 1.62 0 1 C0 0.67 0 0.34 0 0 Z " fill="#4A27C7" transform="translate(599,942)"/>
<path d="M0 0 C1.32 0.33 2.64 0.66 4 1 C2.42 2.32 0.84 3.63 -0.75 4.94 C-1.63 5.67 -2.51 6.4 -3.42 7.15 C-5.76 8.83 -7.2 9.59 -10 10 C-8.89 6.78 -8.11 6.06 -5 4.44 C-4.01 3.96 -3.02 3.49 -2 3 C-1.34 2.01 -0.68 1.02 0 0 Z " fill="#4926C8" transform="translate(693,915)"/>
<path d="M0 0 C5.03 0.46 8.15 2.99 12 6 C11.67 6.66 11.34 7.32 11 8 C6.4 6.51 3.53 4.2 0 1 C0 0.67 0 0.34 0 0 Z " fill="#7D48DF" transform="translate(577,787)"/>
<path d="M0 0 C0.33 0 0.66 0 1 0 C1 3.3 1 6.6 1 10 C2.65 10 4.3 10 6 10 C6 10.99 6 11.98 6 13 C4.02 13 2.04 13 0 13 C0 8.71 0 4.42 0 0 Z " fill="#633DC7" transform="translate(960,857)"/>
<path d="M0 0 C0.66 0.33 1.32 0.66 2 1 C0.43 2.2 -1.16 3.39 -2.75 4.56 C-3.63 5.22 -4.51 5.89 -5.42 6.57 C-8 8 -8 8 -10.33 7.71 C-10.6 7.6 -10.6 7.6 -12 7 C-10.05 5.8 -8.09 4.62 -6.12 3.44 C-5.03 2.78 -3.94 2.11 -2.82 1.43 C-1.89 0.96 -0.96 0.49 0 0 Z " fill="#4925B9" transform="translate(336,438)"/>
<path d="M0 0 C0.99 0.33 1.98 0.66 3 1 C-0.2 3.65 -3.39 5.94 -7 8 C-7.33 7.01 -7.66 6.02 -8 5 C-6.35 4.67 -4.7 4.34 -3 4 C-2.67 3.01 -2.34 2.02 -2 1 C-1.34 0.67 -0.68 0.34 0 0 Z " fill="#472AB6" transform="translate(777,656)"/>
<path d="M0 0 C5.48 1.55 10.11 4.16 15 7 C14.34 7.66 13.68 8.32 13 9 C12.17 8.67 12.17 8.67 8 7 C8 6.34 8 5.68 8 5 C7.62 4.87 7.62 4.87 5.69 4.19 C3.13 3.06 1.8 2.09 0 0 Z " fill="#542BC2" transform="translate(893,424)"/>
<path d="M0 0 C4.05 1.23 7.44 2.7 11 5 C10.67 5.99 10.34 6.98 10 8 C8.51 7.24 7.04 6.47 5.56 5.69 C4.74 5.26 3.92 4.83 3.07 4.39 C1 3 1 3 0 0 Z " fill="#7745D4" transform="translate(776,358)"/>
<path d="M0 0 C0 0.33 0 0.66 0 1 C-0.64 1.04 -1.28 1.07 -1.94 1.11 C-7.6 1.54 -11.92 2.46 -17 5 C-17.66 4.34 -18.32 3.68 -19 3 C-12.47 0.04 -7.13 -0.35 0 0 Z " fill="#B184EC" transform="translate(633,277)"/>
<path d="M0 0 C0.33 0 0.66 0 1 0 C0.67 3.96 0.34 7.92 0 12 C-0.99 11.67 -1.98 11.34 -3 11 C-3 8.36 -3 5.72 -3 3 C-2.67 3.16 -2.67 3.16 -1 4 C-0.67 2.68 -0.34 1.36 0 0 Z " fill="#643FC4" transform="translate(936,824)"/>
<path d="M0 0 C0.99 0.66 1.98 1.32 3 2 C0.36 3.98 -2.28 5.96 -5 8 C-5.66 7.67 -6.32 7.34 -7 7 C-7 6.34 -7 5.68 -7 5 C-5.47 3.71 -5.47 3.71 -3.5 2.38 C-2.85 1.93 -2.2 1.48 -1.53 1.02 C-1.03 0.69 -0.52 0.35 0 0 Z " fill="#703EDA" transform="translate(692,777)"/>
<path d="M0 0 C4.81 -0.57 7.2 1.17 11 4 C10.01 4.66 9.02 5.32 8 6 C6.66 5.19 5.33 4.38 4 3.56 C3.26 3.11 2.51 2.66 1.75 2.19 C1.17 1.8 0.6 1.41 0 1 C0 0.67 0 0.34 0 0 Z " fill="#7545D5" transform="translate(484,722)"/>
<path d="M0 0 C0.66 0 1.32 0 2 0 C2 0.66 2 1.32 2 2 C2.99 2 3.98 2 5 2 C5.33 2.66 5.66 3.32 6 4 C8.31 5.05 10.64 6.06 13 7 C10.49 7.92 9.4 8.17 6.89 7.11 C6.21 6.66 5.52 6.21 4.81 5.75 C4.12 5.31 3.42 4.87 2.71 4.42 C1 3 1 3 0 0 Z " fill="#472AB1" transform="translate(495,668)"/>
<path d="M0 0 C0.82 0.33 0.82 0.33 5 2 C5 2.66 5 3.32 5 4 C5.4 4.06 5.4 4.06 7.44 4.38 C7.86 4.48 7.86 4.48 10 5 C10.33 5.66 10.66 6.32 11 7 C8 8 8 8 6.21 7.11 C5.61 6.66 5 6.21 4.38 5.75 C3.76 5.31 3.15 4.87 2.52 4.42 C1 3 1 3 0 0 Z " fill="#482AB1" transform="translate(471,653)"/>
<path d="M0 0 C-2.37 2.62 -4.86 4.39 -8 6 C-10 5 -10 5 -11 3 C-7.14 0.85 -4.45 -0.39 0 0 Z " fill="#472BB3" transform="translate(279,473)"/>
<path d="M0 0 C4.44 3.52 5.52 7.75 7 13 C3.62 9.89 1.29 7.46 0 3 C0 2.01 0 1.02 0 0 Z " fill="#4620BD" transform="translate(356,767)"/>
<path d="M0 0 C0.66 0 1.32 0 2 0 C1.51 6.4 1.51 6.4 -1.06 9.44 C-1.38 9.7 -1.38 9.7 -3 11 C-3.66 10.34 -4.32 9.68 -5 9 C-4.68 8.81 -4.68 8.81 -3.06 7.88 C-0.36 5.42 -0.32 3.55 0 0 Z " fill="#3C24AB" transform="translate(1026,505)"/>
<path d="M0 0 C3.38 1.19 5.65 2.28 8 5 C7.34 5.66 6.68 6.32 6 7 C3 5.19 3 5.19 0 3 C0 2.01 0 1.02 0 0 Z " fill="#6C3FD2" transform="translate(448,696)"/>
<path d="M0 0 C0.66 0.33 1.32 0.66 2 1 C-0.33 4.5 -2.2 5.34 -6 7 C-6.66 7 -7.32 7 -8 7 C-8 6.34 -8 5.68 -8 5 C-6.32 3.68 -6.32 3.68 -4.12 2.31 C-3.41 1.85 -2.69 1.4 -1.95 0.93 C-1.3 0.62 -0.66 0.31 0 0 Z " fill="#5D31CC" transform="translate(765,726)"/>
<path d="M0 0 C4.43 1.21 6.98 2.52 10 6 C6.7 5.34 3.4 4.68 0 4 C0 2.68 0 1.36 0 0 Z " fill="#4723B5" transform="translate(356,639)"/>
<path d="M0 0 C3.11 1.5 6.05 3.2 9 5 C6 6 6 6 3.96 5.22 C3.25 4.84 2.54 4.46 1.81 4.06 C1.1 3.68 0.38 3.3 -0.36 2.91 C-0.9 2.61 -1.44 2.31 -2 2 C-1.34 1.34 -0.68 0.68 0 0 Z " fill="#3F28AE" transform="translate(332,571)"/>
<path d="M0 0 C-2.31 1.65 -4.62 3.3 -7 5 C-7.66 4.67 -8.32 4.34 -9 4 C-9 3.34 -9 2.68 -9 2 C-3.38 -1.12 -3.38 -1.12 0 0 Z " fill="#4E2BBC" transform="translate(316,452)"/>
<path d="M0 0 C0 0.99 0 1.98 0 3 C-3 5.19 -3 5.19 -6 7 C-7.32 6.34 -8.64 5.68 -10 5 C-6.7 3.35 -3.4 1.7 0 0 Z " fill="#E0D7F8" transform="translate(1018,859)"/>
<path d="M0 0 C3.06 1.74 5.63 3.38 8 6 C4 6 4 6 1.25 3.5 C0.51 2.67 -0.24 1.85 -1 1 C-0.67 0.67 -0.34 0.34 0 0 Z " fill="#7B4CDE" transform="translate(605,806)"/>
<path d="M0 0 C0.66 0.99 1.32 1.98 2 3 C2.66 3.33 3.32 3.66 4 4 C1.36 5.98 -1.28 7.96 -4 10 C-3.67 8.68 -3.34 7.36 -3 6 C-2.01 5.67 -1.02 5.34 0 5 C0 3.35 0 1.7 0 0 Z " fill="#7646D3" transform="translate(962,655)"/>
<path d="M0 0 C2.25 0.25 2.25 0.25 4 1 C1.69 3.06 1.69 3.06 -1 5 C-1.99 4.67 -2.98 4.34 -4 4 C-2.25 1.94 -2.25 1.94 0 0 Z " fill="#4E2BC7" transform="translate(806,835)"/>
<path d="M0 0 C4 0 4 0 5.56 1.31 C6.04 1.87 6.51 2.43 7 3 C7.56 3.56 8.11 4.11 8.69 4.69 C8.9 4.9 8.9 4.9 10 6 C5.17 5.59 3.17 3.54 0 0 Z " fill="#512DC0" transform="translate(377,790)"/>
<path d="M0 0 C6.65 1.48 6.65 1.48 8.44 4.12 C8.53 4.43 8.53 4.43 9 6 C5.06 4.69 2.77 3.08 0 0 Z " fill="#3A1FAC" transform="translate(533,693)"/>
<path d="M0 0 C0.59 0.2 1.19 0.4 1.8 0.61 C0.51 1.45 -0.78 2.28 -2.08 3.11 C-2.8 3.58 -3.52 4.04 -4.26 4.52 C-6.2 5.61 -6.2 5.61 -8.2 5.61 C-8.2 4.95 -8.2 4.29 -8.2 3.61 C-3 -0.53 -3 -0.53 0 0 Z " fill="#371CAD" transform="translate(822.203125,629.38671875)"/>
<path d="M0 0 C-1.29 0.84 -2.58 1.67 -3.88 2.5 C-4.59 2.96 -5.31 3.43 -6.05 3.91 C-8 5 -8 5 -10 5 C-10 4.34 -10 3.68 -10 3 C-3.38 -1.12 -3.38 -1.12 0 0 Z " fill="#391FAC" transform="translate(850,614)"/>
<path d="M0 0 C0.66 0.33 1.32 0.66 2 1 C2 4.3 2 7.6 2 11 C0.19 7.39 -0.56 4.95 -1 1 C-0.67 0.67 -0.34 0.34 0 0 Z " fill="#4227B4" transform="translate(1003,747)"/>
<path d="M0 0 C4.75 1.88 4.75 1.88 7 3 C6.67 3.99 6.34 4.98 6 6 C4.02 5.01 2.04 4.02 0 3 C0 2.01 0 1.02 0 0 Z " fill="#4D30B3" transform="translate(541,697)"/>
<path d="M0 0 C0 4.62 0 9.24 0 14 C-0.33 14 -0.66 14 -1 14 C-1.02 13.61 -1.02 13.61 -1.15 11.66 C-1.22 10.66 -1.3 9.66 -1.38 8.62 C-1.44 7.63 -1.51 6.63 -1.59 5.6 C-2 3 -2 3 -4 1 C-2 0 -2 0 0 0 Z " fill="#EEE7F9" transform="translate(960,551)"/>
<path d="M0 0 C2.62 0.38 2.62 0.38 5 1 C2.61 2.89 0.93 4.02 -2 5 C-2 2 -2 2 0 0 Z " fill="#4D33B8" transform="translate(950,552)"/>
<path d="M0 0 C0.66 0.66 1.32 1.32 2 2 C0.02 3.32 -1.96 4.64 -4 6 C-4.66 5.67 -5.32 5.34 -6 5 C-6 4.34 -6 3.68 -6 3 C-4.02 2.01 -2.04 1.02 0 0 Z " fill="#7F4FD4" transform="translate(456,370)"/>
<path d="M0 0 C0 0.66 0 1.32 0 2 C-1.96 3.39 -3.96 4.73 -6 6 C-6.66 5.67 -7.32 5.34 -8 5 C-5.73 1.64 -4.3 0 0 0 Z " fill="#4425C2" transform="translate(650,950)"/>
<path d="M0 0 C1.32 0.33 2.64 0.66 4 1 C2.88 1.84 1.75 2.67 0.62 3.5 C0.31 3.73 0.31 3.73 -1.27 4.91 C-3 6 -3 6 -5 6 C-5 5.34 -5 4.68 -5 4 C-4.36 3.71 -3.72 3.42 -3.06 3.12 C-1 2 -1 2 0 0 Z " fill="#3C1EB8" transform="translate(838,813)"/>
<path d="M0 0 C4.55 -0.37 4.55 -0.37 6.81 1.5 C7.2 2 7.6 2.49 8 3 C7.34 3.66 6.68 4.32 6 5 C3.98 3.7 1.98 2.36 0 1 C0 0.67 0 0.34 0 0 Z " fill="#6E3CD2" transform="translate(457,704)"/>
<path d="M0 0 C1.07 3.2 0.95 4.89 0.56 8.19 C0.46 9.09 0.36 9.99 0.25 10.92 C0.21 11.26 0.21 11.26 0 13 C-0.33 13 -0.66 13 -1 13 C-1.06 12.37 -1.12 11.75 -1.18 11.1 C-1.27 10.28 -1.35 9.47 -1.44 8.62 C-1.52 7.81 -1.6 7 -1.68 6.16 C-2 4 -2 4 -3 2 C-2.01 1.34 -1.02 0.68 0 0 Z " fill="#2F1599" transform="translate(987,534)"/>
<path d="M0 0 C0.95 0.35 1.9 0.7 2.88 1.06 C2.54 2.05 2.22 3.04 1.88 4.06 C-1.04 2.99 -2.9 2.28 -5.12 0.06 C-3.12 -0.94 -3.12 -0.94 0 0 Z " fill="#462EAE" transform="translate(242.125,519.9375)"/>
<path d="M0 0 C0.66 0.33 1.32 0.66 2 1 C-0.25 3.06 -0.25 3.06 -3 5 C-5.31 4.75 -5.31 4.75 -7 4 C-1.73 0.78 -1.73 0.78 0 0 Z " fill="#5A2EC2" transform="translate(373,417)"/>
<path d="M0 0 C5.75 1.75 5.75 1.75 8 4 C5 5 5 5 1.81 3.56 C0.88 3.05 -0.04 2.53 -1 2 C-0.67 1.34 -0.34 0.68 0 0 Z " fill="#7146CD" transform="translate(824,385)"/>
<path d="M0 0 C4.31 0.48 6.17 1.75 9 5 C4.99 5 3.18 3.33 0 1 C0 0.67 0 0.34 0 0 Z " fill="#EDE7FB" transform="translate(508,879)"/>
<path d="M0 0 C2.97 0.99 5.94 1.98 9 3 C5.52 4.16 3.54 3.71 0 3 C0 2.01 0 1.02 0 0 Z " fill="#6842C8" transform="translate(934,859)"/>
<path d="M0 0 C2.04 1.27 4.04 2.61 6 4 C6 4.66 6 5.32 6 6 C2.35 4.75 1.22 4.33 -1 1 C-0.67 0.67 -0.34 0.34 0 0 Z " fill="#733EDE" transform="translate(617,815)"/>
<path d="M0 0 C0.66 0.33 1.32 0.66 2 1 C1.01 1 0.02 1 -1 1 C-0.67 0.67 -0.34 0.34 0 0 Z M-3 0 C-2.34 0.99 -1.68 1.98 -1 3 C-2.88 3.62 -2.88 3.62 -5 4 C-5.66 3.34 -6.32 2.68 -7 2 C-5.68 1.34 -4.36 0.68 -3 0 Z " fill="#5030B7" transform="translate(291,465)"/>
</svg>
