<svg xmlns="http://www.w3.org/2000/svg" version="1.1" xmlns:xlink="http://www.w3.org/1999/xlink" width="1000" height="1000"><g clip-path="url(#SvgjsClipPath1481)"><rect width="1000" height="1000" fill="#ffffff"></rect><g transform="matrix(3.0395136778115504,0,0,3.0395136778115504,44.072948328267444,-5.684341886080802e-14)"><svg xmlns="http://www.w3.org/2000/svg" width="300" height="329" viewBox="0 0 300 329" fill="none"><path d="M131.135 161.426C141.643 155.38 158.71 155.43 169.254 161.538L234.99 199.616C245.534 205.724 245.563 215.576 235.055 221.622L169.541 259.314C159.033 265.36 141.967 265.31 131.423 259.202L65.6863 221.124C55.1423 215.016 55.1133 205.164 65.6216 199.118L131.135 161.426Z" fill="#A6A9FF"></path><path d="M131.013 119.929C141.522 113.883 158.588 113.933 169.132 120.041L234.868 158.119C245.413 164.227 245.442 174.079 234.933 180.125L169.42 217.817C158.911 223.863 141.845 223.813 131.301 217.705L65.5647 179.627C55.0206 173.519 54.9916 163.667 65.4999 157.621L131.013 119.929Z" fill="#6468F0"></path><path d="M131.034 76.2067C141.543 70.1609 158.609 70.2111 169.153 76.3189L234.889 114.397C245.434 120.505 245.463 130.357 234.954 136.403L169.441 174.095C158.932 180.141 141.866 180.091 131.322 173.983L65.5857 135.905C55.0416 129.797 55.0126 119.945 65.5209 113.899L131.034 76.2067Z" fill="#2B30D5"></path></svg></g></g><defs><clipPath id="SvgjsClipPath1481"><rect width="1000" height="1000" x="0" y="0" rx="250" ry="250"></rect></clipPath></defs></svg>