<?xml version="1.0" encoding="UTF-8"?>
<!-- Generator: visioncortex VTracer 0.6.5 -->
<svg version="1.1" xmlns="http://www.w3.org/2000/svg" width="1254" height="1254">
<path d="M0 0 C413.82 0 827.64 0 1254 0 C1254 413.82 1254 827.64 1254 1254 C840.18 1254 426.36 1254 0 1254 C0 840.18 0 426.36 0 0 Z " fill="#F6EFFD" transform="translate(0,0)"/>
<path d="M0 0 C413.82 0 827.64 0 1254 0 C1254 413.82 1254 827.64 1254 1254 C840.18 1254 426.36 1254 0 1254 C0 840.18 0 426.36 0 0 Z M271.44 81.25 C270.92 81.36 270.92 81.36 268.28 81.91 C211.21 94.12 159.33 127.77 126 176 C125.53 176.66 125.07 177.33 124.59 178.01 C98.89 214.99 82.79 260.17 82.87 305.44 C82.87 306.56 82.86 307.67 82.86 308.82 C82.86 312.56 82.86 316.29 82.86 320.03 C82.86 322.73 82.85 325.44 82.85 328.15 C82.84 334.8 82.84 341.46 82.84 348.12 C82.84 356.09 82.83 364.07 82.83 372.04 C82.81 391.32 82.8 410.59 82.8 429.87 C82.8 438.99 82.79 448.12 82.79 457.24 C82.78 488.5 82.77 519.75 82.76 551.01 C82.76 552.97 82.76 554.93 82.76 556.89 C82.76 558.86 82.76 560.82 82.76 562.79 C82.76 566.73 82.76 570.68 82.76 574.62 C82.76 575.6 82.76 576.57 82.76 577.58 C82.76 609.27 82.74 640.96 82.72 672.64 C82.69 706.17 82.68 739.69 82.68 773.22 C82.68 776.9 82.68 780.59 82.68 784.27 C82.68 785.18 82.68 786.09 82.68 787.02 C82.68 801.59 82.66 816.15 82.65 830.72 C82.64 845.37 82.63 860.03 82.64 874.68 C82.64 883.38 82.64 892.07 82.62 900.76 C82.61 906.59 82.62 912.41 82.63 918.24 C82.63 921.54 82.63 924.85 82.62 928.16 C82.56 948.27 83.76 968.06 88.75 987.62 C88.88 988.14 88.88 988.14 89.53 990.75 C98.59 1026.2 114.75 1057.17 137 1086 C137.42 1086.55 137.85 1087.11 138.28 1087.68 C143.09 1093.96 143.09 1093.96 145 1096 C145.66 1096 146.32 1096 147 1096 C147.23 1096.56 147.47 1097.12 147.71 1097.7 C149.31 1100.56 151.29 1102.51 153.62 1104.81 C154.03 1105.22 154.03 1105.22 156.1 1107.27 C186.34 1135.75 223.08 1156.33 263.44 1166.31 C264.35 1166.54 265.27 1166.77 266.21 1167.01 C286.15 1171.66 306.14 1172.44 326.53 1172.39 C329.24 1172.39 331.95 1172.4 334.66 1172.4 C340.51 1172.42 346.36 1172.42 352.21 1172.41 C360.92 1172.4 369.62 1172.41 378.32 1172.42 C393.87 1172.44 409.43 1172.44 424.98 1172.44 C438.59 1172.43 452.2 1172.43 465.81 1172.44 C467.65 1172.44 469.48 1172.44 471.31 1172.44 C474.07 1172.44 476.83 1172.44 479.58 1172.45 C505.22 1172.46 530.85 1172.46 556.48 1172.45 C557.44 1172.45 558.41 1172.45 559.4 1172.45 C567.23 1172.45 575.07 1172.45 582.9 1172.45 C613.44 1172.43 643.98 1172.44 674.53 1172.47 C708.9 1172.49 743.27 1172.51 777.64 1172.5 C781.31 1172.5 784.98 1172.5 788.65 1172.5 C789.55 1172.5 790.46 1172.5 791.39 1172.5 C804.98 1172.49 818.58 1172.5 832.17 1172.51 C847.65 1172.53 863.12 1172.53 878.6 1172.51 C887.24 1172.5 895.88 1172.5 904.52 1172.52 C910.32 1172.53 916.11 1172.53 921.9 1172.51 C925.19 1172.5 928.48 1172.5 931.76 1172.52 C956.93 1172.61 980.96 1169.56 1005 1162 C1005.74 1161.77 1006.48 1161.54 1007.24 1161.31 C1054.2 1146.47 1096.78 1115.39 1125 1075 C1125.23 1074.68 1125.23 1074.68 1126.36 1073.07 C1154.33 1033.22 1171.22 985.33 1171.13 936.44 C1171.13 935.34 1171.14 934.24 1171.14 933.1 C1171.14 929.42 1171.14 925.74 1171.14 922.06 C1171.14 919.38 1171.15 916.71 1171.15 914.04 C1171.16 907.47 1171.16 900.91 1171.16 894.34 C1171.16 886.47 1171.17 878.6 1171.17 870.73 C1171.19 851.71 1171.2 832.7 1171.2 813.68 C1171.2 804.68 1171.21 795.67 1171.21 786.67 C1171.22 755.82 1171.23 724.96 1171.24 694.11 C1171.24 692.18 1171.24 690.24 1171.24 688.31 C1171.24 686.37 1171.24 684.43 1171.24 682.49 C1171.24 678.6 1171.24 674.7 1171.24 670.81 C1171.24 670.33 1171.24 670.33 1171.24 667.89 C1171.24 636.62 1171.26 605.36 1171.28 574.1 C1171.31 541.01 1171.32 507.92 1171.32 474.83 C1171.32 471.19 1171.32 467.56 1171.32 463.92 C1171.32 463.02 1171.32 462.13 1171.32 461.2 C1171.32 446.83 1171.34 432.47 1171.35 418.1 C1171.36 403.63 1171.37 389.17 1171.36 374.71 C1171.36 366.13 1171.36 357.56 1171.38 348.98 C1171.39 343.23 1171.38 337.48 1171.37 331.74 C1171.37 328.47 1171.37 325.21 1171.38 321.95 C1171.55 267.46 1157.78 214.62 1124 171 C1123.36 170.16 1122.71 169.33 1122.05 168.46 C1117.29 162.4 1112.2 156.69 1107 151 C1106.17 150.07 1105.34 149.13 1104.49 148.17 C1099.6 142.7 1094.69 137.64 1089 133 C1088.48 132.57 1087.97 132.14 1087.43 131.7 C1051.73 102.09 1008.37 82.67 962 78 C961.24 77.92 960.47 77.83 959.68 77.75 C947.53 76.61 935.32 76.86 923.13 76.87 C920.48 76.86 917.82 76.86 915.17 76.86 C909.42 76.85 903.66 76.85 897.9 76.85 C889.34 76.86 880.78 76.85 872.22 76.85 C856.04 76.84 839.86 76.83 823.68 76.83 C811.18 76.83 798.68 76.83 786.18 76.83 C782.58 76.83 778.98 76.83 775.37 76.82 C774.48 76.82 773.58 76.82 772.66 76.82 C747.48 76.82 722.3 76.81 697.12 76.81 C696.17 76.81 695.22 76.81 694.24 76.81 C689.43 76.81 684.63 76.81 679.82 76.81 C678.86 76.81 677.91 76.81 676.92 76.81 C674.99 76.81 673.06 76.81 671.13 76.81 C641.09 76.82 611.05 76.81 581.02 76.79 C547.25 76.78 513.48 76.77 479.7 76.77 C476.1 76.77 472.5 76.77 468.89 76.77 C468 76.77 467.12 76.77 466.2 76.77 C451.95 76.77 437.7 76.76 423.45 76.76 C409.11 76.75 394.77 76.75 380.44 76.75 C371.93 76.76 363.43 76.76 354.92 76.75 C349.23 76.74 343.53 76.74 337.83 76.75 C334.6 76.75 331.36 76.75 328.13 76.74 C309.06 76.71 290.16 77.29 271.44 81.25 Z " fill="#FEFDFD" transform="translate(0,0)"/>
<path d="M0 0 C1.07 -0.03 2.13 -0.05 3.23 -0.08 C11.75 0.7 19.27 4.77 26.81 8.57 C27.35 8.84 27.35 8.84 30.04 10.18 C32.93 11.63 35.82 13.08 38.72 14.53 C41.77 16.07 44.83 17.59 47.88 19.12 C53.02 21.7 58.16 24.27 63.3 26.85 C69.83 30.13 76.37 33.41 82.91 36.68 C88.59 39.52 94.27 42.37 99.96 45.22 C101.75 46.12 103.54 47.01 105.34 47.91 C117.95 54.23 130.53 60.61 142.99 67.23 C147.88 69.83 152.84 72.3 157.81 74.75 C166.23 78.93 174.57 83.23 182.87 87.64 C189.44 91.12 196.04 94.54 202.63 97.96 C207.2 100.34 211.75 102.75 216.26 105.23 C222 108.37 227.81 111.38 233.62 114.38 C241.7 118.55 249.72 122.8 257.69 127.19 C265.83 131.67 274.05 135.99 282.31 140.25 C291.48 144.97 300.57 149.81 309.61 154.78 C316.46 158.54 323.37 162.16 330.31 165.75 C338.58 170.03 346.82 174.36 355 178.81 C355.9 179.3 356.8 179.79 357.73 180.29 C371.87 188.02 371.87 188.02 374.81 194.25 C375.28 200.64 373.93 203.1 369.81 208.25 C359.91 213.53 350.01 218.81 339.81 224.25 C339.48 262.2 339.15 300.15 338.81 339.25 C340.46 339.91 342.11 340.57 343.81 341.25 C349.49 346.29 353.34 351.87 354.16 359.45 C354.54 368.56 353.03 375.11 347.21 382.2 C345.62 383.88 345.62 383.88 342.81 386.25 C342.15 386.25 341.49 386.25 340.81 386.25 C340.99 386.51 340.99 386.51 341.91 387.84 C348.36 397.77 352.56 409.37 354.32 421.07 C355.01 425.53 355.89 429.95 356.75 434.38 C359.63 449.46 362.24 464.53 364.33 479.75 C364.69 482.39 365.06 485.03 365.43 487.67 C366.01 491.8 366.58 495.93 367.15 500.05 C367.38 501.71 367.61 503.37 367.85 505.03 C368.18 507.39 368.5 509.75 368.82 512.11 C368.92 512.81 369.02 513.52 369.13 514.24 C370.81 526.75 370.81 526.75 368.55 530.15 C366.74 531.29 365.09 532.11 363.08 532.82 C362.36 533.08 361.64 533.33 360.9 533.6 C360.15 533.85 359.4 534.11 358.62 534.38 C358.26 534.51 358.26 534.51 356.41 535.18 C351.52 536.88 346.96 537.69 341.81 538.25 C341.48 538.58 341.15 538.91 340.81 539.25 C338.68 539.35 336.54 539.38 334.41 539.38 C333.11 539.38 331.8 539.39 330.46 539.39 C330.12 539.39 330.12 539.39 328.4 539.38 C326.32 539.38 324.24 539.38 322.16 539.39 C321.51 539.39 321.51 539.39 318.22 539.38 C317.02 539.38 315.81 539.38 314.57 539.38 C311.81 539.25 311.81 539.25 310.81 538.25 C310.22 538.22 310.22 538.22 307.25 538.06 C302.34 537.59 298.02 536.05 293.44 534.31 C292.74 534.05 292.03 533.78 291.31 533.51 C288.23 532.31 285.58 531.09 282.81 529.25 C279.92 513.08 285.73 493.39 288.33 477.44 C289.39 470.97 290.36 464.49 291.25 458 C296.28 422.3 296.28 422.3 300.81 407 C300.92 406.62 300.92 406.62 301.49 404.68 C303.04 399.8 305.17 395.58 307.82 391.2 C308.81 389.25 308.81 389.25 308.81 386.25 C308.09 385.53 307.37 384.81 306.62 384.06 C300.64 378.08 297.68 372.17 297.44 363.69 C297.52 356.75 298.63 351.83 302.81 346.25 C304.35 345.28 305.89 344.32 307.44 343.36 C311.71 339.62 312.44 336.51 312.83 331.07 C313 325.98 312.97 320.9 312.91 315.81 C312.92 313.6 312.93 311.4 312.94 309.19 C312.96 303.39 312.93 297.6 312.89 291.81 C312.86 285.89 312.88 279.97 312.9 274.05 C312.92 262.45 312.88 250.85 312.81 239.25 C310.58 240.36 308.36 241.46 306.13 242.57 C305.5 242.88 304.88 243.19 304.24 243.51 C299.05 246.1 294.01 248.89 289 251.81 C287.2 252.85 285.39 253.89 283.59 254.93 C282.66 255.47 281.72 256.01 280.76 256.57 C275.55 259.54 270.3 262.45 265.06 265.38 C256.1 270.38 247.21 275.49 238.39 280.73 C235.21 282.6 232.03 284.47 228.85 286.33 C228.23 286.69 227.61 287.05 226.97 287.43 C226.34 287.8 225.71 288.17 225.06 288.55 C214.64 294.64 204.22 300.75 193.89 307 C191.35 308.53 188.82 310.04 186.28 311.56 C150.39 333.01 114.93 355.15 79.87 377.92 C77.75 379.29 75.63 380.66 73.51 382.02 C62.11 389.37 50.81 396.84 39.6 404.48 C39.05 404.86 38.5 405.23 37.93 405.62 C35.16 407.5 32.4 409.39 29.64 411.27 C8.88 425.44 8.88 425.44 -4.19 424.25 C-14.88 421.01 -24.45 412.76 -33.56 406.5 C-70.88 381.01 -109.14 356.89 -147.82 333.5 C-152 330.97 -156.17 328.43 -160.34 325.89 C-180.71 313.47 -201.3 301.47 -221.97 289.57 C-227.22 286.55 -232.46 283.51 -237.67 280.41 C-248.31 274.09 -259.15 268.12 -269.98 262.14 C-274.89 259.42 -279.78 256.67 -284.67 253.92 C-295.24 247.97 -305.88 242.16 -316.58 236.44 C-324.78 232.04 -332.88 227.5 -340.95 222.88 C-345.5 220.29 -350.05 217.77 -354.7 215.39 C-355.58 214.94 -356.45 214.5 -357.35 214.03 C-358.98 213.21 -360.61 212.39 -362.25 211.58 C-366.55 209.41 -369.67 207.52 -372.19 203.25 C-372.72 200.53 -372.72 200.53 -372.69 197.75 C-372.7 196.83 -372.71 195.91 -372.72 194.97 C-372.03 191.43 -370.61 189.9 -368.19 187.25 C-365.61 185.54 -365.61 185.54 -362.66 184.01 C-361.55 183.42 -360.44 182.84 -359.3 182.24 C-358.1 181.62 -356.89 181 -355.69 180.38 C-354.43 179.72 -353.18 179.06 -351.93 178.4 C-349.32 177.03 -346.71 175.66 -344.1 174.3 C-337.98 171.1 -331.9 167.83 -325.81 164.56 C-324.63 163.93 -323.45 163.3 -322.27 162.67 C-315.2 158.88 -308.16 155.05 -301.12 151.19 C-291.9 146.12 -282.57 141.28 -273.21 136.46 C-266.19 132.83 -259.23 129.13 -252.31 125.31 C-240.72 118.93 -228.95 112.88 -217.18 106.83 C-212.46 104.4 -207.76 101.93 -203.06 99.44 C-192.61 93.91 -182.09 88.53 -171.57 83.13 C-162.56 78.5 -153.55 73.86 -144.56 69.19 C-121.12 57.02 -97.66 44.89 -73.99 33.16 C-66.51 29.45 -59.06 25.68 -51.69 21.75 C-40.57 15.83 -29.31 10.22 -17.94 4.81 C-17.22 4.47 -16.51 4.13 -15.77 3.78 C-10.25 1.17 -6.09 0.09 0 0 Z " fill="#7644D8" transform="translate(626.1875,211.75)"/>
<path d="M0 0 C0.07 15.73 0.12 31.47 0.16 47.2 C0.17 54.51 0.19 61.82 0.23 69.12 C0.26 75.49 0.28 81.87 0.28 88.24 C0.29 91.61 0.3 94.98 0.32 98.35 C0.34 102.12 0.34 105.89 0.34 109.67 C0.35 110.22 0.35 110.22 0.37 113.01 C0.33 123.1 -1.4 132.05 -8.51 139.6 C-13 143.86 -18.07 146.96 -23.37 150.07 C-46.97 163.93 -69.53 179.62 -92.26 194.83 C-95.93 197.29 -99.61 199.74 -103.28 202.19 C-109.28 206.17 -115.25 210.18 -121.19 214.25 C-121.97 214.79 -122.76 215.33 -123.57 215.88 C-132.76 222.19 -141.88 228.59 -151 235 C-151.74 235.52 -152.48 236.04 -153.24 236.57 C-163.47 243.75 -173.62 251.03 -183.74 258.36 C-185.98 259.99 -188.22 261.6 -190.47 263.22 C-198.21 268.8 -205.94 274.4 -213.62 280.06 C-214.41 280.64 -215.2 281.22 -216 281.81 C-219.88 284.68 -223.74 287.56 -227.58 290.48 C-228.3 291.03 -229.03 291.58 -229.77 292.15 C-231.13 293.18 -232.49 294.22 -233.84 295.27 C-238.61 298.9 -242.66 301.28 -248.81 301.38 C-249.6 301.4 -250.39 301.43 -251.21 301.46 C-258.23 300.3 -263.89 295.84 -269.38 291.56 C-270.78 290.49 -272.19 289.41 -273.6 288.34 C-274.33 287.79 -275.05 287.24 -275.79 286.67 C-287.34 277.94 -299.26 269.68 -311.13 261.4 C-315.6 258.28 -320.05 255.15 -324.5 252 C-330.7 247.62 -336.91 243.24 -343.12 238.88 C-343.51 238.61 -343.51 238.61 -345.44 237.25 C-350.8 233.49 -356.23 229.83 -361.68 226.21 C-367.23 222.52 -372.75 218.8 -378.27 215.07 C-379.18 214.46 -380.08 213.85 -381.01 213.22 C-384.73 210.7 -388.45 208.19 -392.17 205.67 C-403.46 198.03 -414.79 190.48 -426.26 183.12 C-428.63 181.59 -431 180.05 -433.37 178.5 C-441.32 173.31 -449.29 168.15 -457.31 163.06 C-458.07 162.58 -458.84 162.1 -459.62 161.6 C-464.04 158.8 -468.51 156.1 -473.02 153.45 C-474.05 152.85 -475.07 152.24 -476.13 151.62 C-478.11 150.45 -480.09 149.3 -482.09 148.16 C-492.32 142.11 -497.88 135.97 -501.2 124.49 C-502.43 119.13 -502.53 113.99 -502.45 108.51 C-502.45 107.34 -502.46 106.16 -502.46 104.96 C-502.45 101.13 -502.42 97.31 -502.39 93.48 C-502.38 90.81 -502.38 88.14 -502.37 85.46 C-502.36 79.18 -502.33 72.9 -502.29 66.62 C-502.24 59.46 -502.22 52.3 -502.2 45.13 C-502.16 30.42 -502.09 15.71 -502 1 C-497.71 1.64 -494.75 2.44 -491.05 4.74 C-490.59 5.02 -490.59 5.02 -488.26 6.45 C-487.29 7.07 -486.32 7.68 -485.31 8.31 C-484.29 8.95 -483.27 9.58 -482.22 10.23 C-479.14 12.14 -476.07 14.07 -473 16 C-472.16 16.53 -471.32 17.05 -470.46 17.59 C-466.61 20.01 -462.77 22.44 -458.93 24.88 C-454.38 27.76 -449.82 30.62 -445.25 33.47 C-440.16 36.64 -435.08 39.82 -430 43 C-429.12 43.55 -428.23 44.11 -427.32 44.68 C-411.66 54.5 -396.28 64.74 -380.92 75.03 C-376.93 77.71 -372.94 80.37 -368.94 83.04 C-363.31 86.78 -357.69 90.53 -352.12 94.38 C-351.47 94.82 -350.82 95.27 -350.15 95.73 C-343.06 100.63 -336.02 105.6 -328.99 110.59 C-327.73 111.48 -326.46 112.38 -325.2 113.28 C-310.83 123.45 -296.66 133.86 -282.8 144.72 C-255.95 165.71 -255.95 165.71 -251.2 166.41 C-247.1 165.88 -244.9 164.05 -241.88 161.44 C-240.64 160.42 -239.4 159.41 -238.16 158.39 C-237.5 157.85 -236.83 157.3 -236.15 156.73 C-232.26 153.59 -228.25 150.61 -224.25 147.62 C-223.82 147.31 -223.82 147.31 -221.67 145.7 C-213.91 139.9 -206.07 134.23 -198.2 128.58 C-196.02 127.01 -193.85 125.44 -191.68 123.86 C-175.4 112.03 -158.91 100.48 -142.11 89.4 C-139.66 87.77 -137.21 86.14 -134.77 84.5 C-111.65 69.04 -88.38 53.8 -64.91 38.86 C-62.1 37.06 -59.28 35.26 -56.47 33.46 C-45.42 26.38 -34.29 19.44 -23.09 12.59 C-22.58 12.28 -22.58 12.28 -19.99 10.69 C-19 10.08 -18 9.48 -16.98 8.85 C-13.03 6.4 -9.14 3.84 -5.27 1.27 C-3 0 -3 0 0 0 Z " fill="#6738D4" transform="translate(879,534)"/>
<path d="M0 0 C4.3 1.33 8.17 2.98 12.16 5.05 C12.73 5.35 13.31 5.65 13.9 5.96 C15.77 6.92 17.63 7.9 19.5 8.88 C20.81 9.56 22.12 10.24 23.43 10.92 C31.97 15.37 40.45 19.93 48.89 24.58 C55.71 28.32 62.59 31.93 69.5 35.5 C77.77 39.78 86.01 44.11 94.19 48.56 C95.09 49.05 95.99 49.54 96.92 50.04 C111.06 57.77 111.06 57.77 114 64 C114.46 70.39 113.12 72.85 109 78 C104.05 80.64 104.05 80.64 79 94 C78.67 131.95 78.34 169.9 78 209 C79.65 209.66 81.3 210.32 83 211 C88.67 216.04 92.52 221.62 93.35 229.2 C93.73 238.31 92.22 244.86 86.4 251.95 C84.81 253.62 84.81 253.62 82 256 C81.34 256 80.68 256 80 256 C80.36 256.52 80.73 257.05 81.1 257.59 C87.54 267.52 91.75 279.12 93.51 290.82 C94.2 295.28 95.08 299.7 95.94 304.12 C98.82 319.21 101.43 334.28 103.52 349.5 C103.88 352.14 104.25 354.78 104.62 357.42 C105.2 361.55 105.77 365.68 106.34 369.8 C106.57 371.46 106.8 373.12 107.03 374.78 C107.37 377.14 107.69 379.5 108.01 381.86 C108.06 382.21 108.06 382.21 108.31 383.99 C110 396.5 110 396.5 107.73 399.9 C105.93 401.04 104.28 401.86 102.27 402.57 C101.55 402.83 100.83 403.08 100.08 403.35 C99.71 403.48 99.71 403.48 97.81 404.12 C97.08 404.39 96.35 404.65 95.6 404.93 C90.71 406.63 86.14 407.44 81 408 C80.67 408.33 80.34 408.66 80 409 C77.87 409.1 75.73 409.13 73.59 409.13 C72.29 409.13 70.99 409.14 69.65 409.14 C68.97 409.13 68.29 409.13 67.59 409.13 C65.51 409.13 63.43 409.13 61.35 409.14 C60.7 409.14 60.7 409.14 57.41 409.13 C56.2 409.13 55 409.13 53.76 409.13 C51 409 51 409 50 408 C48.82 407.94 47.65 407.88 46.44 407.81 C41.52 407.34 37.21 405.8 32.62 404.06 C32.27 403.93 32.27 403.93 30.5 403.26 C27.41 402.06 24.76 400.84 22 399 C19.11 382.83 24.91 363.14 27.52 347.19 C28.58 340.72 29.54 334.24 30.44 327.75 C35.47 292.05 35.47 292.05 40 276.75 C40.22 275.98 40.45 275.22 40.68 274.43 C42.22 269.55 44.36 265.33 47.01 260.95 C48 259 48 259 48 256 C47.28 255.28 46.56 254.56 45.81 253.81 C39.83 247.83 36.87 241.92 36.62 233.44 C36.7 226.5 37.82 221.58 42 216 C43.53 215.03 45.08 214.07 46.62 213.11 C50.89 209.37 51.63 206.26 52.02 200.82 C52.19 195.73 52.16 190.65 52.1 185.56 C52.1 183.35 52.11 181.15 52.13 178.94 C52.15 173.14 52.12 167.35 52.08 161.56 C52.05 155.64 52.07 149.72 52.08 143.8 C52.11 132.2 52.07 120.6 52 109 C49.77 110.11 47.54 111.21 45.32 112.32 C44.69 112.63 44.07 112.94 43.42 113.26 C38.23 115.85 33.19 118.64 28.19 121.56 C26.38 122.6 24.58 123.64 22.78 124.68 C21.84 125.22 20.91 125.76 19.94 126.32 C14.74 129.29 9.49 132.2 4.25 135.12 C-4.71 140.13 -13.6 145.24 -22.43 150.48 C-25.6 152.35 -28.78 154.22 -31.96 156.08 C-32.58 156.44 -33.2 156.8 -33.84 157.18 C-34.47 157.55 -35.1 157.92 -35.75 158.3 C-46.18 164.39 -56.59 170.5 -66.93 176.75 C-69.46 178.28 -72 179.79 -74.54 181.31 C-96.14 194.22 -117.55 207.43 -138.88 220.79 C-139.75 221.33 -140.62 221.88 -141.52 222.44 C-143.14 223.46 -144.75 224.5 -146.35 225.57 C-146.7 225.8 -146.7 225.8 -148.49 226.99 C-149.1 227.4 -149.71 227.82 -150.34 228.24 C-152 229 -152 229 -155 228 C-154.01 227.67 -153.02 227.34 -152 227 C-151.84 226.67 -151.84 226.67 -151 225 C-150.67 224.93 -150.67 224.93 -149 224.56 C-148.34 224.38 -147.68 224.19 -147 224 C-146.67 223.01 -146.34 222.02 -146 221 C-144.03 219.82 -144.03 219.82 -141.5 218.69 C-135.41 215.79 -130.06 212.14 -124.54 208.29 C-124.14 208.01 -124.14 208.01 -122.12 206.62 C-121.41 206.12 -120.69 205.62 -119.95 205.1 C-118 204 -118 204 -115 204 C-115 203.34 -115 202.68 -115 202 C-113.35 201.67 -111.7 201.34 -110 201 C-110 200.34 -110 199.68 -110 199 C-107.09 196.96 -105.6 196 -102 196 C-101.67 195.34 -101.34 194.68 -101 194 C-98.94 193.38 -98.94 193.38 -97 193 C-97 192.34 -97 191.68 -97 191 C-96.2 190.63 -95.39 190.26 -94.56 189.88 C-90.87 188.05 -87.59 185.7 -84.25 183.3 C-81.81 181.89 -79.77 181.4 -77 181 C-77 180.34 -77 179.68 -77 179 C-75.91 178.4 -74.83 177.79 -73.71 177.17 C-72.27 176.36 -70.82 175.56 -69.38 174.75 C-68.66 174.35 -67.95 173.96 -67.21 173.55 C-63.01 171.2 -59 168.69 -55 166 C-52.67 164.56 -50.31 163.18 -47.94 161.81 C-47.34 161.46 -46.74 161.1 -46.12 160.74 C-42.77 158.8 -39.85 157.49 -36 157 C-36 156.34 -36 155.68 -36 155 C-35.11 154.49 -34.21 153.98 -33.29 153.46 C-22.32 147.22 -22.32 147.22 -17.12 144.06 C-12.28 141.13 -7.34 138.37 -2.4 135.61 C3.54 132.29 9.4 128.85 15.24 125.36 C25.95 119 25.95 119 29 119 C29.33 118.34 29.66 117.68 30 117 C32.4 115.62 34.79 114.32 37.25 113.06 C38.59 112.37 39.93 111.67 41.27 110.97 C41.59 110.81 41.59 110.81 43.22 109.96 C44.72 109.15 46.17 108.24 47.61 107.31 C50 106 50 106 52.71 105.61 C57.49 104.72 61.37 102.48 65.62 100.19 C66.47 99.75 67.32 99.31 68.19 98.86 C72.43 96.61 75.66 94.49 79 91 C79.99 91 80.98 91 82 91 C82 90.34 82 89.68 82 89 C88.5 85 88.5 85 93 85 C93 84.34 93 83.68 93 83 C93.65 82.69 94.3 82.37 94.98 82.05 C106.69 76.31 106.69 76.31 110 73 C110.07 70.81 110.08 68.62 110.06 66.44 C110.06 65.84 110.06 65.84 110.04 62.81 C110.02 61.88 110.01 60.95 110 60 C109.27 59.72 108.54 59.43 107.78 59.14 C105.27 58.11 102.89 56.97 100.48 55.71 C100.06 55.49 100.06 55.49 97.91 54.37 C97.01 53.9 96.11 53.42 95.19 52.94 C94.26 52.45 93.32 51.96 92.37 51.46 C86 48.1 79.72 44.63 73.47 41.07 C68.72 38.37 63.88 35.89 58.97 33.48 C53.58 30.79 48.29 27.89 43 25 C43 24.34 43 23.68 43 23 C42.4 22.81 41.79 22.61 41.17 22.41 C40.77 22.28 40.77 22.28 38.75 21.62 C38.36 21.5 38.36 21.5 36.36 20.85 C34.13 20.05 32.09 19.1 30 18 C30 17.34 30 16.68 30 16 C28.02 15.67 26.04 15.34 24 15 C24 14.34 24 13.68 24 13 C22.93 12.71 21.86 12.42 20.75 12.12 C17.91 11.27 15.56 10.44 13 9 C13 8.34 13 7.68 13 7 C12.13 6.71 11.27 6.42 10.38 6.12 C9.26 5.75 8.15 5.38 7 5 C5.91 4.69 4.81 4.38 3.69 4.06 C2.8 3.71 1.91 3.36 1 3 C0.67 2.01 0.34 1.02 0 0 Z " fill="#5A2FC8" transform="translate(887,342)"/>
<path d="M0 0 C6.32 0.02 12.63 0.01 18.95 -0.01 C63.03 -0.11 107.15 1.23 151.04 5.59 C154.24 5.91 157.43 6.2 160.63 6.5 C173.08 7.67 185.39 9.26 197.71 11.39 C197.71 11.72 197.71 12.05 197.71 12.39 C197.41 12.39 197.41 12.39 195.89 12.39 C181.01 12.37 166.13 12.35 151.25 12.34 C144.06 12.33 136.86 12.33 129.66 12.32 C81.66 12.24 33.77 12.57 -14.16 15.48 C-16.91 15.65 -19.67 15.81 -22.43 15.97 C-61.85 18.3 -101.07 21.76 -140.29 26.39 C-141.02 26.48 -141.75 26.56 -142.5 26.65 C-184.81 31.63 -226.83 38.7 -268.63 46.87 C-271.18 47.37 -273.73 47.86 -276.28 48.36 C-296.4 52.24 -316.39 56.52 -336.29 61.39 C-337.21 61.62 -338.14 61.84 -339.09 62.08 C-346.6 63.92 -354.1 65.78 -361.6 67.64 C-362.66 67.9 -363.72 68.17 -364.81 68.44 C-367.86 69.19 -370.91 69.96 -373.96 70.72 C-374.87 70.94 -375.78 71.17 -376.72 71.4 C-381.66 72.64 -386.48 74.06 -391.29 75.76 C-394.27 76.7 -397.19 77.06 -400.29 77.39 C-396.57 73.34 -392.85 70.69 -388.04 68.08 C-387.33 67.69 -386.63 67.31 -385.9 66.91 C-369.95 58.25 -353.32 51.62 -336.29 45.39 C-335.33 45.04 -334.37 44.69 -333.39 44.33 C-253.9 15.61 -165.62 6.43 -81.83 1.77 C-80.68 1.71 -79.52 1.64 -78.33 1.57 C-52.22 0.16 -26.14 -0.07 0 0 Z " fill="#814CF1" transform="translate(677.28759765625,1000.60888671875)"/>
<path d="M0 0 C0.9 0.03 1.8 0.06 2.73 0.1 C3.22 0.1 3.22 0.1 5.7 0.15 C6.21 0.18 6.21 0.18 8.78 0.31 C9.29 0.32 9.29 0.32 11.9 0.39 C14.45 0.46 16.98 0.56 19.53 0.68 C19.71 1.77 19.89 2.86 20.08 3.98 C21.38 11.63 22.81 19.15 24.77 26.67 C26.86 35 28.4 43.42 29.53 51.93 C30.08 56.04 30.78 59.9 31.96 63.87 C33.68 69.71 34.51 75.62 35.4 81.63 C36.09 86.21 36.94 90.64 38.15 95.12 C39.73 100.96 40.17 106.64 40.53 112.68 C33.27 112.68 26.01 112.68 18.53 112.68 C18.03 109.48 17.54 106.29 17.03 102.99 C16.87 102 16.71 101 16.55 99.97 C16.43 99.17 16.31 98.37 16.18 97.54 C16.12 97.14 16.12 97.14 15.8 95.08 C15.52 92.6 15.48 90.18 15.53 87.68 C-22.3 85.42 -22.3 85.42 -30.56 90.63 C-34.61 95.22 -36.62 100.47 -37.92 106.41 C-38.47 108.68 -38.47 108.68 -40.47 112.68 C-47.4 112.68 -54.33 112.68 -61.47 112.68 C-60.14 108.68 -59.13 105.77 -57.15 102.23 C-56.68 101.4 -56.22 100.56 -55.74 99.7 C-55.24 98.81 -54.74 97.92 -54.22 96.99 C-49.5 88.46 -44.94 79.86 -40.47 71.18 C-35.81 62.12 -31.03 53.13 -26.1 44.2 C-23.17 38.87 -20.32 33.49 -17.53 28.08 C-17.2 27.43 -16.86 26.77 -16.51 26.1 C-14.85 22.87 -13.2 19.64 -11.55 16.4 C-10.94 15.21 -10.33 14.03 -9.72 12.84 C-9.19 11.79 -8.66 10.75 -8.11 9.68 C-3.31 0.91 -3.31 0.91 0 0 Z " fill="#844DF2" transform="translate(734.4736328125,853.31884765625)"/>
<path d="M0 0 C7.26 0 14.52 0 22 0 C21.42 7.35 20.47 14.45 19.06 21.69 C17.35 30.77 16 39.81 15 49 C17.36 46.67 19.71 44.34 22.06 42 C22.39 41.68 22.39 41.68 24.05 40.04 C27.31 36.79 30.47 33.52 33.46 30.03 C37.92 24.86 42.81 20.14 47.68 15.36 C51.86 11.23 55.84 7.01 59.67 2.55 C60.42 1.68 61.19 0.81 62 0 C63.93 -0.09 65.86 -0.11 67.79 -0.1 C68.95 -0.09 70.12 -0.09 71.33 -0.09 C72.56 -0.08 73.79 -0.07 75.06 -0.06 C75.68 -0.06 75.68 -0.06 78.81 -0.05 C81.87 -0.04 84.94 -0.02 88 0 C86.51 3.49 84.53 5.69 81.81 8.32 C80.95 9.17 80.08 10.01 79.19 10.88 C78.73 11.33 78.73 11.33 76.36 13.62 C75.4 14.57 74.44 15.51 73.47 16.46 C69.39 20.48 65.3 24.48 61.19 28.47 C58.67 30.91 56.17 33.37 53.67 35.84 C52.26 37.23 50.82 38.6 49.39 39.98 C48.54 40.83 47.68 41.68 46.8 42.55 C46.04 43.29 45.28 44.03 44.5 44.79 C43 47 43 47 43.18 49.6 C44.19 52.56 45.46 55.26 46.88 58.05 C47.47 59.22 48.05 60.38 48.66 61.58 C49.29 62.83 49.93 64.07 50.56 65.31 C51.21 66.59 51.85 67.86 52.49 69.14 C53.76 71.64 55.02 74.14 56.29 76.64 C58.36 80.71 60.4 84.79 62.44 88.88 C64.29 92.59 66.15 96.3 68.04 100 C68.37 100.65 68.7 101.3 69.04 101.97 C69.94 103.75 70.84 105.53 71.75 107.3 C73 110 73 110 73 112 C64.75 112 56.5 112 48 112 C42.1 100.9 36.32 89.77 30.88 78.44 C30.4 77.46 29.93 76.48 29.44 75.47 C29 74.55 28.57 73.63 28.12 72.68 C27.73 71.87 27.35 71.07 26.95 70.23 C26.07 68.16 25.47 66.2 25 64 C24.34 64 23.68 64 23 64 C23 64.66 23 65.32 23 66 C21.43 67.55 21.43 67.55 19.31 69.31 C18.58 69.95 17.85 70.58 17.1 71.23 C15.5 72.58 13.86 73.87 12.19 75.12 C5.3 84.18 5.46 101.2 4 112 C-3.26 112 -10.52 112 -18 112 C-17.37 99.59 -15.19 87.53 -13.06 75.31 C-12.7 73.19 -12.33 71.07 -11.97 68.95 C-11.62 66.9 -11.26 64.85 -10.91 62.8 C-10.75 61.87 -10.59 60.93 -10.42 59.97 C-9.51 54.72 -8.52 49.5 -7.44 44.29 C-6.65 40.2 -6.12 36.07 -5.56 31.94 C-4.61 25.08 -3.58 18.25 -2.38 11.44 C-2.25 10.74 -2.13 10.05 -2 9.33 C-1.43 6.18 -0.78 3.11 0 0 Z " fill="#260E81" transform="translate(227,854)"/>
<path d="M0 0 C0.94 -0.02 1.88 -0.05 2.84 -0.07 C10.92 -0.11 17.44 1.86 24.19 6.31 C28.99 11.11 30.39 15.82 30.49 22.45 C30.42 31.17 28.82 39.67 27.38 48.25 C26.97 50.73 26.56 53.21 26.16 55.68 C25.89 57.29 25.63 58.9 25.36 60.51 C24.22 67.45 23.22 74.41 22.25 81.38 C15.98 81.38 9.71 81.38 3.25 81.38 C3.25 78.74 3.25 76.1 3.25 73.38 C2.94 73.61 2.94 73.61 1.34 74.8 C-8.65 82.07 -16.13 84.86 -28.75 83.38 C-35.92 81.24 -40.06 77.8 -43.75 71.38 C-45.89 64.95 -45.59 58.36 -42.81 52.19 C-38.3 44.21 -31.8 39.26 -23.3 36.07 C-16.18 34.14 -9.13 34.25 -1.81 34.31 C-1.28 34.31 -1.28 34.31 1.42 34.33 C4.03 34.34 6.64 34.35 9.25 34.38 C9.26 32.77 9.26 31.17 9.26 29.56 C9.26 29.12 9.26 29.12 9.27 26.86 C9.23 21.79 9.23 21.79 8.25 19.38 C2.3 16.32 -4.25 16.53 -10.75 17.38 C-15.11 19.33 -18.39 22.02 -21.75 25.38 C-25.48 25.1 -27.17 23.28 -29.56 20.56 C-30.19 19.88 -30.81 19.19 -31.46 18.48 C-32.75 16.38 -32.75 16.38 -32.64 14.3 C-29.85 8.26 -22.63 4.79 -16.75 2.38 C-15.9 2.02 -15.05 1.66 -14.18 1.29 C-9.42 0.02 -4.9 0.01 0 0 Z " fill="#260F81" transform="translate(349.75,884.625)"/>
<path d="M0 0 C5.36 4.4 10.46 9.43 11.18 16.64 C11.29 19.04 11.3 21.42 11.29 23.81 C11.31 24.61 11.33 25.41 11.34 26.24 C11.35 32.9 10.02 36.81 7.98 43.62 C-8.52 43.62 -25.02 43.62 -42.02 43.62 C-40.64 56.03 -40.64 56.03 -36.37 60.26 C-31.3 63.21 -24.68 62.28 -19.02 61.62 C-14.91 60.02 -12.11 57.71 -9.02 54.62 C-4.85 54.89 -2.71 56.39 0.29 59.19 C0.99 59.83 1.69 60.47 2.41 61.13 C2.93 61.62 3.45 62.12 3.98 62.62 C0.46 70.49 -7.34 74.47 -15.02 77.62 C-25.21 81.03 -37.14 81.22 -47.02 76.62 C-54.06 72.8 -59.28 66.51 -61.58 58.75 C-64.84 43.15 -61.14 27.58 -52.86 14.28 C-42.03 -1.37 -17.51 -10.91 0 0 Z " fill="#281082" transform="translate(554.01953125,888.375)"/>
<path d="M0 0 C5.95 3.7 10.06 9.34 12.12 16 C12.43 18.88 12.45 21.73 12.44 24.62 C12.45 25.37 12.47 26.11 12.49 26.88 C12.49 33.68 11.04 37.98 9.12 45 C-7.04 45 -23.22 45 -39.88 45 C-38.59 56.58 -38.59 56.58 -34.44 61.81 C-30.58 64.75 -25.53 64.48 -20.88 64 C-16.8 62.66 -13.88 61.11 -10.75 58.25 C-7.88 56 -7.88 56 -5.44 55.75 C-1.56 57.64 1.72 60.4 4.12 64 C4.05 66.83 3.34 67.79 1.34 69.78 C-8.84 77.47 -16.47 80.18 -29.19 80.31 C-29.64 80.33 -29.64 80.33 -31.95 80.4 C-39.31 80.47 -44.47 78.93 -50.08 74.11 C-58.6 63.92 -60.03 53.12 -58.88 40 C-57.04 30.59 -53.49 21.79 -47.88 14 C-47.44 13.37 -47 12.74 -46.55 12.09 C-36.23 -1.37 -15.7 -7.14 0 0 Z " fill="#834DF2" transform="translate(910.875,887)"/>
<path d="M0 0 C0.41 -0.01 0.41 -0.01 2.51 -0.06 C8.85 -0.06 12.43 1.52 17.11 5.96 C21.45 11.33 22.78 15.3 22.75 22.19 C22.75 22.76 22.75 22.76 22.77 25.67 C22.51 29.33 21.87 32.61 21.02 36.16 C20.2 39.76 19.67 43.41 19.12 47.06 C17.94 54.74 16.69 62.41 15.38 70.06 C15.2 71.08 15.03 72.09 14.86 73.14 C14.78 73.6 14.78 73.6 14.37 75.98 C14.22 76.81 14.08 77.65 13.93 78.51 C13.5 80.44 13.5 80.44 12.5 81.44 C11.01 81.52 9.52 81.54 8.03 81.54 C7.13 81.53 6.23 81.53 5.3 81.53 C4.83 81.52 4.83 81.52 2.44 81.5 C1.49 81.5 0.54 81.49 -0.44 81.49 C-2.79 81.47 -5.15 81.46 -7.5 81.44 C-6.18 72.25 -4.81 63.08 -3.19 53.93 C-2.96 52.65 -2.73 51.37 -2.5 50.05 C-2.05 47.51 -1.59 44.98 -1.13 42.44 C1.63 26.97 1.63 26.97 -0.81 21.5 C-2.96 18.87 -4.64 18.53 -7.95 18.16 C-13.72 17.95 -17.47 18.24 -22.06 21.86 C-26.41 26.64 -27.37 31.57 -28.44 37.75 C-28.6 38.66 -28.77 39.57 -28.94 40.5 C-30.42 48.74 -31.79 57 -33.11 65.26 C-33.26 66.22 -33.41 67.17 -33.57 68.14 C-33.7 68.97 -33.83 69.8 -33.97 70.66 C-34.66 74.28 -35.6 77.86 -36.5 81.44 C-43.1 81.44 -49.7 81.44 -56.5 81.44 C-55.93 73.49 -55 65.79 -53.54 57.96 C-53.35 56.91 -53.16 55.86 -52.96 54.78 C-52.35 51.46 -51.74 48.13 -51.12 44.81 C-50.32 40.45 -49.52 36.08 -48.73 31.71 C-48.53 30.66 -48.34 29.61 -48.14 28.53 C-46.5 19.52 -44.98 10.48 -43.5 1.44 C-37.23 1.44 -30.96 1.44 -24.5 1.44 C-24.34 2.76 -24.34 2.76 -23.5 9.44 C-22.99 9.04 -22.48 8.64 -21.96 8.23 C-21.27 7.7 -20.58 7.17 -19.88 6.62 C-19.2 6.1 -18.53 5.58 -17.84 5.04 C-11.76 0.87 -7.22 -0.06 0 0 Z " fill="#260F81" transform="translate(624.5,884.5625)"/>
<path d="M0 0 C19.47 0 38.94 0 59 0 C57.3 15.27 57.3 15.27 51.12 21.62 C50.13 22.67 49.13 23.71 48.14 24.75 C47.62 25.29 47.1 25.82 46.57 26.37 C43.98 29.06 41.46 31.81 38.94 34.56 C37.93 35.65 36.93 36.74 35.92 37.83 C18.27 56.97 18.27 56.97 13 64 C24.88 64 36.76 64 49 64 C48 75 48 75 47 80 C26.54 80 6.08 80 -15 80 C-14.01 67.12 -13.34 64.92 -5 57 C-2.93 54.82 -0.9 52.6 1.12 50.38 C2.16 49.26 3.19 48.14 4.23 47.02 C6.9 44.12 9.5 41.16 12.08 38.17 C15.24 34.6 18.49 31.13 21.74 27.65 C22.23 27.13 22.72 26.6 23.23 26.05 C23.67 25.58 24.1 25.12 24.56 24.63 C26.45 22.49 28.21 20.23 30 18 C19.11 17.67 8.22 17.34 -3 17 C-1 2 -1 2 0 0 Z " fill="#270F81" transform="translate(434,886)"/>
<path d="M0 0 C0.33 0 0.66 0 1 0 C1 37.29 1 74.58 1 113 C0.34 112.01 -0.32 111.02 -1 110 C-1.33 110.66 -1.66 111.32 -2 112 C-4.29 111.86 -6.58 111.71 -8.88 111.56 C-10.15 111.48 -11.43 111.4 -12.74 111.32 C-16 111 -16 111 -18 110 C-18 110.66 -18 111.32 -18 112 C-18.99 111.67 -19.98 111.34 -21 111 C-21.66 111.99 -22.32 112.98 -23 114 C-23 81 -23 48 -23 14 C-50.97 29.25 -78.66 44.81 -106.04 61.09 C-113.31 65.42 -120.61 69.69 -127.94 73.94 C-139.76 80.8 -151.43 87.91 -163.11 95.02 C-168.14 98.09 -173.19 101.11 -178.25 104.12 C-185.64 108.54 -192.95 113.06 -200.25 117.62 C-200.76 117.94 -200.76 117.94 -203.31 119.54 C-207.89 122.4 -212.45 125.28 -216.97 128.21 C-217.71 128.69 -218.46 129.16 -219.22 129.65 C-220.58 130.53 -221.93 131.41 -223.27 132.3 C-224.8 133.28 -226.39 134.15 -228 135 C-228.99 134.67 -229.98 134.34 -231 134 C-230.01 133.67 -229.02 133.34 -228 133 C-227.84 132.67 -227.84 132.67 -227 131 C-226.67 130.93 -226.67 130.93 -225 130.56 C-224.34 130.38 -223.68 130.19 -223 130 C-222.67 129.01 -222.34 128.02 -222 127 C-220.03 125.82 -220.03 125.82 -217.5 124.69 C-211.41 121.79 -206.06 118.14 -200.54 114.29 C-200.14 114.01 -200.14 114.01 -198.12 112.62 C-197.41 112.12 -196.69 111.62 -195.95 111.1 C-194 110 -194 110 -191 110 C-191 109.34 -191 108.68 -191 108 C-190.17 107.84 -190.17 107.84 -186 107 C-186 106.34 -186 105.68 -186 105 C-183.09 102.96 -181.6 102 -178 102 C-177.67 101.34 -177.34 100.68 -177 100 C-174.94 99.38 -174.94 99.38 -173 99 C-173 98.34 -173 97.68 -173 97 C-172.2 96.63 -171.39 96.26 -170.56 95.88 C-166.87 94.05 -163.59 91.7 -160.25 89.3 C-157.81 87.89 -155.77 87.4 -153 87 C-153 86.34 -153 85.68 -153 85 C-151.91 84.4 -150.83 83.79 -149.71 83.17 C-148.27 82.36 -146.82 81.56 -145.38 80.75 C-144.66 80.35 -143.95 79.96 -143.21 79.55 C-139.01 77.2 -135 74.69 -131 72 C-128.67 70.56 -126.31 69.18 -123.94 67.81 C-123.34 67.46 -122.74 67.1 -122.12 66.74 C-118.77 64.8 -115.85 63.49 -112 63 C-112 62.34 -112 61.68 -112 61 C-111.11 60.49 -110.21 59.98 -109.29 59.46 C-98.32 53.22 -98.32 53.22 -93.12 50.06 C-88.28 47.13 -83.34 44.37 -78.4 41.61 C-72.46 38.29 -66.6 34.85 -60.76 31.36 C-50.05 25 -50.05 25 -47 25 C-46.67 24.34 -46.34 23.68 -46 23 C-43.6 21.62 -41.21 20.32 -38.75 19.06 C-37.41 18.37 -36.07 17.67 -34.73 16.97 C-34.41 16.81 -34.41 16.81 -32.78 15.96 C-31.28 15.15 -29.83 14.24 -28.39 13.31 C-26 12 -26 12 -23.3 11.62 C-18.44 10.7 -14.5 8.35 -10.19 6 C-9.75 5.77 -9.75 5.77 -7.55 4.59 C-1.18 1.18 -1.18 1.18 0 0 Z " fill="#552AC7" transform="translate(963,436)"/>
<path d="M0 0 C0.88 0.01 1.76 0.01 2.67 0.02 C10.57 0.24 16.32 1.67 22.01 7.4 C25.28 11.37 26.47 14.35 27.12 19.5 C25.03 20.84 22.92 22.17 20.81 23.5 C20.22 23.88 19.62 24.26 19.01 24.66 C14.46 27.5 14.46 27.5 11.12 27.5 C10.75 26.59 10.38 25.68 10 24.75 C7.76 20.86 6.16 19.44 2.12 17.5 C-2.55 16.57 -6.71 17.02 -11 19.12 C-17.38 23.58 -21.14 32.64 -22.55 40.04 C-24.04 55.78 -24.04 55.78 -20.14 63.01 C-18.56 64.87 -17.14 65.61 -14.88 66.5 C-9.14 66.92 -4.39 66.62 0.14 62.81 C1.51 61.55 2.87 60.27 4.2 58.96 C6.12 57.5 6.12 57.5 10.12 57.5 C12.48 59.03 12.48 59.03 14.88 61 C15.67 61.65 16.47 62.3 17.3 62.97 C17.9 63.47 18.5 63.98 19.12 64.5 C17.72 71.39 11.4 75.16 5.85 78.92 C-3.24 84.19 -14.52 85.11 -24.71 82.88 C-31.09 80.67 -36.02 77.06 -39.88 71.5 C-45.98 58.93 -45.39 45.05 -41.07 32.1 C-39.02 26.42 -36.41 21.39 -32.88 16.5 C-32.41 15.86 -31.95 15.21 -31.48 14.55 C-23.54 4.45 -12.58 -0.1 0 0 Z " fill="#834EF1" transform="translate(825.875,884.5)"/>
<path d="M0 0 C5.61 0 11.22 0 17 0 C16.42 6.81 15.43 13.32 14 20 C19.28 20 24.56 20 30 20 C29.12 31.5 29.12 31.5 28 36 C22.06 36 16.12 36 10 36 C10 38.64 10 41.28 10 44 C9.7 46.1 9.34 48.19 8.91 50.27 C8.68 51.4 8.46 52.54 8.22 53.71 C7.74 56.06 7.26 58.4 6.78 60.74 C5.31 68.19 4.37 75.4 5 83 C6.81 84.81 9.61 84.38 12.06 84.56 C12.61 84.6 12.61 84.6 15.41 84.82 C16.26 84.88 17.12 84.94 18 85 C17.99 87.1 17.94 89.21 17.88 91.31 C17.85 92.48 17.83 93.66 17.8 94.86 C17 98 17 98 14.42 99.9 C10.57 101.14 7.47 101.37 3.44 101.31 C2.8 101.31 2.8 101.31 -0.44 101.3 C-6.74 100.77 -9.84 98.72 -14 94 C-18.71 86.11 -15.6 76.32 -13.71 67.93 C-12.15 60.93 -10.91 53.89 -9.75 46.81 C-9.58 45.74 -9.4 44.67 -9.22 43.57 C-8.81 41.05 -8.4 38.52 -8 36 C-10.97 36 -13.94 36 -17 36 C-16.86 33.9 -16.71 31.79 -16.56 29.69 C-16.48 28.52 -16.4 27.34 -16.32 26.14 C-16 23 -16 23 -15 20 C-11.37 20 -7.74 20 -4 20 C-3.95 19.46 -3.95 19.46 -3.69 16.75 C-2.99 11.04 -1.45 5.56 0 0 Z " fill="#834EF2" transform="translate(1004,866)"/>
<path d="M0 0 C6.27 0 12.54 0 19 0 C18.56 5.7 17.82 11.18 16.65 16.78 C15.5 22.39 14.44 28.01 13.46 33.66 C13.34 34.38 13.21 35.11 13.08 35.85 C12.57 38.83 12.06 41.8 11.55 44.77 C11.17 46.98 10.79 49.19 10.4 51.41 C10.18 52.7 9.96 53.99 9.73 55.32 C9.01 58.96 8.04 62.45 7 66 C6.67 68.04 6.38 70.08 6.12 72.12 C4.92 81.03 3.17 89.82 1.46 98.64 C0.6 103.09 -0.2 107.54 -1 112 C-7.27 112 -13.54 112 -20 112 C-16.18 84.55 -16.18 84.55 -13.4 73.09 C-12.2 68.15 -11.34 63.2 -10.53 58.19 C-9.64 52.8 -8.63 47.43 -7.62 42.06 C-7.41 40.9 -7.19 39.73 -6.97 38.53 C-5.43 30.25 -3.86 21.98 -2.26 13.71 C-2.1 12.92 -1.95 12.14 -1.8 11.33 C-1.67 10.66 -1.54 9.99 -1.4 9.29 C-0.86 6.21 -0.44 3.1 0 0 Z " fill="#834DF1" transform="translate(967,854)"/>
<path d="M0 0 C6.6 0 13.2 0 20 0 C19.37 9.03 18.16 17.83 16.62 26.75 C16.4 28.09 16.17 29.43 15.94 30.77 C14.61 38.63 13.2 46.48 11.69 54.31 C10.71 59.55 9.85 64.81 9 70.07 C8.45 73.43 7.83 76.69 7 80 C0.07 80 -6.86 80 -14 80 C-11.43 63.67 -8.73 47.36 -5.91 31.06 C-5.3 27.55 -4.7 24.04 -4.09 20.53 C-3.7 18.28 -3.31 16.04 -2.93 13.79 C-2.75 12.75 -2.57 11.7 -2.38 10.63 C-2.22 9.67 -2.05 8.71 -1.88 7.72 C-1.73 6.88 -1.59 6.03 -1.44 5.17 C-1 3 -1 3 0 0 Z " fill="#260F80" transform="translate(399,886)"/>
<path d="M0 0 C0.66 0 1.32 0 2 0 C2.29 1.13 2.58 2.27 2.88 3.44 C3.06 4.17 3.25 4.9 3.44 5.65 C3.8 7.18 4.13 8.71 4.4 10.25 C5.76 17.7 8.92 24.19 15.07 28.91 C21.4 32.49 28.79 34.34 36 35 C36.33 35.99 36.66 36.98 37 38 C36.47 38.12 36.47 38.12 33.82 38.7 C15.66 42.85 15.66 42.85 9.69 49.62 C5.78 57.44 3.42 65.39 2 74 C1.01 73.67 0.02 73.34 -1 73 C-1.79 70.46 -2.4 68.03 -2.94 65.44 C-6.5 49.98 -6.5 49.98 -12.97 45.09 C-17.66 42.57 -22.88 41.35 -28 40 C-28.86 39.77 -29.73 39.54 -30.62 39.31 C-32.41 38.85 -34.2 38.42 -36 38 C-35.67 37.01 -35.34 36.02 -35 35 C-32.29 34.24 -29.69 33.65 -26.94 33.12 C-13.29 30.2 -13.29 30.2 -8.75 24.41 C-7.66 22.65 -6.81 20.9 -6 19 C-5.86 18.69 -5.86 18.69 -5.17 17.12 C-3.28 12.52 -2.28 7.89 -1.43 3 C-1 1 -1 1 0 0 Z " fill="#804CF1" transform="translate(930,977)"/>
<path d="M0 0 C5.61 0 11.22 0 17 0 C16.37 8.68 14.99 17.07 13.31 25.6 C13.05 26.97 12.78 28.35 12.52 29.72 C11.97 32.57 11.41 35.42 10.85 38.26 C10.14 41.92 9.43 45.58 8.72 49.24 C8.18 52.06 7.63 54.88 7.08 57.7 C6.82 59.05 6.56 60.4 6.3 61.75 C5.94 63.62 5.57 65.5 5.2 67.37 C4.99 68.44 4.78 69.5 4.57 70.6 C4 73 4 73 3 74 C0.65 74.07 -1.71 74.08 -4.06 74.06 C-4.71 74.06 -4.71 74.06 -7.97 74.04 C-8.97 74.02 -9.97 74.01 -11 74 C-9.99 59.73 -7.83 45.69 -5.54 31.58 C-4.27 23.74 -3.07 15.89 -1.95 8.02 C-1.11 2.22 -1.11 2.22 0 0 Z " fill="#834EF3" transform="translate(1052,859)"/>
<path d="M0 0 C2.14 3.55 2.49 6.85 2.94 10.94 C3.79 18.1 5.27 25 7 32 C7.4 33.69 7.8 35.37 8.19 37.06 C8.35 37.73 8.5 38.41 8.67 39.1 C9 41 9 41 9 45 C-1.23 45 -11.46 45 -22 45 C-20.63 40.9 -19.37 37.49 -17.46 33.69 C-16.97 32.7 -16.47 31.72 -15.96 30.7 C-15.7 30.18 -15.7 30.18 -14.38 27.56 C-13.84 26.5 -13.31 25.44 -12.76 24.35 C-8.63 16.16 -4.39 8.05 0 0 Z " fill="#F6F1FD" transform="translate(738,879)"/>
<path d="M0 0 C-1.46 0.84 -2.91 1.67 -4.38 2.5 C-5.19 2.96 -6 3.43 -6.84 3.91 C-9 5 -9 5 -11 5 C-11 5.66 -11 6.32 -11 7 C-12.32 7 -13.64 7 -15 7 C-15 7.66 -15 8.32 -15 9 C-16.98 9.33 -18.96 9.66 -21 10 C-21 10.66 -21 11.32 -21 12 C-23.97 12.99 -26.94 13.98 -30 15 C-30 15.66 -30 16.32 -30 17 C-31.98 17.33 -33.96 17.66 -36 18 C-36.16 18.5 -36.16 18.5 -37 21 C-39.65 22.39 -39.65 22.39 -42.94 23.69 C-44.02 24.12 -45.1 24.56 -46.21 25.01 C-49 26 -49 26 -51 26 C-51 26.66 -51 27.32 -51 28 C-52.41 28.84 -53.83 29.67 -55.25 30.5 C-56.04 30.96 -56.83 31.43 -57.64 31.91 C-60 33 -60 33 -64 33 C-64 33.66 -64 34.32 -64 35 C-64.93 35.49 -65.85 35.98 -66.81 36.48 C-70.29 38.31 -73.76 40.15 -77.23 41.99 C-78.73 42.78 -80.23 43.57 -81.72 44.36 C-105 56.63 -105 56.63 -109 62 C-109.67 65.54 -109.26 68.79 -108.5 72.31 C-106 75.12 -102.52 75.92 -99 77 C-99 77.66 -99 78.32 -99 79 C-98.22 79.14 -97.43 79.29 -96.62 79.44 C-94 80 -94 80 -92 81 C-92 81.66 -92 82.32 -92 83 C-91.43 83.11 -90.87 83.22 -90.29 83.33 C-89.92 83.41 -89.92 83.41 -88.06 83.81 C-87.7 83.89 -87.7 83.89 -85.85 84.27 C-85.24 84.51 -84.63 84.75 -84 85 C-83.67 85.99 -83.34 86.98 -83 88 C-81.02 88.33 -79.04 88.66 -77 89 C-77 89.66 -77 90.32 -77 91 C-76.33 91.09 -75.65 91.18 -74.96 91.27 C-71.2 92.2 -68 93.9 -64.62 95.75 C-63.95 96.11 -63.28 96.47 -62.59 96.84 C-59.3 98.64 -56.17 100.46 -53.19 102.75 C-49.69 105.22 -46.3 106.59 -42.31 108.09 C-39.66 109.13 -37.3 110.31 -35 112 C-35 112.66 -35 113.32 -35 114 C-34.3 114.1 -33.6 114.21 -32.88 114.31 C-27.75 115.54 -23.47 118.3 -19 121 C-16.01 122.68 -13.01 124.34 -10 126 C-10 126.66 -10 127.32 -10 128 C-9.19 128.06 -8.39 128.13 -7.55 128.19 C-2.83 129.27 0.76 131.45 4.88 133.94 C5.66 134.39 6.44 134.85 7.25 135.32 C11.52 137.86 11.52 137.86 13 139 C13 139.66 13 140.32 13 141 C15.97 141.99 18.94 142.98 22 144 C22 144.66 22 145.32 22 146 C24.97 146.99 27.94 147.98 31 149 C31 149.66 31 150.32 31 151 C32.65 151.33 34.3 151.66 36 152 C36 152.66 36 153.32 36 154 C38.97 154.99 41.94 155.98 45 157 C45 157.33 45 157.66 45 158 C38.46 157.61 34.05 155.09 28.5 151.75 C26.62 150.65 24.73 149.54 22.85 148.44 C21.88 147.87 20.92 147.3 19.92 146.71 C15.27 143.98 10.57 141.34 5.88 138.69 C4.93 138.15 3.99 137.62 3.01 137.07 C-5.62 132.2 -14.29 127.39 -22.96 122.58 C-29.15 119.15 -35.31 115.69 -41.45 112.19 C-51.6 106.4 -61.86 100.84 -72.19 95.38 C-73.57 94.64 -74.95 93.91 -76.32 93.18 C-86.83 87.62 -86.83 87.62 -91.31 85.25 C-94.13 83.76 -96.94 82.26 -99.75 80.75 C-100.55 80.33 -101.34 79.92 -102.16 79.49 C-106.36 77.22 -109.5 75.21 -112 71 C-112.53 68.28 -112.53 68.28 -112.5 65.5 C-112.51 64.58 -112.52 63.66 -112.53 62.72 C-111.84 59.18 -110.42 57.65 -108 55 C-105.42 53.29 -105.42 53.29 -102.47 51.76 C-101.36 51.17 -100.26 50.59 -99.12 49.99 C-97.91 49.37 -96.71 48.75 -95.5 48.12 C-94.25 47.47 -92.99 46.81 -91.74 46.15 C-89.13 44.78 -86.52 43.41 -83.91 42.05 C-77.79 38.85 -71.71 35.58 -65.62 32.31 C-64.45 31.68 -63.27 31.05 -62.09 30.42 C-55.9 27.11 -49.74 23.77 -43.59 20.39 C-34.81 15.58 -26.01 10.82 -17.15 6.16 C-15.93 5.51 -14.72 4.87 -13.5 4.22 C-11.82 3.32 -10.12 2.43 -8.43 1.54 C-7.45 1.03 -6.47 0.51 -5.47 -0.02 C-3 -1 -3 -1 0 0 Z " fill="#4322C0" transform="translate(366,344)"/>
<path d="M0 0 C-0.07 1.19 -0.13 2.37 -0.2 3.59 C-1.18 22.78 -1.32 41.99 -1.53 61.2 C-1.58 65.81 -1.64 70.43 -1.69 75.04 C-1.8 84.03 -1.9 93.01 -2 102 C-2.33 102 -2.66 102 -3 102 C-3 69 -3 36 -3 2 C-30.97 17.25 -58.66 32.81 -86.04 49.09 C-93.31 53.42 -100.61 57.69 -107.94 61.94 C-119.76 68.8 -131.43 75.91 -143.11 83.02 C-148.14 86.09 -153.19 89.11 -158.25 92.12 C-165.64 96.54 -172.95 101.06 -180.25 105.62 C-180.76 105.94 -180.76 105.94 -183.31 107.54 C-187.89 110.4 -192.45 113.28 -196.97 116.21 C-197.34 116.45 -197.34 116.45 -199.22 117.65 C-200.58 118.53 -201.93 119.41 -203.27 120.3 C-204.8 121.28 -206.39 122.15 -208 123 C-208.99 122.67 -209.98 122.34 -211 122 C-210.5 121.84 -210.5 121.84 -208 121 C-207.84 120.67 -207.84 120.67 -207 119 C-206.67 118.93 -206.67 118.93 -205 118.56 C-204.34 118.38 -203.68 118.19 -203 118 C-202.67 117.01 -202.34 116.02 -202 115 C-200.03 113.82 -200.03 113.82 -197.5 112.69 C-191.41 109.79 -186.06 106.14 -180.54 102.29 C-180.14 102.01 -180.14 102.01 -178.12 100.62 C-177.41 100.12 -176.69 99.62 -175.95 99.1 C-174 98 -174 98 -171 98 C-171 97.34 -171 96.68 -171 96 C-170.17 95.84 -170.17 95.84 -166 95 C-166 94.34 -166 93.68 -166 93 C-163.09 90.96 -161.6 90 -158 90 C-157.67 89.34 -157.34 88.68 -157 88 C-154.94 87.38 -154.94 87.38 -153 87 C-153 86.34 -153 85.68 -153 85 C-152.2 84.63 -151.39 84.26 -150.56 83.88 C-146.87 82.05 -143.59 79.7 -140.25 77.3 C-137.81 75.89 -135.77 75.4 -133 75 C-133 74.34 -133 73.68 -133 73 C-131.91 72.4 -130.83 71.79 -129.71 71.17 C-128.27 70.36 -126.82 69.56 -125.38 68.75 C-124.66 68.35 -123.95 67.96 -123.21 67.55 C-119.01 65.2 -115 62.69 -111 60 C-108.67 58.56 -106.31 57.18 -103.94 55.81 C-103.34 55.46 -102.74 55.1 -102.12 54.74 C-98.77 52.8 -95.85 51.49 -92 51 C-92 50.34 -92 49.68 -92 49 C-91.11 48.49 -90.21 47.98 -89.29 47.46 C-78.32 41.22 -78.32 41.22 -73.12 38.06 C-68.28 35.13 -63.34 32.37 -58.4 29.61 C-52.46 26.29 -46.6 22.85 -40.76 19.36 C-30.05 13 -30.05 13 -27 13 C-26.67 12.34 -26.34 11.68 -26 11 C-23.6 9.62 -21.21 8.32 -18.75 7.06 C-17.41 6.37 -16.07 5.67 -14.73 4.97 C-14.41 4.81 -14.41 4.81 -12.78 3.97 C-11 3 -11 3 -8.39 1.25 C-5.43 -0.29 -3.29 -0.09 0 0 Z " fill="#421BC5" transform="translate(943,448)"/>
<path d="M0 0 C4.07 2.07 6.35 3.75 8 8 C8.19 13.12 7.38 18.04 4 22 C-0.72 25.26 -5.42 25.95 -11 25 C-14.34 22.94 -15.83 21.26 -18 18 C-18.46 13.27 -18.51 10.99 -16.31 6.75 C-11.34 0.84 -7.74 -1.36 0 0 Z " fill="#281083" transform="translate(418,850)"/>
<path d="M0 0 C0.9 0 1.79 0.01 2.71 0.01 C3.18 0.01 3.18 0.01 5.55 0.04 C6.5 0.04 7.44 0.04 8.42 0.05 C10.76 0.06 13.09 0.08 15.43 0.1 C15.22 10.83 15.22 10.83 12.37 14.54 C6.31 19.82 1.08 21.9 -7.07 21.54 C-9.57 21.1 -9.57 21.1 -12.82 19.16 C-14.92 15.49 -15.12 13.43 -14.43 9.32 C-12.09 3.25 -6.22 -0.04 0 0 Z " fill="#F0EDF7" transform="translate(340.5703125,931.90234375)"/>
<path d="M0 0 C3.2 1.72 4.98 3.16 7.01 6.2 C7.01 10.16 7.01 14.12 7.01 18.2 C-3.22 18.2 -13.45 18.2 -23.99 18.2 C-22.09 9.62 -20.84 5.52 -13.68 0.82 C-9.15 -1.52 -4.77 -1.92 0 0 Z " fill="#EDEAF4" transform="translate(538.9921875,900.80078125)"/>
<path d="M0 0 C3.79 2.04 7.05 4.1 9 8 C9.42 11.86 9.24 15.29 8 19 C-1.9 19 -11.8 19 -22 19 C-20.74 11.45 -17.9 7.63 -12.31 2.56 C-8.23 -0.19 -4.84 -0.41 0 0 Z " fill="#F3ECFC" transform="translate(896,900)"/>
<path d="M0 0 C4.4 2.28 4.4 2.28 6 5 C7 10.15 6.86 14.44 4.31 19.06 C0.73 22.06 -1.88 22.86 -6.5 23.44 C-10.93 22.88 -12.24 21.41 -15 18 C-16.75 14.51 -15.84 10.72 -15 7 C-11.21 1.07 -7.03 -1.22 0 0 Z " fill="#834FF1" transform="translate(1049,944)"/>
<path d="M0 0 C0.66 0.16 0.66 0.16 4 1 C-4.07 6.81 -12.39 12.18 -20.75 17.56 C-34.35 26.29 -47.86 35.13 -61.21 44.23 C-61.77 44.61 -62.32 44.98 -62.88 45.37 C-65.65 47.25 -68.41 49.14 -71.17 51.02 C-91.93 65.19 -91.93 65.19 -105 64 C-115.72 60.74 -125.35 52.46 -134.5 46.19 C-141.5 41.4 -148.52 36.64 -155.59 31.96 C-156.22 31.55 -156.84 31.14 -157.48 30.71 C-160.51 28.71 -163.54 26.71 -166.58 24.71 C-167.67 23.99 -168.75 23.28 -169.88 22.54 C-170.84 21.9 -171.81 21.26 -172.8 20.61 C-175 19 -175 19 -176 17 C-172.84 18.18 -169.79 19.54 -166.75 21 C-166.06 21.33 -165.38 21.66 -164.67 22 C-163 23 -163 23 -162 25 C-161.01 25.33 -160.02 25.66 -159 26 C-158.57 26.45 -158.13 26.91 -157.69 27.38 C-155.41 29.57 -152.84 30.67 -150 32 C-150 32.66 -150 33.32 -150 34 C-149.01 34 -148.02 34 -147 34 C-145.98 34.98 -144.98 35.98 -144 37 C-141.4 38.61 -138.75 40.1 -136.08 41.6 C-135.39 42.06 -134.71 42.52 -134 43 C-134 43.66 -134 44.32 -134 45 C-133.3 45.27 -132.6 45.54 -131.88 45.81 C-127.26 47.72 -123.53 49.47 -120 53 C-118.3 54.01 -116.6 55.02 -114.86 55.95 C-113 57 -113 57 -109.94 59.25 C-103.48 63 -94 61.62 -87 60 C-87 59.34 -87 58.68 -87 58 C-84.99 56.63 -84.99 56.63 -82.31 55.12 C-79.54 53.52 -77 52 -74.5 50 C-64.5 42 -64.5 42 -60 42 C-60 41.34 -60 40.68 -60 40 C-55.62 37 -55.62 37 -53 37 C-53 36.34 -53 35.68 -53 35 C-52.01 35 -51.02 35 -50 35 C-50 34.34 -50 33.68 -50 33 C-48.23 31.77 -48.23 31.77 -45.75 30.38 C-40.48 27.33 -35.48 23.99 -30.47 20.54 C-28 19 -28 19 -26 19 C-26 18.34 -26 17.68 -26 17 C-25.09 16.49 -24.19 15.98 -23.25 15.46 C-16.89 11.87 -10.65 8.25 -4.67 4.03 C-3 3 -3 3 -1 3 C-0.67 2.01 -0.34 1.02 0 0 Z " fill="#4D29C7" transform="translate(727,572)"/>
<path d="M0 0 C4.3 1.33 8.17 2.98 12.16 5.05 C12.73 5.35 13.31 5.65 13.9 5.96 C15.77 6.92 17.63 7.9 19.5 8.88 C20.81 9.56 22.12 10.24 23.43 10.92 C31.97 15.37 40.45 19.93 48.89 24.58 C55.71 28.32 62.59 31.93 69.5 35.5 C77.77 39.78 86.01 44.11 94.19 48.56 C95.09 49.05 95.99 49.54 96.92 50.04 C111.06 57.77 111.06 57.77 114 64 C114.32 68.39 113.87 71.71 111.38 75.39 C108.63 78.4 105.69 80.15 102.12 81.99 C101.79 82.16 101.79 82.16 100.13 83.04 C98.75 83.77 97.37 84.49 95.99 85.21 C93.87 86.32 91.76 87.43 89.64 88.56 C88.3 89.26 86.96 89.97 85.62 90.68 C84.98 91.01 84.35 91.34 83.7 91.69 C79.23 94 79.23 94 77 94 C77 93.34 77 92.68 77 92 C78.65 91.67 80.3 91.34 82 91 C82 90.34 82 89.68 82 89 C88.5 85 88.5 85 93 85 C93 84.34 93 83.68 93 83 C93.65 82.69 94.3 82.37 94.98 82.05 C106.69 76.31 106.69 76.31 110 73 C110.07 70.81 110.08 68.62 110.06 66.44 C110.05 65.24 110.04 64.04 110.04 62.81 C110.02 61.88 110.01 60.95 110 60 C109.27 59.72 108.54 59.43 107.78 59.14 C105.27 58.11 102.89 56.97 100.48 55.71 C99.63 55.27 98.78 54.83 97.91 54.37 C97.01 53.9 96.11 53.42 95.19 52.94 C94.26 52.45 93.32 51.96 92.37 51.46 C86 48.1 79.72 44.63 73.47 41.07 C68.72 38.37 63.88 35.89 58.97 33.48 C53.58 30.79 48.29 27.89 43 25 C43 24.34 43 23.68 43 23 C42.4 22.81 41.79 22.61 41.17 22.41 C40.37 22.15 39.57 21.89 38.75 21.62 C37.96 21.37 37.17 21.11 36.36 20.85 C34.13 20.05 32.09 19.1 30 18 C30 17.34 30 16.68 30 16 C29.01 15.83 29.01 15.83 24 15 C24 14.34 24 13.68 24 13 C22.93 12.71 21.86 12.42 20.75 12.12 C17.91 11.27 15.56 10.44 13 9 C13 8.34 13 7.68 13 7 C12.13 6.71 11.27 6.42 10.38 6.12 C9.26 5.75 8.15 5.38 7 5 C6.45 4.85 6.45 4.85 3.69 4.06 C2.8 3.71 1.91 3.36 1 3 C0.67 2.01 0.34 1.02 0 0 Z " fill="#421FC3" transform="translate(887,342)"/>
<path d="M0 0 C5.09 0.85 6.95 1.25 11.02 3.77 C11.95 4.35 12.88 4.92 13.85 5.51 C14.33 5.82 14.33 5.82 16.81 7.38 C17.82 8 18.83 8.63 19.87 9.27 C22.92 11.17 25.96 13.08 29 15 C29.9 15.56 30.79 16.13 31.72 16.71 C34.11 18.21 36.49 19.73 38.88 21.25 C39.59 21.7 40.3 22.16 41.03 22.62 C45.88 25.76 45.88 25.76 47 28 C40.25 26.25 40.25 26.25 38 24 C36.68 23.14 35.35 22.31 34 21.5 C31.68 20.1 29.93 18.93 28 17 C26.28 16.25 24.55 15.51 22.82 14.79 C20.38 13.73 18.18 12.52 16 11 C16 10.34 16 9.68 16 9 C15.28 8.71 14.56 8.42 13.81 8.12 C11.21 7.08 8.6 6.04 6 5 C6 4.34 6 3.68 6 3 C5.67 3.16 5.67 3.16 4 4 C3.67 42.61 3.34 81.22 3 121 C2.01 120.67 1.02 120.34 0 120 C0 80.4 0 40.8 0 0 Z " fill="#7F56D8" transform="translate(377,535)"/>
<path d="M0 0 C0.33 0.16 0.33 0.16 2 1 C-7.78 6.19 -17.57 11.32 -27.49 16.24 C-32.19 18.57 -36.79 21.04 -41.38 23.58 C-46.19 26.19 -51.1 28.58 -56 31 C-65.38 35.64 -74.69 40.39 -83.94 45.29 C-89.51 48.23 -95.12 51.08 -100.77 53.87 C-109.92 58.42 -118.95 63.23 -128 68 C-128.99 67.34 -129.98 66.68 -131 66 C-130.31 65.66 -129.62 65.32 -128.91 64.97 C-105.83 53.5 -105.83 53.5 -95.62 48.06 C-87.75 43.87 -79.79 39.86 -71.81 35.88 C-71.2 35.57 -70.59 35.27 -69.97 34.95 C-64.4 32.18 -58.83 29.41 -53.25 26.64 C-45.9 22.99 -38.62 19.23 -31.37 15.37 C-9.69 3.84 -9.69 3.84 0 0 Z " fill="#A163F3" transform="translate(608,217)"/>
<path d="M0 0 C0.33 0.17 0.33 0.17 2 1 C2 1.66 2 2.32 2 3 C-0.33 4.58 -0.33 4.58 -3.61 6.46 C-3.9 6.63 -3.9 6.63 -5.38 7.48 C-6.65 8.22 -7.92 8.95 -9.19 9.67 C-12.55 11.59 -15.89 13.53 -19.23 15.47 C-19.57 15.67 -19.57 15.67 -21.26 16.65 C-29.45 21.4 -37.47 26.41 -45.5 31.44 C-48.98 33.61 -52.47 35.76 -55.96 37.92 C-64.63 43.27 -73.27 48.67 -81.87 54.13 C-83.3 55.04 -84.73 55.94 -86.16 56.83 C-87.73 57.83 -89.29 58.86 -90.84 59.9 C-91.56 60.26 -92.27 60.63 -93 61 C-93.99 60.67 -94.98 60.34 -96 60 C-95.5 59.84 -95.5 59.84 -93 59 C-92.67 58.34 -92.34 57.68 -92 57 C-91.34 56.86 -90.68 56.71 -90 56.56 C-89.34 56.38 -88.68 56.19 -88 56 C-87.67 55.01 -87.34 54.02 -87 53 C-85.03 51.82 -85.03 51.82 -82.5 50.69 C-76.41 47.79 -71.06 44.14 -65.54 40.29 C-65.14 40.01 -65.14 40.01 -63.12 38.62 C-62.41 38.12 -61.69 37.62 -60.95 37.1 C-59 36 -59 36 -56 36 C-56 35.34 -56 34.68 -56 34 C-55.17 33.84 -55.17 33.84 -51 33 C-51 32.34 -51 31.68 -51 31 C-48.09 28.96 -46.6 28 -43 28 C-42.67 27.34 -42.34 26.68 -42 26 C-39.94 25.38 -39.94 25.38 -38 25 C-38 24.34 -38 23.68 -38 23 C-37.6 22.81 -37.6 22.81 -35.56 21.88 C-31.87 20.05 -28.59 17.7 -25.25 15.3 C-22.81 13.89 -20.77 13.4 -18 13 C-18 12.34 -18 11.68 -18 11 C-16.87 10.37 -15.74 9.75 -14.57 9.1 C-13.09 8.28 -11.61 7.45 -10.12 6.62 C-9.75 6.42 -9.75 6.42 -7.86 5.38 C-7.15 4.98 -6.43 4.58 -5.7 4.16 C-5.37 3.98 -5.37 3.98 -3.7 3.05 C-2 2 -2 2 0 0 Z " fill="#4F28C8" transform="translate(828,510)"/>
<path d="M0 0 C0.99 0.16 0.99 0.16 6 1 C6 1.66 6 2.32 6 3 C7.65 3.33 9.3 3.66 11 4 C11 4.66 11 5.32 11 6 C11.66 6.25 12.32 6.5 13 6.75 C16.76 8.32 20.37 10.15 24 12 C24 12.66 24 13.32 24 14 C24.7 14.27 25.4 14.54 26.12 14.82 C29.16 16.07 32.07 17.47 35 18.94 C35.51 19.19 35.51 19.19 38.06 20.46 C43.45 23.28 43.45 23.28 46 25 C46 25.66 46 26.32 46 27 C47.65 27.33 49.3 27.66 51 28 C51 28.66 51 29.32 51 30 C52.09 30.27 53.19 30.54 54.31 30.81 C57.76 31.92 58.75 32.42 61 35 C61.99 35.33 62.98 35.66 64 36 C64 36.66 64 37.32 64 38 C65.13 38.27 66.27 38.54 67.44 38.81 C68.61 39.2 69.79 39.6 71 40 C71.33 40.99 71.66 41.98 72 43 C74.38 44.12 74.38 44.12 77 45 C77.5 45.16 77.5 45.16 80 46 C80 46.66 80 47.32 80 48 C80.7 48.25 81.4 48.5 82.12 48.75 C85.37 50.16 88.1 51.98 91 54 C88 55 88 55 85.64 53.87 C84.71 53.28 83.78 52.69 82.83 52.09 C81.78 51.44 80.74 50.78 79.66 50.11 C78.53 49.39 77.39 48.66 76.25 47.94 C75.07 47.2 73.89 46.46 72.71 45.72 C70.29 44.21 67.88 42.69 65.47 41.17 C60.55 38.09 55.59 35.07 50.62 32.06 C48.76 30.93 46.89 29.79 45.03 28.66 C44.07 28.08 43.11 27.5 42.12 26.9 C39.27 25.17 36.43 23.44 33.58 21.71 C31.06 20.18 28.55 18.65 26.03 17.12 C24.82 16.39 23.61 15.65 22.4 14.92 C20.7 13.88 19 12.85 17.29 11.81 C16.23 11.17 15.17 10.52 14.08 9.86 C12.06 8.64 10.03 7.43 7.99 6.24 C7.08 5.71 6.17 5.17 5.24 4.62 C4.44 4.16 3.64 3.7 2.82 3.23 C1 2 1 2 0 0 Z " fill="#5A35CB" transform="translate(434,517)"/>
<path d="M0 0 C-1.46 0.84 -2.91 1.67 -4.38 2.5 C-5.19 2.96 -6 3.43 -6.84 3.91 C-9 5 -9 5 -11 5 C-11 5.66 -11 6.32 -11 7 C-12.32 7 -13.64 7 -15 7 C-15 7.66 -15 8.32 -15 9 C-16.98 9.33 -18.96 9.66 -21 10 C-21 10.66 -21 11.32 -21 12 C-23.97 12.99 -26.94 13.98 -30 15 C-30 15.66 -30 16.32 -30 17 C-30.99 17.17 -30.99 17.17 -36 18 C-36.17 18.5 -36.17 18.5 -37 21 C-39.65 22.39 -39.65 22.39 -42.94 23.69 C-44.02 24.12 -45.1 24.56 -46.21 25.01 C-49 26 -49 26 -51 26 C-51 26.66 -51 27.32 -51 28 C-52.41 28.84 -53.83 29.67 -55.25 30.5 C-56.04 30.96 -56.83 31.43 -57.64 31.91 C-60 33 -60 33 -64 33 C-64 33.66 -64 34.32 -64 35 C-67.62 37.03 -71.25 39.05 -74.88 41.06 C-75.91 41.64 -76.94 42.22 -78 42.82 C-78.99 43.37 -79.98 43.91 -80.99 44.47 C-81.45 44.73 -81.45 44.73 -83.75 46.01 C-84.49 46.34 -85.24 46.66 -86 47 C-86.66 46.67 -87.32 46.34 -88 46 C-88 45.34 -88 44.68 -88 44 C-87.36 43.67 -86.72 43.34 -86.05 43 C-74.83 37.21 -63.63 31.4 -52.56 25.31 C-42.72 19.9 -32.8 14.63 -22.88 9.38 C-22.5 9.17 -22.5 9.17 -20.57 8.16 C-18.4 7.01 -16.23 5.86 -14.05 4.71 C-13.4 4.37 -12.75 4.02 -12.08 3.66 C-10.39 2.77 -8.69 1.89 -7 1 C-6.26 0.57 -5.51 0.15 -4.75 -0.29 C-3 -1 -3 -1 0 0 Z " fill="#512ACA" transform="translate(366,344)"/>
<path d="M0 0 C4.3 1.33 8.17 2.98 12.16 5.05 C12.73 5.35 13.31 5.65 13.9 5.96 C15.77 6.92 17.63 7.9 19.5 8.88 C20.81 9.56 22.12 10.24 23.43 10.92 C31.96 15.36 40.42 19.91 48.84 24.55 C59.79 30.57 70.9 36.28 82 42 C81.84 42.33 81.84 42.33 81 44 C77.85 43.34 75.31 42.24 72.47 40.74 C71.6 40.28 70.73 39.83 69.84 39.35 C69.38 39.11 69.38 39.11 67.06 37.88 C66.13 37.38 65.19 36.89 64.23 36.38 C57.13 32.62 50.05 28.83 43 25 C43 24.34 43 23.68 43 23 C42.4 22.81 41.79 22.61 41.17 22.41 C40.37 22.15 39.57 21.89 38.75 21.62 C37.96 21.37 37.17 21.11 36.36 20.85 C34.13 20.05 32.09 19.1 30 18 C30 17.34 30 16.68 30 16 C29.01 15.83 29.01 15.83 24 15 C24 14.34 24 13.68 24 13 C22.93 12.71 21.86 12.42 20.75 12.12 C17.91 11.27 15.56 10.44 13 9 C13 8.34 13 7.68 13 7 C12.13 6.71 11.27 6.42 10.38 6.12 C9.26 5.75 8.15 5.38 7 5 C6.45 4.85 6.45 4.85 3.69 4.06 C2.8 3.71 1.91 3.36 1 3 C0.67 2.01 0.34 1.02 0 0 Z " fill="#4A22C7" transform="translate(887,342)"/>
<path d="M0 0 C4.65 0.63 4.65 0.63 6.28 2.34 C8.64 4.61 11.25 5.77 14.19 7.19 C15.27 7.72 16.36 8.25 17.48 8.79 C18.31 9.19 19.14 9.59 20 10 C20 10.66 20 11.32 20 12 C20.4 12.03 20.4 12.03 22.45 12.19 C27.17 13.27 30.76 15.45 34.88 17.94 C35.27 18.17 35.27 18.17 37.25 19.32 C41.52 21.86 41.52 21.86 43 23 C43 23.66 43 24.32 43 25 C45.97 25.99 48.94 26.98 52 28 C52 28.66 52 29.32 52 30 C54.97 30.99 57.94 31.98 61 33 C61 33.66 61 34.32 61 35 C62.65 35.33 64.3 35.66 66 36 C66 36.66 66 37.32 66 38 C68.97 38.99 71.94 39.98 75 41 C75 41.33 75 41.66 75 42 C68.46 41.61 64.05 39.09 58.5 35.75 C56.63 34.65 54.75 33.55 52.88 32.46 C51.91 31.89 50.95 31.32 49.95 30.73 C45.14 27.91 40.29 25.17 35.44 22.44 C34.49 21.9 33.54 21.37 32.57 20.82 C23.09 15.47 13.55 10.22 4 5 C4 4.34 4 3.68 4 3 C2 1.38 2 1.38 0 0 Z " fill="#4E29C4" transform="translate(336,460)"/>
<path d="M0 0 C0.66 0 1.32 0 2 0 C2.33 27.72 2.66 55.44 3 84 C3.33 84 3.66 84 4 84 C4.05 84.93 4.1 85.85 4.15 86.81 C4.19 87.41 4.19 87.41 4.38 90.44 C4.44 91.63 4.51 92.83 4.59 94.06 C4.72 95.03 4.86 96 5 97 C5.66 97.33 6.32 97.66 7 98 C7 97.34 7 96.68 7 96 C11.29 96.33 15.58 96.66 20 97 C18 99 18 99 15.86 99.05 C15.44 99.03 15.44 99.03 13.31 98.88 C8.27 98.79 5.03 100.01 1 103 C0.64 103.26 0.64 103.26 -1.21 104.6 C-3.16 106.04 -5.09 107.51 -7 109 C-7 108.01 -7 107.02 -7 106 C-5.5 104.74 -5.5 104.74 -3.55 103.43 C-1.37 101.63 -0.18 100.59 0.65 97.86 C0.86 95.26 0.87 92.74 0.79 90.14 C0.8 89.16 0.8 88.19 0.8 87.18 C0.79 83.97 0.74 80.75 0.68 77.54 C0.67 75.31 0.66 73.07 0.65 70.84 C0.63 64.97 0.56 59.1 0.48 53.23 C0.41 47.24 0.38 41.25 0.34 35.25 C0.27 23.5 0.15 11.75 0 0 Z " fill="#8668DE" transform="translate(938,450)"/>
<path d="M0 0 C0.33 0.16 0.33 0.16 2 1 C-3.9 4.98 -9.81 8.97 -15.71 12.95 C-17.72 14.3 -19.72 15.65 -21.72 17.01 C-32.13 24.03 -42.54 31.05 -53 38 C-54.7 39.14 -56.41 40.27 -58.11 41.41 C-62.41 44.27 -66.7 47.14 -71 50 C-71 49.01 -71 48.02 -71 47 C-69.46 45.68 -69.46 45.68 -67.32 44.37 C-66.55 43.89 -65.79 43.42 -65.01 42.92 C-64.2 42.43 -63.39 41.94 -62.56 41.44 C-60.98 40.46 -59.4 39.48 -57.82 38.5 C-57.11 38.06 -56.4 37.63 -55.67 37.19 C-54 36 -54 36 -53 34 C-51.66 33.18 -50.27 32.42 -48.88 31.69 C-45.77 30.02 -42.89 28.28 -40.06 26.19 C-37 24 -37 24 -35 24 C-35 23.34 -35 22.68 -35 22 C-34.03 21.55 -33.06 21.09 -32.06 20.62 C-29 19 -29 19 -28 17 C-27.01 17 -26.02 17 -25 17 C-25 16.34 -25 15.68 -25 15 C-24.46 14.75 -23.91 14.49 -23.36 14.23 C-22.64 13.89 -21.92 13.54 -21.19 13.19 C-20.48 12.85 -19.77 12.51 -19.04 12.17 C-16.98 10.99 -15.65 9.68 -14 8 C-12.34 7.33 -10.67 6.66 -9 6 C-8.67 5.34 -8.34 4.68 -8 4 C-6.22 2.89 -6.22 2.89 -4.06 1.81 C-3.35 1.45 -2.64 1.08 -1.91 0.71 C-1.28 0.47 -0.65 0.24 0 0 Z " fill="#4925CD" transform="translate(820,704)"/>
<path d="M0 0 C0.33 0 0.66 0 1 0 C1 37.95 1 75.9 1 115 C2.65 115.66 4.3 116.32 6 117 C5.67 117.99 5.34 118.98 5 120 C4.34 120 3.68 120 3 120 C3 119.01 3 118.02 3 117 C2.01 117 1.02 117 0 117 C-0.66 116.01 -1.32 115.02 -2 114 C-4.12 112.81 -4.12 112.81 -6 112 C-5.01 112 -4.02 112 -3 112 C-2.67 111.01 -2.34 110.02 -2 109 C-1.67 109 -1.34 109 -1 109 C-0.67 73.03 -0.34 37.06 0 0 Z " fill="#826AD7" transform="translate(964,436)"/>
<path d="M0 0 C4.69 1.43 8.99 3.36 13.36 5.56 C14.05 5.91 14.75 6.26 15.46 6.62 C17.71 7.74 19.95 8.87 22.19 10 C23.73 10.77 25.27 11.55 26.81 12.32 C37.03 17.46 47.18 22.7 57.27 28.09 C59.83 29.44 62.41 30.72 65 32 C63.41 32.69 63.41 32.69 61 33 C58.68 32.08 56.62 31.11 54.44 29.94 C54.1 29.76 54.1 29.76 52.4 28.88 C50.84 28.07 49.29 27.26 47.73 26.44 C43.44 24.18 39.12 21.95 34.81 19.72 C32.49 18.52 30.17 17.31 27.85 16.1 C21.44 12.76 15.01 9.49 8.53 6.3 C5.48 4.73 2.74 3.05 0 1 C0 0.67 0 0.34 0 0 Z " fill="#9A60F0" transform="translate(714,252)"/>
<path d="M0 0 C0.33 0 0.66 0 1 0 C1.14 17.36 0.81 34.66 0 52 C-0.5 52.16 -0.5 52.16 -3 53 C-3.24 41.27 -2.49 29.74 -1.5 18.06 C-1.35 16.3 -1.21 14.54 -1.07 12.78 C-0.72 8.52 -0.36 4.26 0 0 Z " fill="#8F63E8" transform="translate(938,696)"/>
<path d="M0 0 C0.66 0.33 1.32 0.66 2 1 C-7.78 6.19 -17.57 11.33 -27.49 16.23 C-31.31 18.13 -35.08 20.11 -38.81 22.19 C-44.07 25.11 -49.49 27.59 -55 30 C-55.66 29.34 -56.32 28.68 -57 28 C-56.42 27.73 -56.42 27.73 -53.51 26.38 C-45.07 22.44 -36.72 18.39 -28.5 14 C-21.87 10.47 -15.2 7.07 -8.44 3.81 C-7.62 3.41 -6.81 3.01 -5.96 2.6 C-4.01 1.67 -2.01 0.83 0 0 Z " fill="#AB6FF6" transform="translate(608,217)"/>
<path d="M0 0 C0.33 0 0.66 0 1 0 C2.73 16.32 4.4 32.59 5 49 C4.01 49 3.02 49 2 49 C0.72 32.64 -0.34 16.41 0 0 Z " fill="#986AEE" transform="translate(966,700)"/>
<path d="M0 0 C3.88 0.58 6.59 1.72 9.92 3.77 C10.86 4.35 11.79 4.92 12.76 5.51 C13.25 5.82 13.25 5.82 15.75 7.38 C16.76 8 17.78 8.63 18.82 9.27 C21.89 11.17 24.95 13.08 28 15 C28.45 15.28 28.45 15.28 30.72 16.71 C33.11 18.21 35.49 19.73 37.88 21.25 C38.23 21.48 38.23 21.48 40.03 22.62 C44.88 25.76 44.88 25.76 46 28 C39.25 26.25 39.25 26.25 37 24 C35.68 23.14 34.35 22.31 33 21.5 C30.68 20.1 28.93 18.93 27 17 C25.28 16.25 23.55 15.51 21.82 14.79 C19.38 13.73 17.18 12.52 15 11 C15 10.34 15 9.68 15 9 C14.28 8.71 13.56 8.42 12.81 8.12 C10.21 7.08 7.6 6.04 5 5 C5 4.34 5 3.68 5 3 C3.35 2.67 1.7 2.34 0 2 C0 1.34 0 0.68 0 0 Z " fill="#4A1ECB" transform="translate(378,535)"/>
<path d="M0 0 C0.66 0.33 1.32 0.66 2 1 C-6.4 7.24 -14.87 13.37 -23.44 19.38 C-24.26 19.96 -25.09 20.54 -25.94 21.14 C-30.87 24.59 -35.87 27.86 -41 31 C-40.69 29.06 -40.69 29.06 -40 27 C-39.01 26.67 -38.02 26.34 -37 26 C-36.67 25.34 -36.34 24.68 -36 24 C-34.78 23.29 -33.52 22.63 -32.25 22 C-27.17 19.29 -22.81 15.9 -18.34 12.3 C-14.2 9 -14.2 9 -12 9 C-12 8.34 -12 7.68 -12 7 C-11.39 6.66 -10.77 6.32 -10.14 5.98 C-9.33 5.53 -8.52 5.08 -7.69 4.62 C-6.89 4.18 -6.09 3.74 -5.26 3.29 C-3.46 2.26 -1.72 1.15 0 0 Z " fill="#512BD2" transform="translate(744,755)"/>
<path d="M0 0 C0.66 0 1.32 0 2 0 C0.7 3.89 -1.63 5.11 -4.88 7.31 C-6.14 8.19 -7.41 9.08 -8.68 9.96 C-9.37 10.45 -10.06 10.93 -10.77 11.42 C-15.72 14.92 -20.56 18.56 -25.43 22.18 C-37.34 31 -37.34 31 -40 31 C-38.76 27.29 -37.24 26.88 -33.91 25.12 C-31.97 23.98 -30.38 22.73 -28.69 21.25 C-26 19 -26 19 -24 19 C-24 18.34 -24 17.68 -24 17 C-17.38 13.12 -17.38 13.12 -14 12 C-14 11.34 -14 10.68 -14 10 C-11.88 8.4 -9.77 6.9 -7.56 5.44 C-1.06 1.06 -1.06 1.06 0 0 Z " fill="#4F2BD1" transform="translate(699,786)"/>
<path d="M0 0 C0.66 0.33 1.32 0.66 2 1 C-0.63 4.07 -3.73 5.52 -7.31 7.31 C-12.49 10.06 -16.43 12.33 -20 17 C-20.88 20.38 -20.88 20.38 -21 23 C-21.66 23 -22.32 23 -23 23 C-23.49 15.84 -23.49 15.84 -21.59 12.57 C-17.97 8.98 -13.89 6.92 -9.38 4.62 C-8.5 4.16 -7.63 3.7 -6.73 3.22 C-1.95 0.74 -1.95 0.74 0 0 Z " fill="#3E1EBE" transform="translate(277,389)"/>
<path d="M0 0 C0 3 0 3 -2.56 5.62 C-7.43 9.61 -12.91 12.64 -18.32 15.81 C-22.1 18.03 -25.7 20.46 -29.27 23 C-31 24 -31 24 -34 24 C-34 23.34 -34 22.68 -34 22 C-33.01 22 -32.02 22 -31 22 C-31 21.34 -31 20.68 -31 20 C-30.01 20 -29.02 20 -28 20 C-28 19.34 -28 18.68 -28 18 C-26.93 17.59 -25.86 17.17 -24.75 16.75 C-21.44 15.35 -19.47 13.64 -17 11 C-14.3 9.37 -13.22 9 -10 9 C-10 8.34 -10 7.68 -10 7 C-9.34 7 -8.68 7 -8 7 C-7.67 6.34 -7.34 5.68 -7 5 C-6.34 5 -5.68 5 -5 5 C-3.29 3.37 -1.62 1.71 0 0 Z " fill="#4522C6" transform="translate(871,670)"/>
<path d="M0 0 C-1.46 0.84 -2.91 1.67 -4.38 2.5 C-5.19 2.96 -6 3.43 -6.84 3.91 C-9 5 -9 5 -11 5 C-11 5.66 -11 6.32 -11 7 C-12.32 7 -13.64 7 -15 7 C-15 7.66 -15 8.32 -15 9 C-16.98 9.33 -18.96 9.66 -21 10 C-21 10.66 -21 11.32 -21 12 C-22.49 12.5 -22.49 12.5 -30 15 C-30 15.66 -30 16.32 -30 17 C-31.32 16.34 -32.64 15.68 -34 15 C-29.65 12.69 -25.29 10.39 -20.92 8.11 C-19.44 7.33 -17.95 6.55 -16.47 5.76 C-14.34 4.63 -12.21 3.52 -10.07 2.4 C-9.41 2.05 -8.75 1.69 -8.07 1.33 C-3.34 -1.11 -3.34 -1.11 0 0 Z " fill="#5C2FD0" transform="translate(366,344)"/>
<path d="M0 0 C0.66 0.33 1.32 0.66 2 1 C1.01 1.33 0.02 1.66 -1 2 C-1 2.66 -1 3.32 -1 4 C-4.62 6.03 -8.25 8.05 -11.88 10.06 C-12.91 10.64 -13.94 11.22 -15 11.82 C-15.99 12.37 -16.98 12.91 -17.99 13.47 C-18.9 13.98 -19.81 14.49 -20.75 15.01 C-21.49 15.34 -22.24 15.66 -23 16 C-23.66 15.67 -24.32 15.34 -25 15 C-25 14.34 -25 13.68 -25 13 C-21.48 11.12 -17.96 9.25 -14.43 7.39 C-13.23 6.76 -12.03 6.12 -10.83 5.48 C-9.11 4.56 -7.39 3.65 -5.66 2.75 C-4.63 2.2 -3.59 1.65 -2.52 1.08 C-1.69 0.72 -0.86 0.37 0 0 Z " fill="#441FC5" transform="translate(303,375)"/>
<path d="M0 0 C4.57 1.39 8.72 3.26 12.93 5.48 C13.56 5.81 14.2 6.14 14.85 6.48 C16.86 7.52 18.87 8.57 20.88 9.62 C22.24 10.34 23.61 11.05 24.98 11.77 C28.33 13.51 31.66 15.25 35 17 C34.67 17.66 34.34 18.32 34 19 C32.68 18.67 31.36 18.34 30 18 C30 17.34 30 16.68 30 16 C29.01 15.83 29.01 15.83 24 15 C24 14.34 24 13.68 24 13 C22.93 12.71 21.86 12.42 20.75 12.12 C17.91 11.27 15.56 10.44 13 9 C13 8.34 13 7.68 13 7 C12.13 6.71 11.27 6.42 10.38 6.12 C9.26 5.75 8.15 5.38 7 5 C6.45 4.85 6.45 4.85 3.69 4.06 C2.8 3.71 1.91 3.36 1 3 C0.67 2.01 0.34 1.02 0 0 Z " fill="#5227CC" transform="translate(887,342)"/>
<path d="M0 0 C0.33 0 0.66 0 1 0 C1 12.87 1 25.74 1 39 C2.65 39.66 4.3 40.32 6 41 C5.67 41.99 5.34 42.98 5 44 C4.34 44 3.68 44 3 44 C3 43.01 3 42.02 3 41 C2.01 41 1.02 41 0 41 C-0.66 40.01 -1.32 39.02 -2 38 C-4.12 36.81 -4.12 36.81 -6 36 C-5.01 36 -4.02 36 -3 36 C-2.67 35.01 -2.34 34.02 -2 33 C-1.67 33 -1.34 33 -1 33 C-0.67 22.11 -0.34 11.22 0 0 Z " fill="#9476DF" transform="translate(964,512)"/>
<path d="M0 0 C0.66 0 1.32 0 2 0 C2.68 3.29 3.34 6.58 4 9.88 C4.19 10.79 4.38 11.71 4.58 12.66 C5.8 18.85 6.25 24.69 6 31 C4.35 28.01 3.54 25.33 2.93 21.97 C2.76 21.02 2.58 20.06 2.4 19.07 C2.23 18.08 2.05 17.09 1.88 16.06 C1.69 15.07 1.51 14.08 1.32 13.06 C0.53 8.64 -0.1 4.51 0 0 Z " fill="#5134C9" transform="translate(979,636)"/>
<path d="M0 0 C0.97 -0 1.93 -0.01 2.93 -0.01 C3.43 -0.01 3.43 -0.01 5.96 0.02 C6.97 0.01 7.98 0 9.01 -0.01 C9.98 -0.01 10.94 -0 11.94 0 C12.82 0 13.7 0.01 14.61 0.01 C16.9 0.4 16.9 0.4 19.9 3.4 C10.33 3.4 0.76 3.4 -9.1 3.4 C-5.09 0.4 -4.59 0.02 0 0 Z " fill="#6942D4" transform="translate(947.09765625,747.6015625)"/>
<path d="M0 0 C2.49 3.74 2.11 7.28 1.75 11.56 C1.71 12.23 1.67 12.91 1.63 13.6 C1.37 17.18 1.03 18.95 -1 22 C-2.15 18.54 -2.17 15.77 -2.19 12.12 C-2.2 10.91 -2.22 9.7 -2.23 8.45 C-2.01 5.16 -1.42 2.95 0 0 Z " fill="#7E4FDF" transform="translate(926,563)"/>
<path d="M0 0 C8.58 0 17.16 0 26 0 C25.67 0.99 25.34 1.98 25 3 C16.75 2.67 8.5 2.34 0 2 C0 1.34 0 0.68 0 0 Z " fill="#301F86" transform="translate(289,854)"/>
<path d="M0 0 C2.64 0.66 5.28 1.32 8 2 C8 2.66 8 3.32 8 4 C8.38 4.06 8.38 4.06 10.31 4.38 C13 5 13 5 16 7 C16 7.66 16 8.32 16 9 C18.31 9.66 20.62 10.32 23 11 C23 11.66 23 12.32 23 13 C17.72 12.48 13.7 9.74 9.25 7.06 C8.47 6.61 7.69 6.15 6.89 5.68 C1.13 2.26 1.13 2.26 0 0 Z " fill="#5530C9" transform="translate(410,503)"/>
<path d="M0 0 C-2.96 3.43 -5.82 4.79 -10.34 5.23 C-15.64 5.4 -19.45 5.03 -24 2 C-24.33 1.34 -24.66 0.68 -25 0 C-23.99 0.33 -22.98 0.66 -21.94 1 C-15.33 2.84 -10.21 1.99 -3.92 -0.44 C-2 -1 -2 -1 0 0 Z " fill="#5736D3" transform="translate(643,830)"/>
<path d="M0 0 C4.27 0.55 7.57 1.55 11.4 3.5 C12.37 4 13.34 4.49 14.35 5 C15.35 5.51 16.35 6.03 17.38 6.56 C18.4 7.08 19.42 7.6 20.47 8.14 C22.99 9.42 25.49 10.71 28 12 C24.54 13.16 24.04 13.02 20.39 11.49 C19 10.78 17.62 10.05 16.25 9.31 C15.91 9.14 15.91 9.14 14.2 8.24 C12.83 7.53 11.46 6.82 10.1 6.1 C6.75 4.35 3.38 2.68 0 1 C0 0.67 0 0.34 0 0 Z " fill="#8A51E9" transform="translate(751,272)"/>
<path d="M0 0 C-7.89 4.28 -15.72 8.51 -24 12 C-24.66 11.34 -25.32 10.68 -26 10 C-22.43 8.13 -18.84 6.28 -15.25 4.44 C-14.74 4.17 -14.74 4.17 -12.17 2.82 C-11.19 2.32 -10.21 1.82 -9.2 1.31 C-8.3 0.84 -7.4 0.38 -6.47 -0.1 C-3.77 -1.08 -2.64 -1.02 0 0 Z " fill="#975EEF" transform="translate(503,273)"/>
<path d="M0 0 C3.45 0.63 5.71 1.99 8.56 4 C11.13 5.8 13.01 7 16 8 C16 8.66 16 9.32 16 10 C16.76 10.27 17.53 10.54 18.31 10.81 C20.87 11.94 22.2 12.91 24 15 C20.26 14.44 17.74 13.45 14.61 11.35 C13.82 10.82 13.03 10.29 12.21 9.74 C11.4 9.19 10.59 8.63 9.75 8.06 C8.92 7.51 8.09 6.96 7.24 6.39 C1.14 2.27 1.14 2.27 0 0 Z " fill="#5431C9" transform="translate(526,573)"/>
<path d="M0 0 C0.33 0.99 0.66 1.98 1 3 C-0.96 4.73 -2.92 6.46 -4.9 8.17 C-6.55 9.6 -8.18 11.05 -9.81 12.5 C-10.53 13 -11.26 13.49 -12 14 C-12.99 13.67 -13.98 13.34 -15 13 C-10.43 8.13 -5.25 4.11 0 0 Z " fill="#7440DE" transform="translate(646,688)"/>
<path d="M0 0 C4.36 1.35 8.31 3.05 12.38 5.12 C13.43 5.66 14.49 6.2 15.59 6.76 C16.38 7.17 17.18 7.58 18 8 C17.67 8.5 17.67 8.5 16 11 C15.44 10.69 14.89 10.37 14.31 10.05 C9.27 7.22 4.19 4.55 -1 2 C-0.67 1.34 -0.34 0.68 0 0 Z " fill="#7C46E1" transform="translate(800,296)"/>
<path d="M0 0 C-0.33 1.65 -0.66 3.3 -1 5 C-0.34 5.33 0.32 5.66 1 6 C-0.44 5.86 -1.88 5.71 -3.31 5.56 C-4.11 5.48 -4.91 5.4 -5.74 5.32 C-8 5 -8 5 -11 4 C-10.67 3.01 -10.34 2.02 -10 1 C-6.56 0.38 -3.51 0 0 0 Z " fill="#8A57F4" transform="translate(905,1011)"/>
<path d="M0 0 C0.33 0.66 0.66 1.32 1 2 C0.34 1.67 -0.32 1.34 -1 1 C-0.67 0.67 -0.34 0.34 0 0 Z M-3 1 C-2.34 1.66 -1.68 2.32 -1 3 C-3.97 6.3 -6.94 9.6 -10 13 C-11.32 12.67 -12.64 12.34 -14 12 C-10.37 8.37 -6.74 4.74 -3 1 Z " fill="#2E1A8B" transform="translate(274,872)"/>
<path d="M0 0 C0.33 0 0.66 0 1 0 C1.05 0.93 1.1 1.85 1.15 2.81 C1.22 4.01 1.3 5.2 1.38 6.44 C1.44 7.63 1.51 8.83 1.59 10.06 C1.72 11.03 1.86 12 2 13 C2.66 13.33 3.32 13.66 4 14 C4 13.34 4 12.68 4 12 C8.29 12.33 12.58 12.66 17 13 C15 15 15 15 12.83 15.12 C11.12 15.04 9.41 14.96 7.7 14.88 C5 15 5 15 -1 17 C-0.67 11.39 -0.34 5.78 0 0 Z " fill="#7A47E1" transform="translate(941,534)"/>
<path d="M0 0 C0 0.66 0 1.32 0 2 C-0.74 2.4 -1.47 2.8 -2.23 3.21 C-3.21 3.74 -4.18 4.27 -5.19 4.81 C-5.67 5.07 -5.67 5.07 -8.11 6.39 C-11 8 -11 8 -13.68 9.76 C-14.44 10.17 -15.21 10.58 -16 11 C-16.99 10.67 -17.98 10.34 -19 10 C-16.28 6.73 -12.68 5.14 -8.94 3.31 C-8.62 3.15 -8.62 3.15 -7.01 2.34 C-2.27 0 -2.27 0 0 0 Z " fill="#8D59E9" transform="translate(462,292)"/>
<path d="M0 0 C0.66 0 1.32 0 2 0 C1.67 6.93 1.34 13.86 1 21 C-1.45 17.32 -1.24 15.44 -1.19 11.06 C-1.18 9.84 -1.17 8.61 -1.17 7.35 C-1.03 4.69 -0.79 2.52 0 0 Z " fill="#8F5EF3" transform="translate(853,923)"/>
<path d="M0 0 C0.66 0 1.32 0 2 0 C2.33 2.31 2.66 4.62 3 7 C8.28 7.33 13.56 7.66 19 8 C19.33 6.68 19.66 5.36 20 4 C20 5.65 20 7.3 20 9 C13.73 9 7.46 9 1 9 C0.67 6.03 0.34 3.06 0 0 Z " fill="#382B8F" transform="translate(352,957)"/>
<path d="M0 0 C0.33 0 0.66 0 1 0 C0.67 7.59 0.34 15.18 0 23 C-0.33 23 -0.66 23 -1 23 C-1.33 21.02 -1.66 19.04 -2 17 C-2.33 17 -2.66 17 -3 17 C-3.17 12.63 -3.09 9.82 -1 6 C-0.62 4.01 -0.27 2.01 0 0 Z " fill="#663CD3" transform="translate(935,726)"/>
<path d="M0 0 C0.99 0.16 0.99 0.16 6 1 C6 1.66 6 2.32 6 3 C7.65 3.33 9.3 3.66 11 4 C11 4.66 11 5.32 11 6 C11.82 6.33 11.82 6.33 16 8 C14.36 8.71 14.36 8.71 12 9 C9.24 7.64 9.24 7.64 6.31 5.69 C5.34 5.05 4.37 4.42 3.36 3.76 C1 2 1 2 0 0 Z " fill="#552FC8" transform="translate(434,517)"/>
<path d="M0 0 C7.55 -0.3 14.59 0.57 22 2 C22 2.33 22 2.66 22 3 C14.34 3.19 7.34 3.35 0 1 C0 0.67 0 0.34 0 0 Z " fill="#7337F2" transform="translate(853,1010)"/>
<path d="M0 0 C0.33 0 0.66 0 1 0 C1.76 5.23 2.21 9.77 1 15 C0.67 15 0.34 15 0 15 C-0.33 16.98 -0.66 18.96 -1 21 C-1.33 21 -1.66 21 -2 21 C-2.28 13.83 -1.2 7.05 0 0 Z " fill="#623ED4" transform="translate(911,715)"/>
<path d="M0 0 C2.27 3.54 1.99 5.71 1.12 9.75 C0.92 10.73 0.72 11.72 0.51 12.73 C0.34 13.48 0.17 14.23 0 15 C-0.66 15 -1.32 15 -2 15 C-2.33 15.99 -2.66 16.98 -3 18 C-2.32 11.92 -1.26 5.99 0 0 Z " fill="#593FCA" transform="translate(925,626)"/>
<path d="M0 0 C-2.93 2.33 -5.89 4.05 -9.25 5.69 C-9.7 5.91 -9.7 5.91 -11.95 7.01 C-12.63 7.34 -13.3 7.66 -14 8 C-14.66 7.34 -15.32 6.68 -16 6 C-13.9 4.8 -11.8 3.61 -9.69 2.44 C-9.09 2.1 -8.5 1.75 -7.88 1.4 C-3.34 -1.11 -3.34 -1.11 0 0 Z " fill="#935AED" transform="translate(478,285)"/>
<path d="M0 0 C0.33 0 0.66 0 1 0 C2.03 4.41 2.04 6.93 0 11 C0.99 11.33 1.98 11.66 3 12 C1.35 13.65 -0.3 15.3 -2 17 C-1.86 15.1 -1.71 13.21 -1.56 11.31 C-1.48 10.26 -1.4 9.2 -1.32 8.11 C-1.04 5.35 -0.6 2.71 0 0 Z " fill="#D2CCE8" transform="translate(243,887)"/>
<path d="M0 0 C0.66 0 1.32 0 2 0 C1.04 12.67 1.04 12.67 0 18 C-2.61 14.17 -1.86 11.17 -1.12 6.75 C-0.92 5.49 -0.72 4.22 -0.51 2.92 C-0.34 1.96 -0.17 0.99 0 0 Z " fill="#8E63EE" transform="translate(980,874)"/>
<path d="M0 0 C0.33 0 0.66 0 1 0 C1.85 5.08 2.26 9.85 2 15 C1.34 15.66 0.68 16.32 0 17 C-0.99 16.67 -1.98 16.34 -3 16 C-2.34 15.67 -1.68 15.34 -1 15 C-1.01 14.25 -1.02 13.5 -1.04 12.73 C-1.04 12.24 -1.04 12.24 -1.06 9.75 C-1.07 8.78 -1.09 7.8 -1.1 6.8 C-1.01 4.34 -0.71 2.34 0 0 Z " fill="#5D37D1" transform="translate(994,725)"/>
<path d="M0 0 C1.51 1.21 1.51 1.21 3 3 C3.14 5.19 3.14 5.19 2.81 7.56 C2.72 8.35 2.62 9.13 2.52 9.94 C2 12 2 12 0 14 C-1.42 11.16 -0.86 9.01 -0.56 5.88 C-0.46 4.78 -0.36 3.68 -0.25 2.55 C-0.17 1.71 -0.09 0.87 0 0 Z " fill="#4C31C1" transform="translate(998,403)"/>
<path d="M0 0 C0.99 0.66 1.98 1.32 3 2 C1.4 3.03 -0.2 4.05 -1.81 5.06 C-2.26 5.35 -2.26 5.35 -4.52 6.79 C-7 8 -7 8 -10 7 C-6.8 4.35 -3.61 2.06 0 0 Z " fill="#7745E1" transform="translate(865,541)"/>
<path d="M0 0 C3.21 2.67 4.51 5.92 6.19 9.69 C6.72 10.87 7.25 12.05 7.79 13.26 C8.19 14.17 8.59 15.07 9 16 C8.34 16 7.68 16 7 16 C6.34 14.02 5.68 12.04 5 10 C4.34 10 3.68 10 3 10 C2.5 8.71 2 7.42 1.5 6.12 C1.22 5.41 0.94 4.69 0.66 3.95 C0 2 0 2 0 0 Z " fill="#ECE9F7" transform="translate(264,946)"/>
<path d="M0 0 C0.21 0.58 0.41 1.15 0.62 1.75 C2.5 4.81 4.97 6.16 8 8 C7.67 8.99 7.34 9.98 7 11 C6.34 11 5.68 11 5 11 C5 10.01 5 9.02 5 8 C4.01 8 3.02 8 2 8 C1.34 7.01 0.68 6.02 0 5 C-2.12 3.81 -2.12 3.81 -4 3 C-3.01 3 -2.02 3 -1 3 C-0.67 2.01 -0.34 1.02 0 0 Z " fill="#7C4AE0" transform="translate(962,545)"/>
<path d="M0 0 C0.66 0.33 1.32 0.66 2 1 C-3.75 5 -3.75 5 -6 5 C-6 5.66 -6 6.32 -6 7 C-7.98 7.33 -9.96 7.66 -12 8 C-12 7.34 -12 6.68 -12 6 C-10.05 4.97 -8.09 3.95 -6.12 2.94 C-5.03 2.37 -3.94 1.8 -2.82 1.21 C-2.35 1.01 -2.35 1.01 0 0 Z " fill="#6A38D6" transform="translate(395,326)"/>
<path d="M0 0 C0.66 0.99 1.32 1.98 2 3 C0.62 4.5 0.62 4.5 -1 6 C-1.66 6 -2.32 6 -3 6 C-3.33 6.99 -3.66 7.98 -4 9 C-4.99 8.34 -5.98 7.68 -7 7 C-4.69 4.69 -2.38 2.38 0 0 Z " fill="#301E8E" transform="translate(449,921)"/>
<path d="M0 0 C1.43 2.35 2.09 3.48 1.62 6.25 C1.52 6.54 1.52 6.54 1 8 C-0.65 8.33 -2.3 8.66 -4 9 C-2.94 5.6 -1.99 2.99 0 0 Z " fill="#E8DCFB" transform="translate(738,879)"/>
<path d="M0 0 C0.66 0 1.32 0 2 0 C3 3.01 3.1 5.04 3.06 8.19 C3.05 9.09 3.04 9.99 3.04 10.92 C3.02 11.61 3.01 12.29 3 13 C0.41 10.41 0.63 8.97 0.38 5.38 C0.3 4.37 0.23 3.37 0.15 2.34 C0.1 1.57 0.05 0.79 0 0 Z " fill="#4D2AC5" transform="translate(976,622)"/>
<path d="M0 0 C0.66 0 1.32 0 2 0 C0.62 3.39 -0.65 4.73 -3.94 6.31 C-4.63 6.66 -5.32 7.01 -6.03 7.36 C-8 8 -8 8 -11 7 C-10.29 6.58 -9.58 6.16 -8.85 5.72 C-7.93 5.17 -7.01 4.63 -6.06 4.06 C-5.15 3.52 -4.23 2.97 -3.29 2.41 C-1 1 -1 1 0 0 Z " fill="#3718BA" transform="translate(996,416)"/>
<path d="M0 0 C0 0.66 0 1.32 0 2 C-4.09 5.31 -6.74 6.5 -12 6 C-8.6 3.25 -4.52 0 0 0 Z " fill="#814EE3" transform="translate(437,305)"/>
<path d="M0 0 C0.66 1.32 1.32 2.64 2 4 C-1.63 4 -5.26 4 -9 4 C-9.33 3.34 -9.66 2.68 -10 2 C-6.7 2 -3.4 2 0 2 C0 1.34 0 0.68 0 0 Z " fill="#793FED" transform="translate(773,962)"/>
<path d="M0 0 C0.66 0 1.32 0 2 0 C1.67 4.29 1.34 8.58 1 13 C-0.99 9.02 -1.22 8.32 -0.62 4.25 C-0.51 3.45 -0.4 2.65 -0.29 1.83 C-0.19 1.22 -0.1 0.62 0 0 Z " fill="#392D8A" transform="translate(373,939)"/>
<path d="M0 0 C2.43 2.43 2.96 4.07 3.1 7.48 C3.09 8.37 3.07 9.27 3.06 10.19 C3.05 11.09 3.04 11.99 3.04 12.92 C3.02 13.61 3.01 14.29 3 15 C1.09 11.73 0.64 9.01 0.38 5.25 C0.3 4.27 0.23 3.28 0.15 2.27 C0.1 1.52 0.05 0.77 0 0 Z " fill="#3D1BC0" transform="translate(982,652)"/>
<path d="M0 0 C0.99 0.33 1.98 0.66 3 1 C1.68 2.15 1.68 2.15 -5 8 C-5.66 7.34 -6.32 6.68 -7 6 C-5.91 4.97 -4.8 3.95 -3.69 2.94 C-3.07 2.37 -2.46 1.8 -1.82 1.21 C-1.52 1.01 -1.52 1.01 0 0 Z " fill="#8048E6" transform="translate(937,551)"/>
<path d="M0 0 C-0.88 7.75 -0.88 7.75 -2 10 C-2.66 10 -3.32 10 -4 10 C-3.89 8.52 -3.76 7.04 -3.62 5.56 C-3.56 4.74 -3.49 3.92 -3.41 3.07 C-3.28 2.38 -3.14 1.7 -3 1 C-1 0 -1 0 0 0 Z " fill="#31208E" transform="translate(573,949)"/>
<path d="M0 0 C0.99 0 1.98 0 3 0 C3 2.31 3 4.62 3 7 C2.67 7 2.34 7 2 7 C1.67 9.31 1.34 11.62 1 14 C0.67 14 0.34 14 0 14 C0 9.38 0 4.76 0 0 Z " fill="#6F45D9" transform="translate(970,734)"/>
<path d="M0 0 C3.52 -0.4 4.8 -0.13 7.81 1.88 C8.53 2.58 9.26 3.28 10 4 C10 4.66 10 5.32 10 6 C6.41 4.67 3.2 3.11 0 1 C0 0.67 0 0.34 0 0 Z " fill="#5225C9" transform="translate(393,545)"/>
<path d="M0 0 C-1.42 2.03 -2.55 2.9 -4.98 3.42 C-6.98 3.66 -8.99 3.84 -11 4 C-11 3.34 -11 2.68 -11 2 C-9.54 1.47 -8.09 0.95 -6.62 0.44 C-5.81 0.15 -5 -0.14 -4.16 -0.44 C-2 -1 -2 -1 0 0 Z " fill="#4922CF" transform="translate(643,830)"/>
<path d="M0 0 C0.66 0.33 1.32 0.66 2 1 C1.78 1.28 1.78 1.28 0.69 2.69 C-1 5 -1 5 -2.56 7.75 C-3.04 8.49 -3.51 9.24 -4 10 C-4.66 10 -5.32 10 -6 10 C-4.63 6 -2.74 3.2 0 0 Z " fill="#DED9EF" transform="translate(603,905)"/>
<path d="M0 0 C2.18 1.76 2.94 2.69 3.51 5.48 C3.57 6.37 3.63 7.27 3.69 8.19 C3.75 9.09 3.82 9.99 3.89 10.92 C3.92 11.61 3.96 12.29 4 13 C3.01 12.67 2.02 12.34 1 12 C1.33 9.36 1.66 6.72 2 4 C1.34 4 0.68 4 0 4 C0 2.68 0 1.36 0 0 Z " fill="#8F60F3" transform="translate(771,951)"/>
<path d="M0 0 C0.66 0.33 1.32 0.66 2 1 C1 4 1 4 -0.88 5.19 C-3 6 -3 6 -6 6 C-5 3 -5 3 -2.56 1.25 C-1.72 0.84 -0.87 0.42 0 0 Z " fill="#2E1E8A" transform="translate(328,889)"/>
<path d="M0 0 C0.99 0.66 1.98 1.32 3 2 C-2.18 5.22 -2.18 5.22 -4 6 C-4.99 5.67 -5.98 5.34 -7 5 C-4.69 3.35 -2.38 1.7 0 0 Z " fill="#7541DF" transform="translate(665,674)"/>
<path d="M0 0 C1.32 2.18 2.07 3.43 1.75 6 C0.97 8.09 0.01 10.02 -1 12 C-1.03 10.38 -1.05 8.75 -1.06 7.12 C-1.07 6.22 -1.09 5.32 -1.1 4.38 C-1 2 -1 2 0 0 Z " fill="#3616BD" transform="translate(921,653)"/>
<path d="M0 0 C3.25 2.83 4.52 4.69 5 9 C4.34 9 3.68 9 3 9 C2.88 8.36 2.75 7.72 2.62 7.06 C2.42 6.38 2.21 5.7 2 5 C1.34 4.67 0.68 4.34 0 4 C-0.33 3.01 -0.66 2.02 -1 1 C-0.67 0.67 -0.34 0.34 0 0 Z " fill="#7A45DD" transform="translate(973,557)"/>
<path d="M0 0 C-1.46 0.84 -2.91 1.67 -4.38 2.5 C-4.78 2.73 -4.78 2.73 -6.84 3.91 C-9 5 -9 5 -11 5 C-11 4.34 -11 3.68 -11 3 C-9.74 2.3 -8.46 1.62 -7.19 0.94 C-6.48 0.55 -5.77 0.17 -5.04 -0.22 C-3 -1 -3 -1 0 0 Z " fill="#A360F6" transform="translate(573,237)"/>
<path d="M0 0 C0 0.33 0 0.66 0 1 C-2.31 1 -4.62 1 -7 1 C-7.66 2.32 -8.32 3.64 -9 5 C-9.99 4.34 -10.98 3.68 -12 3 C-8.24 -0.76 -5.03 -0.25 0 0 Z " fill="#9B6FF4" transform="translate(1049,944)"/>
<path d="M0 0 C0.33 0 0.66 0 1 0 C1 3.63 1 7.26 1 11 C0.01 11 -0.98 11 -2 11 C-1.86 9.35 -1.71 7.71 -1.56 6.06 C-1.48 5.15 -1.4 4.23 -1.32 3.29 C-1 1 -1 1 0 0 Z " fill="#EBE7F4" transform="translate(376,937)"/>
<path d="M0 0 C0.99 0 1.98 0 3 0 C2.67 3.3 2.34 6.6 2 10 C1.67 10 1.34 10 1 10 C0.67 6.7 0.34 3.4 0 0 Z " fill="#2E188D" transform="translate(578,904)"/>
<path d="M0 0 C-1.65 0.33 -3.3 0.66 -5 1 C-5 1.66 -5 2.32 -5 3 C-6.88 3.62 -6.88 3.62 -9 4 C-9.66 3.34 -10.32 2.68 -11 2 C-3.57 -1.57 -3.57 -1.57 0 0 Z " fill="#9463F2" transform="translate(889,886)"/>
<path d="M0 0 C0.33 0 0.66 0 1 0 C1.12 6.75 1.12 6.75 0 9 C-0.66 9 -1.32 9 -2 9 C-1.12 1.12 -1.12 1.12 0 0 Z " fill="#E9E5F4" transform="translate(246,877)"/>
<path d="M0 0 C0.99 0.33 1.98 0.66 3 1 C0.36 2.98 -2.28 4.96 -5 7 C-5.66 6.67 -6.32 6.34 -7 6 C-5.91 4.97 -4.8 3.95 -3.69 2.94 C-3.07 2.37 -2.46 1.8 -1.82 1.21 C-1.52 1.01 -1.52 1.01 0 0 Z " fill="#441FD2" transform="translate(651,821)"/>
<path d="M0 0 C3.37 0.55 5.08 1.05 8 3 C7.67 3.99 7.34 4.98 7 6 C5.83 5.19 4.66 4.38 3.5 3.56 C2.85 3.11 2.2 2.66 1.53 2.19 C1.03 1.8 0.52 1.41 0 1 C0 0.67 0 0.34 0 0 Z " fill="#723CDE" transform="translate(493,608)"/>
<path d="M0 0 C0.66 0.66 1.32 1.32 2 2 C-0.31 3.32 -2.62 4.64 -5 6 C-5.66 5.34 -6.32 4.68 -7 4 C-4.69 2.68 -2.38 1.36 0 0 Z " fill="#7A49DD" transform="translate(844,554)"/>
<path d="M0 0 C0.66 0.33 1.32 0.66 2 1 C-0.36 3.53 -1.66 4.89 -5 6 C-5.66 5.34 -6.32 4.68 -7 4 C-1.73 0.78 -1.73 0.78 0 0 Z " fill="#4F2CC5" transform="translate(937,448)"/>
<path d="M0 0 C0.66 0 1.32 0 2 0 C1.67 2.97 1.34 5.94 1 9 C0.34 9 -0.32 9 -1 9 C-1.1 2.85 -1.1 2.85 -1 1 C-0.67 0.67 -0.34 0.34 0 0 Z " fill="#3114B6" transform="translate(255,403)"/>
<path d="M0 0 C-0.64 0.1 -1.28 0.21 -1.94 0.31 C-2.28 0.43 -2.28 0.43 -4 1 C-4.33 1.99 -4.66 2.98 -5 4 C-6.65 4 -8.3 4 -10 4 C-6.88 0.57 -4.64 -1.55 0 0 Z " fill="#4D20CA" transform="translate(334,361)"/>
<path d="M0 0 C0.33 0 0.66 0 1 0 C2.35 6.4 2.35 6.4 0.56 9.44 C0.05 9.95 -0.47 10.47 -1 11 C-1.12 3.38 -1.12 3.38 0 0 Z " fill="#783FF1" transform="translate(950,950)"/>
<path d="M0 0 C2.5 0.19 2.5 0.19 5 1 C5.66 1.99 6.32 2.98 7 4 C3.58 4 1.05 3.53 -2 2 C-1.34 1.34 -0.68 0.68 0 0 Z " fill="#2E1E8C" transform="translate(545,943)"/>
<path d="M0 0 C0.99 0.33 1.98 0.66 3 1 C2.34 2.98 1.68 4.96 1 7 C0.34 7 -0.32 7 -1 7 C-0.67 4.69 -0.34 2.38 0 0 Z " fill="#2A1785" transform="translate(399,887)"/>
<path d="M0 0 C-1.33 4 -3.5 4.84 -7 7 C-7.66 6.67 -8.32 6.34 -9 6 C-7.88 4.99 -6.75 4 -5.62 3 C-5.31 2.72 -5.31 2.72 -3.73 1.31 C-2 0 -2 0 0 0 Z " fill="#6B35DD" transform="translate(675,668)"/>
<path d="M0 0 C0 4.29 0 8.58 0 13 C-0.33 13 -0.66 13 -1 13 C-1.02 12.65 -1.02 12.65 -1.15 10.88 C-1.19 10.43 -1.19 10.43 -1.38 8.12 C-1.44 7.22 -1.51 6.32 -1.59 5.38 C-2 3 -2 3 -4 1 C-2 0 -2 0 0 0 Z " fill="#7742DC" transform="translate(877,535)"/>
<path d="M0 0 C0.99 0.16 0.99 0.16 6 1 C6.33 1.99 6.66 2.98 7 4 C2.25 3.12 2.25 3.12 0 2 C0 1.34 0 0.68 0 0 Z " fill="#542AC6" transform="translate(468,537)"/>
<path d="M0 0 C0.28 0.11 0.28 0.11 1.69 0.69 C-5.06 4.69 -5.06 4.69 -7.31 4.69 C-7.31 4.03 -7.31 3.37 -7.31 2.69 C-3.16 -0.43 -3.16 -0.43 0 0 Z " fill="#3D1ABE" transform="translate(903.3125,468.3125)"/>
<path d="M0 0 C2.06 4.12 2.34 4.87 1 9 C0.67 9.16 0.67 9.16 -1 10 C-0.67 6.7 -0.34 3.4 0 0 Z " fill="#8B5BF7" transform="translate(929,978)"/>
<path d="M0 0 C0.99 0.33 1.98 0.66 3 1 C1.71 2.38 0.37 3.71 -1 5 C-1.66 5 -2.32 5 -3 5 C-2.62 3.06 -2.62 3.06 -2 1 C-1.34 0.67 -0.68 0.34 0 0 Z " fill="#2C1990" transform="translate(547,958)"/>
<path d="M0 0 C0.66 0.33 1.32 0.66 2 1 C0.02 3.31 -1.96 5.62 -4 8 C-4.33 7.01 -4.66 6.02 -5 5 C-3.35 3.35 -1.7 1.7 0 0 Z " fill="#E8E5F4" transform="translate(332,934)"/>
<path d="M0 0 C0 0.66 0 1.32 0 2 C-5.41 6 -5.41 6 -8 6 C-6.73 2.19 -4.19 0 0 0 Z " fill="#4A25D1" transform="translate(667,811)"/>
<path d="M0 0 C0.33 0 0.66 0 1 0 C1.69 3.31 1.69 3.31 2 7 C0.56 8.94 0.56 8.94 -1 10 C-1.12 3.38 -1.12 3.38 0 0 Z " fill="#2C0FB8" transform="translate(923,641)"/>
<path d="M0 0 C2.94 0.81 2.94 0.81 6 2 C6.33 2.99 6.66 3.98 7 5 C4.62 4.75 4.62 4.75 2 4 C0.69 1.94 0.69 1.94 0 0 Z " fill="#5532C4" transform="translate(614,630)"/>
<path d="M0 0 C2 1 2 1 2 1 Z M-3 0 C-2.01 0.66 -1.02 1.32 0 2 C-2.38 3.56 -2.38 3.56 -5 5 C-5.66 4.67 -6.32 4.34 -7 4 C-7 3.34 -7 2.68 -7 2 C-5.68 1.34 -4.36 0.68 -3 0 Z " fill="#4D28C6" transform="translate(285,386)"/>
</svg>
